<svg width="112" height="17" viewBox="0 0 112 17" fill="none" xmlns="http://www.w3.org/2000/svg">
<g clip-path="url(#clip0_885_19)">
<mask id="mask0_885_19" style="mask-type:alpha" maskUnits="userSpaceOnUse" x="0" y="0" width="112" height="17">
<path d="M111.71 0.480957H0.450195V16.4612H111.71V0.480957Z" fill="white"/>
</mask>
<g mask="url(#mask0_885_19)">
<path d="M2.53752 7.31814H4.54176C6.23095 7.31814 7.02633 7.74801 7.02633 8.97418C7.02633 10.5147 5.53538 10.6969 4.4586 10.6969H2.53752V7.31814ZM0.450195 12.4857H4.6741C6.89356 12.4857 9.11326 11.6912 9.11326 9.13983C9.11326 7.63298 8.05314 6.47269 6.57891 6.30779V6.27398C7.78784 5.91005 8.61624 5.03247 8.61624 3.70687C8.61624 1.57021 6.79404 0.758789 5.02176 0.758789H0.450195V12.4857ZM2.53752 2.5476H4.25981C5.83381 2.5476 6.52911 3.04424 6.52911 4.05465C6.52911 4.93276 5.83381 5.52907 4.44225 5.52907H2.53752V2.5476Z" fill="white"/>
<path d="M10.4756 0.481445H12.4632V12.4861H10.4756V0.481445Z" fill="white"/>
<path d="M13.792 8.5106C13.792 11.0122 15.7134 12.6851 18.1156 12.6851C20.5169 12.6851 22.4383 11.0122 22.4383 8.5106C22.4383 6.00963 20.5167 4.33643 18.1156 4.33643C15.7134 4.33643 13.792 6.00963 13.792 8.5106ZM15.7796 8.5106C15.7796 7.26829 16.6574 6.12549 18.1156 6.12549C19.5729 6.12549 20.4507 7.26829 20.4507 8.5106C20.4507 9.75317 19.5729 10.896 18.1156 10.896C16.6574 10.896 15.7796 9.75317 15.7796 8.5106Z" fill="white"/>
<path d="M23.3369 8.5106C23.3369 11.0122 25.2583 12.6851 27.6602 12.6851C30.0615 12.6851 31.9831 11.0122 31.9831 8.5106C31.9831 6.00963 30.0615 4.33643 27.6602 4.33643C25.2583 4.33643 23.3369 6.00963 23.3369 8.5106ZM25.3244 8.5106C25.3244 7.26829 26.2027 6.12549 27.6602 6.12549C29.1176 6.12549 29.9956 7.26829 29.9956 8.5106C29.9956 9.75317 29.1176 10.896 27.6602 10.896C26.2027 10.896 25.3244 9.75317 25.3244 8.5106Z" fill="white"/>
<path d="M33.1973 4.53545H35.0852V5.77776H35.1182C35.4663 5.03303 36.2283 4.33691 37.5533 4.33691C38.7792 4.33691 39.6238 4.81728 40.0379 5.81126C40.6175 4.80031 41.4618 4.33691 42.6547 4.33691C44.7751 4.33691 45.5201 5.84408 45.5201 7.74864V12.4864H43.5325V7.98118C43.5325 6.98713 43.2346 6.12591 42.0588 6.12591C40.8163 6.12591 40.3524 7.15298 40.3524 8.17934V12.4864H38.3651V7.74864C38.3651 6.77181 37.9671 6.12591 37.0066 6.12591C35.6983 6.12591 35.185 7.08684 35.185 8.14697V12.4864H33.1973V4.53545Z" fill="white"/>
<path d="M47.1309 12.4862H49.0193V11.2936H49.0525C49.6324 12.2539 50.6759 12.6852 51.7857 12.6852C54.237 12.6852 55.7109 10.863 55.7109 8.51077C55.7109 6.15935 54.1374 4.33652 51.8682 4.33652C50.3776 4.33652 49.5824 5.03284 49.1688 5.5459H49.1189V0.481445H47.1309V12.4862ZM53.7234 8.51077C53.7234 9.7532 52.8456 10.8961 51.3881 10.8961C49.9306 10.8961 49.0525 9.7532 49.0525 8.51077C49.0525 7.26846 49.9306 6.12559 51.3881 6.12559C52.8456 6.12559 53.7234 7.26846 53.7234 8.51077Z" fill="white"/>
<path d="M64.6596 9.20604V8.66009C64.6596 5.89451 63.1525 4.33643 60.9324 4.33643C58.531 4.33643 56.6094 6.00944 56.6094 8.5106C56.6094 11.0122 58.531 12.6851 60.9324 12.6851C62.1915 12.6851 63.3674 12.2369 64.295 11.0945L62.8708 10.0184C62.3743 10.6313 61.7277 11.0945 60.7341 11.0945C59.6244 11.0945 58.7298 10.383 58.597 9.20604H64.6596ZM58.597 7.71614C58.7465 6.57273 59.4752 5.82745 60.6512 5.82745C61.8933 5.82745 62.6553 6.55594 62.6717 7.71614H58.597Z" fill="white"/>
<path d="M65.9561 4.53551H67.9432V5.7946H67.9772C68.4075 4.88367 69.2852 4.33691 70.3289 4.33691C70.5774 4.33691 70.8096 4.3869 71.0408 4.45303V6.37449C70.7095 6.29145 70.3948 6.22549 70.0804 6.22549C68.2085 6.22549 67.9432 7.79925 67.9432 8.22988V12.4865H65.9561V4.53551Z" fill="white"/>
<path d="M77.8391 4.53503V5.72824H77.8059C77.2265 4.76721 76.1829 4.33643 75.0729 4.33643C72.6211 4.33643 71.1475 6.15913 71.1475 8.51048C71.1475 10.763 72.721 12.5856 75.1058 12.5856C76.0996 12.5856 77.1267 12.2046 77.7066 11.4262H77.7394V12.0061C77.7394 13.5799 77.1429 14.6724 75.2222 14.6724C74.1119 14.6724 73.2841 14.2585 72.4887 13.5293L71.2961 15.153C72.4225 16.147 73.7641 16.4609 75.2388 16.4609C78.3359 16.4609 79.7275 14.6394 79.7275 11.774V4.53503H77.8391ZM75.487 6.1255C76.9282 6.1255 77.8391 7.08642 77.8391 8.46057C77.8391 9.78675 76.9448 10.7968 75.4703 10.7968C74.1287 10.7968 73.1351 9.75298 73.1351 8.49432C73.1351 7.08642 74.0958 6.1255 75.487 6.1255Z" fill="white"/>
<path d="M90.1822 12.486L84.5125 3.25585H84.4788V12.486H82.3525V0.539062H85.1705L90.7222 9.48257H90.7561V0.539062H92.8822V12.486H90.1822Z" fill="white"/>
<path d="M94.3818 12.486V0.539062H102.296V2.39519H96.508V5.43277H101.993V7.22122H96.508V10.5961H102.6V12.486H94.3818Z" fill="white"/>
<path d="M106.126 7.45764V12.486H104V0.539062H111.711V2.39519H106.126V5.66877H111.39V7.45764H106.126Z" fill="white"/>
</g>
</g>
<defs>
<clipPath id="clip0_885_19">
<rect width="112" height="17" fill="white"/>
</clipPath>
</defs>
</svg>
