<svg width="273" height="60" viewBox="0 0 273 60" fill="none" xmlns="http://www.w3.org/2000/svg">
<path d="M27.0001 4L49.5167 17V43L27.0001 56L4.4834 43V17L27.0001 4Z" fill="#2D2D63"/>
<path d="M28.5 19C31.7214 19 35 21 37 23.0113V46C34.1667 46 31.3325 46 28.5 46C21.0442 46 15 39.9558 15 32.5C15 25.0442 21.0442 19 28.5 19Z" fill="white"/>
<path fill-rule="evenodd" clip-rule="evenodd" d="M14 32.5C14 24.4919 20.4919 18 28.5 18C32.0893 18 35.6079 20.1932 37.7091 22.3062L38 22.5988V47H28.5C20.4919 47 14 40.5081 14 32.5ZM28.5 20C21.5964 20 16 25.5964 16 32.5C16 39.4036 21.5964 45 28.5 45H36V23.4332C34.091 21.632 31.2119 20 28.5 20Z" fill="#2D2D63"/>
<path d="M37 29.0145C36.8346 29.0049 36.6678 29 36.5 29C31.8056 29 28 32.8056 28 37.5C28 42.1944 31.8056 46 36.5 46C36.6678 46 36.8346 45.9951 37 45.9855V29.0145Z" fill="white"/>
<path fill-rule="evenodd" clip-rule="evenodd" d="M36 30.0164C32.091 30.2737 29 33.5259 29 37.5C29 41.4741 32.091 44.7263 36 44.9836V30.0164ZM27 37.5C27 32.2533 31.2533 28 36.5 28C36.6872 28 36.8732 28.0054 37.0579 28.0161L38 28.0708V46.9292L37.0579 46.9839C36.8732 46.9946 36.6872 47 36.5 47C31.2533 47 27 42.7467 27 37.5Z" fill="#2D2D63"/>
<path d="M26 30.6264C25.2096 30.8693 24.3701 31 23.5 31C18.8056 31 15 27.1944 15 22.5C15 17.8056 18.8056 14 23.5 14C24.3701 14 26 14 26 14C26 14 27.6299 14 28.5 14C33.1944 14 37 17.8056 37 22.5C37 27.1944 33.1944 31 28.5 31C27.6299 31 26.7904 30.8693 26 30.6264Z" fill="white"/>
<path fill-rule="evenodd" clip-rule="evenodd" d="M23.5 15C19.3579 15 16 18.3579 16 22.5C16 26.6421 19.3579 30 23.5 30C24.2694 30 25.01 29.8845 25.7063 29.6705L26 29.5803L26.2937 29.6705C26.99 29.8845 27.7306 30 28.5 30C32.6421 30 36 26.6421 36 22.5C36 18.3579 32.6421 15 28.5 15H26.0002L26 14L26 13H28.5C33.7467 13 38 17.2533 38 22.5C38 27.7467 33.7467 32 28.5 32C27.636 32 26.7976 31.8844 26 31.6674C25.2024 31.8844 24.364 32 23.5 32C18.2533 32 14 27.7467 14 22.5C14 17.2533 18.2533 13 23.5 13H26L26 14L26.0002 15H23.5Z" fill="#2D2D63"/>
<path d="M23 24C23 25.1046 22.1046 26 21 26C19.8954 26 19 25.1046 19 24C19 22.8954 19.8954 22 21 22C22.1046 22 23 22.8954 23 24Z" fill="#2D2D63"/>
<path d="M33 24C33 25.1046 32.1046 26 31 26C29.8954 26 29 25.1046 29 24C29 22.8954 29.8954 22 31 22C32.1046 22 33 22.8954 33 24Z" fill="#2D2D63"/>
<path fill-rule="evenodd" clip-rule="evenodd" d="M20.5 20C18.5135 20 16.7302 21.3323 15.9307 23.3659C15.7286 23.8799 15.1481 24.1327 14.6341 23.9307C14.1201 23.7286 13.8673 23.1481 14.0694 22.6341C15.1213 19.9587 17.5664 18 20.5 18C23.4336 18 25.8788 19.9587 26.9307 22.6341C27.1328 23.1481 26.8799 23.7286 26.3659 23.9307C25.8519 24.1327 25.2715 23.8799 25.0694 23.3659C24.2698 21.3323 22.4865 20 20.5 20Z" fill="#2D2D63"/>
<path fill-rule="evenodd" clip-rule="evenodd" d="M31.5 20C29.5135 20 27.7302 21.3323 26.9307 23.3659C26.7286 23.8799 26.1481 24.1327 25.6341 23.9307C25.1201 23.7286 24.8673 23.1481 25.0694 22.6341C26.1213 19.9587 28.5664 18 31.5 18C34.4336 18 36.8788 19.9587 37.9307 22.6341C38.1328 23.1481 37.8799 23.7286 37.3659 23.9307C36.8519 24.1327 36.2715 23.8799 36.0694 23.3659C35.2698 21.3323 33.4865 20 31.5 20Z" fill="#2D2D63"/>
<path d="M66.6094 23.2266H68.9453C68.8984 23.9922 68.6875 24.6719 68.3125 25.2656C67.9427 25.8594 67.4245 26.3229 66.7578 26.6562C66.0964 26.9896 65.2995 27.1562 64.3672 27.1562C63.638 27.1562 62.9844 27.0312 62.4062 26.7812C61.8281 26.526 61.3333 26.1615 60.9219 25.6875C60.5156 25.2135 60.2057 24.6406 59.9922 23.9688C59.7786 23.2969 59.6719 22.5443 59.6719 21.7109V20.9219C59.6719 20.0885 59.7812 19.3359 60 18.6641C60.224 17.987 60.5417 17.4115 60.9531 16.9375C61.3698 16.4635 61.8672 16.099 62.4453 15.8438C63.0234 15.5885 63.6693 15.4609 64.3828 15.4609C65.3307 15.4609 66.1302 15.6328 66.7812 15.9766C67.4375 16.3203 67.9453 16.7943 68.3047 17.3984C68.6693 18.0026 68.888 18.6901 68.9609 19.4609H66.6172C66.5911 19.0026 66.5 18.6146 66.3438 18.2969C66.1875 17.974 65.9505 17.7318 65.6328 17.5703C65.3203 17.4036 64.9036 17.3203 64.3828 17.3203C63.9922 17.3203 63.651 17.3932 63.3594 17.5391C63.0677 17.6849 62.8229 17.9062 62.625 18.2031C62.4271 18.5 62.2786 18.875 62.1797 19.3281C62.0859 19.776 62.0391 20.3021 62.0391 20.9062V21.7109C62.0391 22.2995 62.0833 22.8177 62.1719 23.2656C62.2604 23.7083 62.3958 24.0833 62.5781 24.3906C62.7656 24.6927 63.0052 24.9219 63.2969 25.0781C63.5938 25.2292 63.9505 25.3047 64.3672 25.3047C64.8568 25.3047 65.2604 25.2266 65.5781 25.0703C65.8958 24.9141 66.138 24.6823 66.3047 24.375C66.4766 24.0677 66.5781 23.6849 66.6094 23.2266Z" fill="#2D2D63"/>
<path d="M75.7494 17.5703L72.6556 27H70.1634L74.39 15.625H75.9759L75.7494 17.5703ZM78.3197 27L75.2181 17.5703L74.9681 15.625H76.5697L80.8197 27H78.3197ZM78.1791 22.7656V24.6016H72.1713V22.7656H78.1791Z" fill="#2D2D63"/>
<path d="M82.5144 15.625H86.7566C87.6264 15.625 88.3738 15.7552 88.9988 16.0156C89.629 16.276 90.1133 16.6615 90.4519 17.1719C90.7904 17.6823 90.9597 18.3099 90.9597 19.0547C90.9597 19.6641 90.8555 20.1875 90.6472 20.625C90.4441 21.0573 90.155 21.4193 89.78 21.7109C89.4102 21.9974 88.9753 22.2266 88.4753 22.3984L87.7331 22.7891H84.0456L84.03 20.9609H86.7722C87.1836 20.9609 87.5248 20.888 87.7956 20.7422C88.0665 20.5964 88.2696 20.3932 88.405 20.1328C88.5456 19.8724 88.6159 19.5703 88.6159 19.2266C88.6159 18.862 88.5482 18.5469 88.4128 18.2812C88.2774 18.0156 88.0717 17.8125 87.7956 17.6719C87.5196 17.5312 87.1732 17.4609 86.7566 17.4609H84.8581V27H82.5144V15.625ZM88.8738 27L86.28 21.9297L88.7566 21.9141L91.3816 26.8906V27H88.8738Z" fill="#2D2D63"/>
<path d="M97.8575 22.0078H94.9356L94.92 20.3984H97.3731C97.8054 20.3984 98.1596 20.3438 98.4356 20.2344C98.7117 20.1198 98.9174 19.9557 99.0528 19.7422C99.1934 19.5234 99.2637 19.2578 99.2637 18.9453C99.2637 18.5911 99.196 18.3047 99.0606 18.0859C98.9304 17.8672 98.7247 17.7083 98.4434 17.6094C98.1674 17.5104 97.8106 17.4609 97.3731 17.4609H95.7481V27H93.4044V15.625H97.3731C98.0346 15.625 98.6257 15.6875 99.1466 15.8125C99.6726 15.9375 100.118 16.1276 100.482 16.3828C100.847 16.638 101.126 16.9609 101.318 17.3516C101.511 17.737 101.607 18.1953 101.607 18.7266C101.607 19.1953 101.501 19.6276 101.287 20.0234C101.079 20.4193 100.748 20.7422 100.295 20.9922C99.8471 21.2422 99.2611 21.3802 98.5372 21.4062L97.8575 22.0078ZM97.7559 27H94.295L95.2091 25.1719H97.7559C98.1674 25.1719 98.5033 25.1068 98.7637 24.9766C99.0242 24.8411 99.2169 24.6589 99.3419 24.4297C99.4669 24.2005 99.5294 23.9375 99.5294 23.6406C99.5294 23.3073 99.4721 23.0182 99.3575 22.7734C99.2481 22.5286 99.071 22.3411 98.8262 22.2109C98.5815 22.0755 98.2585 22.0078 97.8575 22.0078H95.5997L95.6153 20.3984H98.4278L98.9669 21.0312C99.6596 21.0208 100.217 21.1432 100.639 21.3984C101.066 21.6484 101.376 21.974 101.568 22.375C101.766 22.776 101.865 23.2057 101.865 23.6641C101.865 24.3932 101.706 25.0078 101.389 25.5078C101.071 26.0026 100.605 26.375 99.9903 26.625C99.3809 26.875 98.6361 27 97.7559 27Z" fill="#2D2D63"/>
<path d="M113.607 21.0469V21.5859C113.607 22.4505 113.49 23.2266 113.255 23.9141C113.021 24.6016 112.69 25.1875 112.263 25.6719C111.836 26.151 111.326 26.5182 110.732 26.7734C110.143 27.0286 109.49 27.1562 108.771 27.1562C108.057 27.1562 107.404 27.0286 106.81 26.7734C106.221 26.5182 105.711 26.151 105.279 25.6719C104.846 25.1875 104.511 24.6016 104.271 23.9141C104.037 23.2266 103.919 22.4505 103.919 21.5859V21.0469C103.919 20.1771 104.037 19.401 104.271 18.7188C104.505 18.0312 104.836 17.4453 105.263 16.9609C105.695 16.4766 106.206 16.1068 106.794 15.8516C107.388 15.5964 108.042 15.4688 108.755 15.4688C109.474 15.4688 110.128 15.5964 110.716 15.8516C111.31 16.1068 111.82 16.4766 112.248 16.9609C112.68 17.4453 113.013 18.0312 113.248 18.7188C113.487 19.401 113.607 20.1771 113.607 21.0469ZM111.24 21.5859V21.0312C111.24 20.4271 111.185 19.8958 111.076 19.4375C110.966 18.9792 110.805 18.5938 110.591 18.2812C110.378 17.9688 110.117 17.7344 109.81 17.5781C109.503 17.4167 109.151 17.3359 108.755 17.3359C108.359 17.3359 108.008 17.4167 107.701 17.5781C107.399 17.7344 107.141 17.9688 106.927 18.2812C106.719 18.5938 106.56 18.9792 106.451 19.4375C106.341 19.8958 106.287 20.4271 106.287 21.0312V21.5859C106.287 22.1849 106.341 22.7161 106.451 23.1797C106.56 23.638 106.721 24.026 106.935 24.3438C107.149 24.6562 107.409 24.8932 107.716 25.0547C108.024 25.2161 108.375 25.2969 108.771 25.2969C109.167 25.2969 109.518 25.2161 109.826 25.0547C110.133 24.8932 110.391 24.6562 110.599 24.3438C110.807 24.026 110.966 23.638 111.076 23.1797C111.185 22.7161 111.24 22.1849 111.24 21.5859Z" fill="#2D2D63"/>
<path d="M125.192 15.625V27H122.848L118.278 19.375V27H115.934V15.625H118.278L122.856 23.2578V15.625H125.192Z" fill="#2D2D63"/>
<path d="M134.839 15.625V27H132.496V15.625H134.839ZM141.652 15.625L137.144 21.2422L134.543 24.0391L134.121 21.8203L135.878 19.4141L138.777 15.625H141.652ZM138.988 27L135.636 21.7422L137.371 20.2891L141.761 27H138.988Z" fill="#2D2D63"/>
<path d="M152.565 15.625V27H150.222L145.651 19.375V27H143.308V15.625H145.651L150.229 23.2578V15.625H152.565Z" fill="#2D2D63"/>
<path d="M164.588 21.0469V21.5859C164.588 22.4505 164.471 23.2266 164.237 23.9141C164.002 24.6016 163.671 25.1875 163.244 25.6719C162.817 26.151 162.307 26.5182 161.713 26.7734C161.125 27.0286 160.471 27.1562 159.752 27.1562C159.039 27.1562 158.385 27.0286 157.791 26.7734C157.203 26.5182 156.692 26.151 156.26 25.6719C155.828 25.1875 155.492 24.6016 155.252 23.9141C155.018 23.2266 154.901 22.4505 154.901 21.5859V21.0469C154.901 20.1771 155.018 19.401 155.252 18.7188C155.487 18.0312 155.817 17.4453 156.244 16.9609C156.677 16.4766 157.187 16.1068 157.776 15.8516C158.369 15.5964 159.023 15.4688 159.737 15.4688C160.455 15.4688 161.109 15.5964 161.698 15.8516C162.291 16.1068 162.802 16.4766 163.229 16.9609C163.661 17.4453 163.994 18.0312 164.229 18.7188C164.468 19.401 164.588 20.1771 164.588 21.0469ZM162.221 21.5859V21.0312C162.221 20.4271 162.166 19.8958 162.057 19.4375C161.948 18.9792 161.786 18.5938 161.573 18.2812C161.359 17.9688 161.099 17.7344 160.791 17.5781C160.484 17.4167 160.132 17.3359 159.737 17.3359C159.341 17.3359 158.989 17.4167 158.682 17.5781C158.38 17.7344 158.122 17.9688 157.908 18.2812C157.7 18.5938 157.541 18.9792 157.432 19.4375C157.323 19.8958 157.268 20.4271 157.268 21.0312V21.5859C157.268 22.1849 157.323 22.7161 157.432 23.1797C157.541 23.638 157.703 24.026 157.916 24.3438C158.13 24.6562 158.39 24.8932 158.698 25.0547C159.005 25.2161 159.356 25.2969 159.752 25.2969C160.148 25.2969 160.5 25.2161 160.807 25.0547C161.114 24.8932 161.372 24.6562 161.58 24.3438C161.789 24.026 161.948 23.638 162.057 23.1797C162.166 22.7161 162.221 22.1849 162.221 21.5859Z" fill="#2D2D63"/>
<path d="M169.658 25.1953L171.923 15.625H173.189L173.478 17.2188L171.064 27H169.705L169.658 25.1953ZM168.494 15.625L170.369 25.1953L170.213 27H168.697L166.173 15.625H168.494ZM175.47 25.1562L177.322 15.625H179.642L177.127 27H175.611L175.47 25.1562ZM173.9 15.625L176.181 25.2344L176.119 27H174.759L172.33 17.2109L172.642 15.625H173.9Z" fill="#2D2D63"/>
<path d="M188.868 25.1719V27H183.142V25.1719H188.868ZM183.899 15.625V27H181.556V15.625H183.899Z" fill="#2D2D63"/>
<path d="M198.485 25.1719V27H192.43V25.1719H198.485ZM193.196 15.625V27H190.852V15.625H193.196ZM197.696 20.2578V22.0391H192.43V20.2578H197.696ZM198.477 15.625V17.4609H192.43V15.625H198.477Z" fill="#2D2D63"/>
<path d="M203.984 27H201.508L201.523 25.1719H203.984C204.599 25.1719 205.117 25.0339 205.539 24.7578C205.961 24.4766 206.278 24.0677 206.492 23.5312C206.711 22.9948 206.82 22.3464 206.82 21.5859V21.0312C206.82 20.4479 206.758 19.9349 206.633 19.4922C206.513 19.0495 206.333 18.6771 206.093 18.375C205.854 18.0729 205.56 17.8464 205.211 17.6953C204.862 17.5391 204.461 17.4609 204.008 17.4609H201.461V15.625H204.008C204.768 15.625 205.463 15.7552 206.093 16.0156C206.729 16.2708 207.278 16.638 207.742 17.1172C208.205 17.5964 208.562 18.1693 208.812 18.8359C209.067 19.4974 209.195 20.2344 209.195 21.0469V21.5859C209.195 22.3932 209.067 23.1302 208.812 23.7969C208.562 24.4635 208.205 25.0365 207.742 25.5156C207.284 25.9896 206.734 26.3568 206.093 26.6172C205.458 26.8724 204.755 27 203.984 27ZM202.836 15.625V27H200.492V15.625H202.836Z" fill="#2D2D63"/>
<path d="M220.554 21.0547V25.5625C220.377 25.776 220.103 26.0078 219.733 26.2578C219.364 26.5026 218.887 26.7135 218.304 26.8906C217.72 27.0677 217.015 27.1562 216.187 27.1562C215.452 27.1562 214.783 27.0365 214.179 26.7969C213.575 26.5521 213.054 26.1953 212.616 25.7266C212.184 25.2578 211.851 24.6849 211.616 24.0078C211.382 23.3255 211.265 22.5469 211.265 21.6719V20.9609C211.265 20.0859 211.377 19.3073 211.601 18.625C211.83 17.9427 212.155 17.3672 212.577 16.8984C212.999 16.4297 213.502 16.0729 214.085 15.8281C214.668 15.5833 215.317 15.4609 216.03 15.4609C217.02 15.4609 217.832 15.6224 218.468 15.9453C219.103 16.263 219.588 16.7057 219.921 17.2734C220.259 17.8359 220.468 18.4818 220.546 19.2109H218.273C218.215 18.8255 218.106 18.4896 217.944 18.2031C217.783 17.9167 217.551 17.6927 217.249 17.5312C216.952 17.3698 216.567 17.2891 216.093 17.2891C215.702 17.2891 215.353 17.3698 215.046 17.5312C214.744 17.6875 214.489 17.9193 214.28 18.2266C214.072 18.5339 213.913 18.9141 213.804 19.3672C213.694 19.8203 213.64 20.3464 213.64 20.9453V21.6719C213.64 22.2656 213.697 22.7917 213.812 23.25C213.926 23.7031 214.095 24.0859 214.319 24.3984C214.549 24.7057 214.83 24.9375 215.163 25.0938C215.496 25.25 215.884 25.3281 216.327 25.3281C216.697 25.3281 217.004 25.2969 217.249 25.2344C217.499 25.1719 217.7 25.0964 217.851 25.0078C218.007 24.9141 218.127 24.8255 218.21 24.7422V22.7266H216.069V21.0547H220.554Z" fill="#2D2D63"/>
<path d="M230.717 25.1719V27H224.663V25.1719H230.717ZM225.428 15.625V27H223.084V15.625H225.428ZM229.928 20.2578V22.0391H224.663V20.2578H229.928ZM230.709 15.625V17.4609H224.663V15.625H230.709Z" fill="#2D2D63"/>
<path d="M244.935 20.2578V22.0859H238.997V20.2578H244.935ZM239.693 15.625V27H237.349V15.625H239.693ZM246.607 15.625V27H244.271V15.625H246.607Z" fill="#2D2D63"/>
<path d="M255.567 15.625H257.903V23.1406C257.903 24.0156 257.715 24.7526 257.34 25.3516C256.971 25.9505 256.458 26.401 255.801 26.7031C255.15 27.0052 254.4 27.1562 253.551 27.1562C252.702 27.1562 251.947 27.0052 251.286 26.7031C250.629 26.401 250.114 25.9505 249.739 25.3516C249.369 24.7526 249.184 24.0156 249.184 23.1406V15.625H251.528V23.1406C251.528 23.651 251.609 24.0677 251.77 24.3906C251.931 24.7135 252.163 24.9505 252.465 25.1016C252.773 25.2526 253.135 25.3281 253.551 25.3281C253.978 25.3281 254.34 25.2526 254.637 25.1016C254.939 24.9505 255.168 24.7135 255.325 24.3906C255.486 24.0677 255.567 23.651 255.567 23.1406V15.625Z" fill="#2D2D63"/>
<path d="M264.926 22.0078H262.004L261.988 20.3984H264.441C264.874 20.3984 265.228 20.3438 265.504 20.2344C265.78 20.1198 265.986 19.9557 266.121 19.7422C266.262 19.5234 266.332 19.2578 266.332 18.9453C266.332 18.5911 266.264 18.3047 266.129 18.0859C265.999 17.8672 265.793 17.7083 265.512 17.6094C265.236 17.5104 264.879 17.4609 264.441 17.4609H262.816V27H260.473V15.625H264.441C265.103 15.625 265.694 15.6875 266.215 15.8125C266.741 15.9375 267.186 16.1276 267.551 16.3828C267.915 16.638 268.194 16.9609 268.387 17.3516C268.579 17.737 268.676 18.1953 268.676 18.7266C268.676 19.1953 268.569 19.6276 268.355 20.0234C268.147 20.4193 267.816 20.7422 267.363 20.9922C266.915 21.2422 266.329 21.3802 265.605 21.4062L264.926 22.0078ZM264.824 27H261.363L262.277 25.1719H264.824C265.236 25.1719 265.571 25.1068 265.832 24.9766C266.092 24.8411 266.285 24.6589 266.41 24.4297C266.535 24.2005 266.598 23.9375 266.598 23.6406C266.598 23.3073 266.54 23.0182 266.426 22.7734C266.316 22.5286 266.139 22.3411 265.894 22.2109C265.65 22.0755 265.327 22.0078 264.926 22.0078H262.668L262.683 20.3984H265.496L266.035 21.0312C266.728 21.0208 267.285 21.1432 267.707 21.3984C268.134 21.6484 268.444 21.974 268.637 22.375C268.834 22.776 268.933 23.2057 268.933 23.6641C268.933 24.3932 268.775 25.0078 268.457 25.5078C268.139 26.0026 267.673 26.375 267.058 26.625C266.449 26.875 265.704 27 264.824 27Z" fill="#2D2D63"/>
<g clip-path="url(#clip0_675_11)">
<path d="M78.8287 38.9902H80.5846C82.0644 38.9902 82.7613 39.3668 82.7613 40.441C82.7613 41.7907 81.4551 41.9503 80.5117 41.9503H78.8287V38.9902ZM77 43.5175H80.7005C82.6449 43.5175 84.5896 42.8213 84.5896 40.5862C84.5896 39.266 83.6608 38.2495 82.3693 38.1051V38.0754C83.4284 37.7566 84.1541 36.9878 84.1541 35.8264C84.1541 33.9545 82.5577 33.2437 81.0051 33.2437H77V43.5175ZM78.8287 34.8108H80.3375C81.7165 34.8108 82.3256 35.2459 82.3256 36.1311C82.3256 36.9004 81.7165 37.4228 80.4974 37.4228H78.8287V34.8108Z" fill="#B6B6C8"/>
<path d="M85.7833 33.0004H87.5246V43.5176H85.7833V33.0004Z" fill="#B6B6C8"/>
<path d="M88.689 40.0347C88.689 42.2264 90.3722 43.6919 92.4768 43.6919C94.5805 43.6919 96.2639 42.2264 96.2639 40.0347C96.2639 37.8436 94.5804 36.3778 92.4768 36.3778C90.3722 36.3778 88.689 37.8436 88.689 40.0347M90.4303 40.0347C90.4303 38.9463 91.1993 37.9451 92.4768 37.9451C93.7535 37.9451 94.5225 38.9463 94.5225 40.0347C94.5225 41.1233 93.7535 42.1245 92.4768 42.1245C91.1993 42.1245 90.4303 41.1233 90.4303 40.0347" fill="#B6B6C8"/>
<path d="M97.051 40.0347C97.051 42.2264 98.7343 43.6919 100.839 43.6919C102.942 43.6919 104.626 42.2264 104.626 40.0347C104.626 37.8436 102.942 36.3778 100.839 36.3778C98.7343 36.3778 97.051 37.8436 97.051 40.0347M98.7922 40.0347C98.7922 38.9463 99.5617 37.9451 100.839 37.9451C102.115 37.9451 102.885 38.9463 102.885 40.0347C102.885 41.1233 102.115 42.1245 100.839 42.1245C99.5617 42.1245 98.7922 41.1233 98.7922 40.0347" fill="#B6B6C8"/>
<path d="M105.689 36.5519H107.343V37.6402H107.372C107.677 36.9878 108.344 36.3779 109.505 36.3779C110.579 36.3779 111.319 36.7988 111.682 37.6696C112.19 36.7839 112.929 36.3779 113.974 36.3779C115.832 36.3779 116.485 37.6983 116.485 39.3669V43.5176H114.744V39.5706C114.744 38.6997 114.483 37.9452 113.452 37.9452C112.364 37.9452 111.957 38.845 111.957 39.7442V43.5176H110.216V39.3669C110.216 38.5111 109.868 37.9452 109.026 37.9452C107.88 37.9452 107.43 38.7871 107.43 39.7158V43.5176H105.689V36.5519" fill="#B6B6C8"/>
<path d="M117.896 43.5176H119.551V42.4728H119.58C120.088 43.3141 121.002 43.6919 121.974 43.6919C124.122 43.6919 125.413 42.0955 125.413 40.0348C125.413 37.9748 124.035 36.3778 122.047 36.3778C120.741 36.3778 120.044 36.9878 119.682 37.4373H119.638V33.0004H117.896V43.5176ZM123.672 40.0348C123.672 41.1233 122.903 42.1245 121.626 42.1245C120.349 42.1245 119.58 41.1233 119.58 40.0348C119.58 38.9464 120.349 37.9452 121.626 37.9452C122.903 37.9452 123.672 38.9464 123.672 40.0348Z" fill="#B6B6C8"/>
<path d="M133.253 40.6439V40.1657C133.253 37.7428 131.933 36.3778 129.988 36.3778C127.884 36.3778 126.2 37.8435 126.2 40.0347C126.2 42.2264 127.884 43.6919 129.988 43.6919C131.091 43.6919 132.121 43.2993 132.934 42.2985L131.686 41.3556C131.251 41.8927 130.684 42.2985 129.814 42.2985C128.842 42.2985 128.058 41.6751 127.942 40.6439H133.253ZM127.942 39.3387C128.073 38.3369 128.711 37.684 129.741 37.684C130.829 37.684 131.497 38.3222 131.511 39.3387H127.942Z" fill="#B6B6C8"/>
<path d="M134.388 36.5519H136.129V37.6549H136.159C136.536 36.8569 137.305 36.3779 138.219 36.3779C138.437 36.3779 138.641 36.4217 138.843 36.4796V38.163C138.553 38.0902 138.277 38.0324 138.002 38.0324C136.362 38.0324 136.129 39.4112 136.129 39.7884V43.5176H134.388V36.5519Z" fill="#B6B6C8"/>
<path d="M144.799 36.5519V37.5972H144.77C144.262 36.7553 143.348 36.3779 142.376 36.3779C140.228 36.3779 138.937 37.9747 138.937 40.0347C138.937 42.0081 140.315 43.6049 142.405 43.6049C143.275 43.6049 144.175 43.2711 144.683 42.5892H144.712V43.0971C144.712 44.4759 144.189 45.4331 142.507 45.4331C141.534 45.4331 140.809 45.0704 140.112 44.4317L139.067 45.8541C140.054 46.7249 141.229 47 142.521 47C145.234 47 146.454 45.4042 146.454 42.8938V36.5519H144.799ZM142.739 37.9453C144.001 37.9453 144.799 38.7871 144.799 39.991C144.799 41.1528 144.016 42.0377 142.724 42.0377C141.549 42.0377 140.678 41.1232 140.678 40.0205C140.678 38.7871 141.52 37.9453 142.739 37.9453Z" fill="#B6B6C8"/>
<path d="M155.613 43.5175L150.646 35.431H150.616V43.5175H148.753V33.0509H151.222L156.086 40.8862H156.116V33.0509H157.978V43.5175H155.613Z" fill="#B6B6C8"/>
<path d="M159.292 43.5175V33.0509H166.226V34.677H161.155V37.3382H165.96V38.905H161.155V41.8617H166.492V43.5175H159.292" fill="#B6B6C8"/>
<path d="M169.58 39.1122V43.5175H167.718V33.0509H174.474V34.677H169.58V37.545H174.193V39.1122H169.58Z" fill="#B6B6C8"/>
</g>
<path d="M60.1292 35H61.6819V42.5996L61.5295 44H60.1292V35ZM65.76 40.7656V40.8887C65.76 41.3613 65.7073 41.7949 65.6018 42.1895C65.5002 42.584 65.3459 42.9258 65.1389 43.2148C64.9319 43.5 64.6741 43.7227 64.3655 43.8828C64.0608 44.0391 63.7034 44.1172 63.2932 44.1172C62.9026 44.1172 62.5627 44.041 62.2737 43.8887C61.9885 43.7363 61.7483 43.5215 61.553 43.2441C61.3577 42.9629 61.2014 42.6328 61.0842 42.2539C60.967 41.8711 60.8792 41.4531 60.8206 41V40.666C60.8792 40.209 60.967 39.791 61.0842 39.4121C61.2014 39.0332 61.3577 38.7031 61.553 38.4219C61.7483 38.1406 61.9885 37.9238 62.2737 37.7715C62.5588 37.6191 62.8948 37.543 63.2815 37.543C63.6956 37.543 64.0569 37.623 64.3655 37.7832C64.678 37.9395 64.9358 38.1621 65.1389 38.4512C65.3459 38.7363 65.5002 39.0762 65.6018 39.4707C65.7073 39.8613 65.76 40.293 65.76 40.7656ZM64.2073 40.8887V40.7656C64.2073 40.4961 64.1858 40.2422 64.1428 40.0039C64.0999 39.7617 64.0295 39.5488 63.9319 39.3652C63.8342 39.1816 63.7014 39.0371 63.5334 38.9316C63.3655 38.8262 63.1545 38.7734 62.9006 38.7734C62.6584 38.7734 62.4514 38.8145 62.2795 38.8965C62.1116 38.9785 61.9709 39.0918 61.8577 39.2363C61.7483 39.3809 61.6624 39.5508 61.5999 39.7461C61.5413 39.9414 61.5022 40.1523 61.4827 40.3789V41.293C61.51 41.5938 61.5745 41.8652 61.676 42.1074C61.7776 42.3457 61.928 42.5352 62.1272 42.6758C62.3303 42.8164 62.592 42.8867 62.9124 42.8867C63.1624 42.8867 63.3713 42.8379 63.5393 42.7402C63.7073 42.6387 63.8401 42.498 63.9377 42.3184C64.0354 42.1348 64.1038 41.9219 64.1428 41.6797C64.1858 41.4375 64.2073 41.1738 64.2073 40.8887Z" fill="#B6B6C8"/>
<path d="M69.1521 43.2969L70.8513 37.6602H72.5095L69.9666 44.9609C69.908 45.1172 69.8318 45.2871 69.7381 45.4707C69.6482 45.6543 69.5271 45.8281 69.3748 45.9922C69.2224 46.1602 69.031 46.2969 68.8006 46.4023C68.574 46.5078 68.2986 46.5605 67.9744 46.5605C67.8338 46.5605 67.7088 46.5508 67.5994 46.5312C67.49 46.5117 67.3748 46.4863 67.2537 46.4551V45.2949C67.2927 45.2988 67.3377 45.3008 67.3884 45.3008C67.4431 45.3047 67.49 45.3066 67.5291 45.3066C67.7556 45.3066 67.9431 45.2793 68.0916 45.2246C68.24 45.1738 68.3591 45.0898 68.449 44.9727C68.5427 44.8594 68.6209 44.7109 68.6834 44.5273L69.1521 43.2969ZM68.3142 37.6602L69.7498 42.3301L70.0017 43.9648L68.9353 44.1582L66.6443 37.6602H68.3142Z" fill="#B6B6C8"/>
<defs>
<clipPath id="clip0_675_11">
<rect width="97.4733" height="14" fill="white" transform="translate(77 33)"/>
</clipPath>
</defs>
</svg>
