<svg width="696" height="522" viewBox="0 0 696 522" fill="none" xmlns="http://www.w3.org/2000/svg">
<rect x="20" y="20" width="656" height="100" rx="4" stroke="#046A96" stroke-width="2" stroke-linecap="round" stroke-linejoin="bevel" stroke-dasharray="6 6"/>
<rect x="20" y="402" width="408" height="100" rx="4" stroke="#046A96" stroke-width="2" stroke-linecap="round" stroke-dasharray="6 6"/>
<rect x="40" y="40" width="174" height="60" rx="2" fill="#005174"/>
<g clip-path="url(#clip0_1496_578)">
<mask id="path-4-outside-1_1496_578" maskUnits="userSpaceOnUse" x="106.8" y="49.8025" width="40" height="40" fill="black">
<rect fill="white" x="106.8" y="49.8025" width="40" height="40"/>
<path d="M145.75 50.8025H108.25C108.001 50.8025 107.8 51.0037 107.8 51.2525V71.2525C107.8 71.5012 108.001 71.7025 108.25 71.7025H145.75C145.999 71.7025 146.2 71.5012 146.2 71.2525V51.2525C146.2 51.0037 145.999 50.8025 145.75 50.8025ZM145.3 55.755C143.156 55.54 141.462 53.8462 141.246 51.7025H145.3V55.755ZM145.3 56.6537V65.845C142.659 66.0662 140.565 68.16 140.345 70.8025H113.655C113.436 68.16 111.342 66.0662 108.7 65.845V56.6537C111.34 56.4337 113.432 54.3412 113.654 51.7012H140.345C140.567 54.3425 142.66 56.4337 145.3 56.6537ZM112.755 51.7025C112.539 53.8462 110.845 55.54 108.7 55.755V51.7025H112.755ZM108.7 66.745C110.846 66.96 112.541 68.6562 112.755 70.8025H108.7V66.745ZM141.246 70.8025C141.46 68.6562 143.155 66.96 145.3 66.745V70.8025H141.246ZM127 53.3C122.616 53.3 119.05 56.8662 119.05 61.25C119.05 65.6337 122.616 69.2 127 69.2C131.384 69.2 134.95 65.6337 134.95 61.25C134.95 56.8662 131.384 53.3 127 53.3ZM132.649 57.05H130.579C130.261 56.07 129.839 55.235 129.332 54.605C130.669 55.075 131.817 55.935 132.649 57.05ZM119.972 61.7H122.811C122.84 62.7175 122.964 63.6775 123.169 64.55H120.774C120.316 63.69 120.037 62.7237 119.972 61.7ZM127.45 57.05V54.2762C128.327 54.545 129.105 55.5825 129.625 57.05H127.45ZM129.901 57.95C130.122 58.8137 130.256 59.7825 130.289 60.8H127.45V57.95H129.901ZM126.55 54.2762V57.05H124.375C124.895 55.5825 125.672 54.5462 126.55 54.2762ZM126.55 57.95V60.8H123.711C123.744 59.7825 123.877 58.8137 124.099 57.95H126.55ZM122.811 60.8H119.972C120.037 59.7762 120.316 58.81 120.774 57.95H123.169C122.964 58.8225 122.84 59.7825 122.811 60.8ZM123.711 61.7H126.55V64.55H124.099C123.877 63.6862 123.742 62.7175 123.711 61.7ZM126.55 65.45V68.2237C125.672 67.955 124.895 66.9187 124.374 65.45H126.55ZM127.45 68.2237V65.45H129.625C129.104 66.9175 128.327 67.9537 127.45 68.2237ZM127.45 64.55V61.7H130.289C130.256 62.7175 130.122 63.6862 129.901 64.55H127.45ZM131.189 61.7H134.026C133.961 62.7237 133.682 63.69 133.225 64.55H130.83C131.036 63.6775 131.16 62.7175 131.189 61.7ZM131.189 60.8C131.16 59.7825 131.036 58.8225 130.831 57.95H133.226C133.684 58.81 133.962 59.7762 134.027 60.8H131.189ZM124.667 54.605C124.161 55.235 123.737 56.07 123.421 57.05H121.351C122.182 55.935 123.331 55.075 124.667 54.605ZM121.351 65.45H123.421C123.737 66.43 124.161 67.265 124.667 67.895C123.331 67.425 122.182 66.565 121.351 65.45ZM129.332 67.895C129.839 67.265 130.262 66.43 130.579 65.45H132.649C131.817 66.565 130.669 67.425 129.332 67.895ZM113.875 58.925C112.594 58.925 111.55 59.9687 111.55 61.25C111.55 62.5312 112.592 63.575 113.875 63.575C115.157 63.575 116.2 62.5312 116.2 61.25C116.2 59.9687 115.156 58.925 113.875 58.925ZM113.875 62.675C113.09 62.675 112.45 62.035 112.45 61.25C112.45 60.465 113.09 59.825 113.875 59.825C114.66 59.825 115.3 60.465 115.3 61.25C115.3 62.035 114.66 62.675 113.875 62.675ZM140.125 58.925C138.844 58.925 137.8 59.9675 137.8 61.25C137.8 62.5325 138.844 63.575 140.125 63.575C141.406 63.575 142.45 62.5325 142.45 61.25C142.45 59.9675 141.406 58.925 140.125 58.925ZM140.125 62.675C139.339 62.675 138.7 62.035 138.7 61.25C138.7 60.465 139.339 59.825 140.125 59.825C140.911 59.825 141.55 60.465 141.55 61.25C141.55 62.035 140.911 62.675 140.125 62.675ZM140.551 75.2012C141.415 76.0662 141.414 77.4737 140.551 78.3387L132.969 85.965C132.506 86.4262 131.897 86.7237 131.251 86.8062L122.21 87.9275L121.069 89.0687L120.432 88.4312L121.682 87.1812C121.754 87.11 121.845 87.065 121.945 87.0525L131.14 85.9112C131.587 85.855 132.011 85.6475 132.332 85.3275L139.914 77.7012C140.427 77.1875 140.427 76.3512 139.914 75.8362C139.447 75.3725 138.704 75.2862 138.022 75.8625L130.165 82.2812L130.137 82.2475C129.625 82.68 128.971 82.95 128.25 82.95H122V82.05H128.25C129.38 82.05 130.3 81.1312 130.3 80C130.3 79.5587 129.941 79.2 129.5 79.2H119.5C116.301 79.2 113.7 81.8012 113.7 85C113.7 85.12 113.652 85.235 113.569 85.3187L109.819 89.0687L109.182 88.4312L112.802 84.8112C112.902 81.2037 115.869 78.3 119.5 78.3H129.5C130.437 78.3 131.2 79.0625 131.2 80C131.2 80.1037 131.18 80.2012 131.17 80.3012L137.447 75.1725C137.781 74.89 138.322 74.55 138.982 74.55C139.574 74.55 140.13 74.7812 140.551 75.2012Z"/>
</mask>
<path d="M145.75 50.8025H108.25C108.001 50.8025 107.8 51.0037 107.8 51.2525V71.2525C107.8 71.5012 108.001 71.7025 108.25 71.7025H145.75C145.999 71.7025 146.2 71.5012 146.2 71.2525V51.2525C146.2 51.0037 145.999 50.8025 145.75 50.8025ZM145.3 55.755C143.156 55.54 141.462 53.8462 141.246 51.7025H145.3V55.755ZM145.3 56.6537V65.845C142.659 66.0662 140.565 68.16 140.345 70.8025H113.655C113.436 68.16 111.342 66.0662 108.7 65.845V56.6537C111.34 56.4337 113.432 54.3412 113.654 51.7012H140.345C140.567 54.3425 142.66 56.4337 145.3 56.6537ZM112.755 51.7025C112.539 53.8462 110.845 55.54 108.7 55.755V51.7025H112.755ZM108.7 66.745C110.846 66.96 112.541 68.6562 112.755 70.8025H108.7V66.745ZM141.246 70.8025C141.46 68.6562 143.155 66.96 145.3 66.745V70.8025H141.246ZM127 53.3C122.616 53.3 119.05 56.8662 119.05 61.25C119.05 65.6337 122.616 69.2 127 69.2C131.384 69.2 134.95 65.6337 134.95 61.25C134.95 56.8662 131.384 53.3 127 53.3ZM132.649 57.05H130.579C130.261 56.07 129.839 55.235 129.332 54.605C130.669 55.075 131.817 55.935 132.649 57.05ZM119.972 61.7H122.811C122.84 62.7175 122.964 63.6775 123.169 64.55H120.774C120.316 63.69 120.037 62.7237 119.972 61.7ZM127.45 57.05V54.2762C128.327 54.545 129.105 55.5825 129.625 57.05H127.45ZM129.901 57.95C130.122 58.8137 130.256 59.7825 130.289 60.8H127.45V57.95H129.901ZM126.55 54.2762V57.05H124.375C124.895 55.5825 125.672 54.5462 126.55 54.2762ZM126.55 57.95V60.8H123.711C123.744 59.7825 123.877 58.8137 124.099 57.95H126.55ZM122.811 60.8H119.972C120.037 59.7762 120.316 58.81 120.774 57.95H123.169C122.964 58.8225 122.84 59.7825 122.811 60.8ZM123.711 61.7H126.55V64.55H124.099C123.877 63.6862 123.742 62.7175 123.711 61.7ZM126.55 65.45V68.2237C125.672 67.955 124.895 66.9187 124.374 65.45H126.55ZM127.45 68.2237V65.45H129.625C129.104 66.9175 128.327 67.9537 127.45 68.2237ZM127.45 64.55V61.7H130.289C130.256 62.7175 130.122 63.6862 129.901 64.55H127.45ZM131.189 61.7H134.026C133.961 62.7237 133.682 63.69 133.225 64.55H130.83C131.036 63.6775 131.16 62.7175 131.189 61.7ZM131.189 60.8C131.16 59.7825 131.036 58.8225 130.831 57.95H133.226C133.684 58.81 133.962 59.7762 134.027 60.8H131.189ZM124.667 54.605C124.161 55.235 123.737 56.07 123.421 57.05H121.351C122.182 55.935 123.331 55.075 124.667 54.605ZM121.351 65.45H123.421C123.737 66.43 124.161 67.265 124.667 67.895C123.331 67.425 122.182 66.565 121.351 65.45ZM129.332 67.895C129.839 67.265 130.262 66.43 130.579 65.45H132.649C131.817 66.565 130.669 67.425 129.332 67.895ZM113.875 58.925C112.594 58.925 111.55 59.9687 111.55 61.25C111.55 62.5312 112.592 63.575 113.875 63.575C115.157 63.575 116.2 62.5312 116.2 61.25C116.2 59.9687 115.156 58.925 113.875 58.925ZM113.875 62.675C113.09 62.675 112.45 62.035 112.45 61.25C112.45 60.465 113.09 59.825 113.875 59.825C114.66 59.825 115.3 60.465 115.3 61.25C115.3 62.035 114.66 62.675 113.875 62.675ZM140.125 58.925C138.844 58.925 137.8 59.9675 137.8 61.25C137.8 62.5325 138.844 63.575 140.125 63.575C141.406 63.575 142.45 62.5325 142.45 61.25C142.45 59.9675 141.406 58.925 140.125 58.925ZM140.125 62.675C139.339 62.675 138.7 62.035 138.7 61.25C138.7 60.465 139.339 59.825 140.125 59.825C140.911 59.825 141.55 60.465 141.55 61.25C141.55 62.035 140.911 62.675 140.125 62.675ZM140.551 75.2012C141.415 76.0662 141.414 77.4737 140.551 78.3387L132.969 85.965C132.506 86.4262 131.897 86.7237 131.251 86.8062L122.21 87.9275L121.069 89.0687L120.432 88.4312L121.682 87.1812C121.754 87.11 121.845 87.065 121.945 87.0525L131.14 85.9112C131.587 85.855 132.011 85.6475 132.332 85.3275L139.914 77.7012C140.427 77.1875 140.427 76.3512 139.914 75.8362C139.447 75.3725 138.704 75.2862 138.022 75.8625L130.165 82.2812L130.137 82.2475C129.625 82.68 128.971 82.95 128.25 82.95H122V82.05H128.25C129.38 82.05 130.3 81.1312 130.3 80C130.3 79.5587 129.941 79.2 129.5 79.2H119.5C116.301 79.2 113.7 81.8012 113.7 85C113.7 85.12 113.652 85.235 113.569 85.3187L109.819 89.0687L109.182 88.4312L112.802 84.8112C112.902 81.2037 115.869 78.3 119.5 78.3H129.5C130.437 78.3 131.2 79.0625 131.2 80C131.2 80.1037 131.18 80.2012 131.17 80.3012L137.447 75.1725C137.781 74.89 138.322 74.55 138.982 74.55C139.574 74.55 140.13 74.7812 140.551 75.2012Z" fill="white"/>
<path d="M145.75 50.8025H108.25C108.001 50.8025 107.8 51.0037 107.8 51.2525V71.2525C107.8 71.5012 108.001 71.7025 108.25 71.7025H145.75C145.999 71.7025 146.2 71.5012 146.2 71.2525V51.2525C146.2 51.0037 145.999 50.8025 145.75 50.8025ZM145.3 55.755C143.156 55.54 141.462 53.8462 141.246 51.7025H145.3V55.755ZM145.3 56.6537V65.845C142.659 66.0662 140.565 68.16 140.345 70.8025H113.655C113.436 68.16 111.342 66.0662 108.7 65.845V56.6537C111.34 56.4337 113.432 54.3412 113.654 51.7012H140.345C140.567 54.3425 142.66 56.4337 145.3 56.6537ZM112.755 51.7025C112.539 53.8462 110.845 55.54 108.7 55.755V51.7025H112.755ZM108.7 66.745C110.846 66.96 112.541 68.6562 112.755 70.8025H108.7V66.745ZM141.246 70.8025C141.46 68.6562 143.155 66.96 145.3 66.745V70.8025H141.246ZM127 53.3C122.616 53.3 119.05 56.8662 119.05 61.25C119.05 65.6337 122.616 69.2 127 69.2C131.384 69.2 134.95 65.6337 134.95 61.25C134.95 56.8662 131.384 53.3 127 53.3ZM132.649 57.05H130.579C130.261 56.07 129.839 55.235 129.332 54.605C130.669 55.075 131.817 55.935 132.649 57.05ZM119.972 61.7H122.811C122.84 62.7175 122.964 63.6775 123.169 64.55H120.774C120.316 63.69 120.037 62.7237 119.972 61.7ZM127.45 57.05V54.2762C128.327 54.545 129.105 55.5825 129.625 57.05H127.45ZM129.901 57.95C130.122 58.8137 130.256 59.7825 130.289 60.8H127.45V57.95H129.901ZM126.55 54.2762V57.05H124.375C124.895 55.5825 125.672 54.5462 126.55 54.2762ZM126.55 57.95V60.8H123.711C123.744 59.7825 123.877 58.8137 124.099 57.95H126.55ZM122.811 60.8H119.972C120.037 59.7762 120.316 58.81 120.774 57.95H123.169C122.964 58.8225 122.84 59.7825 122.811 60.8ZM123.711 61.7H126.55V64.55H124.099C123.877 63.6862 123.742 62.7175 123.711 61.7ZM126.55 65.45V68.2237C125.672 67.955 124.895 66.9187 124.374 65.45H126.55ZM127.45 68.2237V65.45H129.625C129.104 66.9175 128.327 67.9537 127.45 68.2237ZM127.45 64.55V61.7H130.289C130.256 62.7175 130.122 63.6862 129.901 64.55H127.45ZM131.189 61.7H134.026C133.961 62.7237 133.682 63.69 133.225 64.55H130.83C131.036 63.6775 131.16 62.7175 131.189 61.7ZM131.189 60.8C131.16 59.7825 131.036 58.8225 130.831 57.95H133.226C133.684 58.81 133.962 59.7762 134.027 60.8H131.189ZM124.667 54.605C124.161 55.235 123.737 56.07 123.421 57.05H121.351C122.182 55.935 123.331 55.075 124.667 54.605ZM121.351 65.45H123.421C123.737 66.43 124.161 67.265 124.667 67.895C123.331 67.425 122.182 66.565 121.351 65.45ZM129.332 67.895C129.839 67.265 130.262 66.43 130.579 65.45H132.649C131.817 66.565 130.669 67.425 129.332 67.895ZM113.875 58.925C112.594 58.925 111.55 59.9687 111.55 61.25C111.55 62.5312 112.592 63.575 113.875 63.575C115.157 63.575 116.2 62.5312 116.2 61.25C116.2 59.9687 115.156 58.925 113.875 58.925ZM113.875 62.675C113.09 62.675 112.45 62.035 112.45 61.25C112.45 60.465 113.09 59.825 113.875 59.825C114.66 59.825 115.3 60.465 115.3 61.25C115.3 62.035 114.66 62.675 113.875 62.675ZM140.125 58.925C138.844 58.925 137.8 59.9675 137.8 61.25C137.8 62.5325 138.844 63.575 140.125 63.575C141.406 63.575 142.45 62.5325 142.45 61.25C142.45 59.9675 141.406 58.925 140.125 58.925ZM140.125 62.675C139.339 62.675 138.7 62.035 138.7 61.25C138.7 60.465 139.339 59.825 140.125 59.825C140.911 59.825 141.55 60.465 141.55 61.25C141.55 62.035 140.911 62.675 140.125 62.675ZM140.551 75.2012C141.415 76.0662 141.414 77.4737 140.551 78.3387L132.969 85.965C132.506 86.4262 131.897 86.7237 131.251 86.8062L122.21 87.9275L121.069 89.0687L120.432 88.4312L121.682 87.1812C121.754 87.11 121.845 87.065 121.945 87.0525L131.14 85.9112C131.587 85.855 132.011 85.6475 132.332 85.3275L139.914 77.7012C140.427 77.1875 140.427 76.3512 139.914 75.8362C139.447 75.3725 138.704 75.2862 138.022 75.8625L130.165 82.2812L130.137 82.2475C129.625 82.68 128.971 82.95 128.25 82.95H122V82.05H128.25C129.38 82.05 130.3 81.1312 130.3 80C130.3 79.5587 129.941 79.2 129.5 79.2H119.5C116.301 79.2 113.7 81.8012 113.7 85C113.7 85.12 113.652 85.235 113.569 85.3187L109.819 89.0687L109.182 88.4312L112.802 84.8112C112.902 81.2037 115.869 78.3 119.5 78.3H129.5C130.437 78.3 131.2 79.0625 131.2 80C131.2 80.1037 131.18 80.2012 131.17 80.3012L137.447 75.1725C137.781 74.89 138.322 74.55 138.982 74.55C139.574 74.55 140.13 74.7812 140.551 75.2012Z" stroke="white" stroke-width="0.5" mask="url(#path-4-outside-1_1496_578)"/>
</g>
<rect x="246" y="231" width="164" height="60" rx="2" fill="#005174"/>
<rect x="40" y="422" width="160" height="60" rx="2" fill="#005174"/>
<rect x="248" y="422" width="160" height="60" rx="2" fill="#005174"/>
<g clip-path="url(#clip1_1496_578)">
<mask id="path-8-outside-2_1496_578" maskUnits="userSpaceOnUse" x="307.8" y="431.8" width="40" height="40" fill="black">
<rect fill="white" x="307.8" y="431.8" width="40" height="40"/>
<path d="M346.75 471.2H309.25C309.001 471.2 308.8 470.999 308.8 470.75V433.25C308.8 433.001 309.001 432.8 309.25 432.8H331.75C331.999 432.8 332.2 433.001 332.2 433.25V436.55H339.25C339.499 436.55 339.7 436.751 339.7 437V441.55H346.75C346.999 441.55 347.2 441.751 347.2 442V470.75C347.2 470.999 346.999 471.2 346.75 471.2ZM332.2 470.3H346.3V442.45H332.2V470.3ZM323.45 470.3H331.3V433.7H309.7V470.3H317.55V460.75C317.55 460.501 317.751 460.3 318 460.3H323C323.249 460.3 323.45 460.501 323.45 460.75V470.3ZM318.45 470.3H322.55V461.2H318.45V470.3ZM332.2 441.55H338.799V437.45H332.2V441.55ZM342.2 463.25H341.3V460.75H342.201L342.2 463.25ZM337.2 463.25H336.3V460.75H337.201L337.2 463.25ZM328.45 463.25H327.55V460.75H328.45V463.25ZM313.45 463.25H312.55V460.75H313.45V463.25ZM342.2 455.75H341.3V453.25H342.201L342.2 455.75ZM337.2 455.75H336.3V453.25H337.201L337.2 455.75ZM328.45 455.75H327.55V453.25H328.45V455.75ZM323.45 455.75H322.55V453.25H323.45V455.75ZM318.45 455.75H317.55V453.25H318.45V455.75ZM313.45 455.75H312.55V453.25H313.45V455.75ZM342.2 448.25H341.3V445.75H342.201L342.2 448.25ZM337.2 448.25H336.3V445.75H337.201L337.2 448.25ZM328.45 448.25H327.55V445.75H328.45V448.25ZM323.45 448.25H322.55V445.75H323.45V448.25ZM318.45 448.25H317.55V445.75H318.45V448.25ZM313.45 448.25H312.55V445.75H313.45V448.25ZM328.45 440.75H327.55V438.25H328.45V440.75ZM323.45 440.75H322.55V438.25H323.45V440.75ZM318.45 440.75H317.55V438.25H318.45V440.75ZM313.45 440.75H312.55V438.25H313.45V440.75Z"/>
</mask>
<path d="M346.75 471.2H309.25C309.001 471.2 308.8 470.999 308.8 470.75V433.25C308.8 433.001 309.001 432.8 309.25 432.8H331.75C331.999 432.8 332.2 433.001 332.2 433.25V436.55H339.25C339.499 436.55 339.7 436.751 339.7 437V441.55H346.75C346.999 441.55 347.2 441.751 347.2 442V470.75C347.2 470.999 346.999 471.2 346.75 471.2ZM332.2 470.3H346.3V442.45H332.2V470.3ZM323.45 470.3H331.3V433.7H309.7V470.3H317.55V460.75C317.55 460.501 317.751 460.3 318 460.3H323C323.249 460.3 323.45 460.501 323.45 460.75V470.3ZM318.45 470.3H322.55V461.2H318.45V470.3ZM332.2 441.55H338.799V437.45H332.2V441.55ZM342.2 463.25H341.3V460.75H342.201L342.2 463.25ZM337.2 463.25H336.3V460.75H337.201L337.2 463.25ZM328.45 463.25H327.55V460.75H328.45V463.25ZM313.45 463.25H312.55V460.75H313.45V463.25ZM342.2 455.75H341.3V453.25H342.201L342.2 455.75ZM337.2 455.75H336.3V453.25H337.201L337.2 455.75ZM328.45 455.75H327.55V453.25H328.45V455.75ZM323.45 455.75H322.55V453.25H323.45V455.75ZM318.45 455.75H317.55V453.25H318.45V455.75ZM313.45 455.75H312.55V453.25H313.45V455.75ZM342.2 448.25H341.3V445.75H342.201L342.2 448.25ZM337.2 448.25H336.3V445.75H337.201L337.2 448.25ZM328.45 448.25H327.55V445.75H328.45V448.25ZM323.45 448.25H322.55V445.75H323.45V448.25ZM318.45 448.25H317.55V445.75H318.45V448.25ZM313.45 448.25H312.55V445.75H313.45V448.25ZM328.45 440.75H327.55V438.25H328.45V440.75ZM323.45 440.75H322.55V438.25H323.45V440.75ZM318.45 440.75H317.55V438.25H318.45V440.75ZM313.45 440.75H312.55V438.25H313.45V440.75Z" fill="white"/>
<path d="M346.75 471.2H309.25C309.001 471.2 308.8 470.999 308.8 470.75V433.25C308.8 433.001 309.001 432.8 309.25 432.8H331.75C331.999 432.8 332.2 433.001 332.2 433.25V436.55H339.25C339.499 436.55 339.7 436.751 339.7 437V441.55H346.75C346.999 441.55 347.2 441.751 347.2 442V470.75C347.2 470.999 346.999 471.2 346.75 471.2ZM332.2 470.3H346.3V442.45H332.2V470.3ZM323.45 470.3H331.3V433.7H309.7V470.3H317.55V460.75C317.55 460.501 317.751 460.3 318 460.3H323C323.249 460.3 323.45 460.501 323.45 460.75V470.3ZM318.45 470.3H322.55V461.2H318.45V470.3ZM332.2 441.55H338.799V437.45H332.2V441.55ZM342.2 463.25H341.3V460.75H342.201L342.2 463.25ZM337.2 463.25H336.3V460.75H337.201L337.2 463.25ZM328.45 463.25H327.55V460.75H328.45V463.25ZM313.45 463.25H312.55V460.75H313.45V463.25ZM342.2 455.75H341.3V453.25H342.201L342.2 455.75ZM337.2 455.75H336.3V453.25H337.201L337.2 455.75ZM328.45 455.75H327.55V453.25H328.45V455.75ZM323.45 455.75H322.55V453.25H323.45V455.75ZM318.45 455.75H317.55V453.25H318.45V455.75ZM313.45 455.75H312.55V453.25H313.45V455.75ZM342.2 448.25H341.3V445.75H342.201L342.2 448.25ZM337.2 448.25H336.3V445.75H337.201L337.2 448.25ZM328.45 448.25H327.55V445.75H328.45V448.25ZM323.45 448.25H322.55V445.75H323.45V448.25ZM318.45 448.25H317.55V445.75H318.45V448.25ZM313.45 448.25H312.55V445.75H313.45V448.25ZM328.45 440.75H327.55V438.25H328.45V440.75ZM323.45 440.75H322.55V438.25H323.45V440.75ZM318.45 440.75H317.55V438.25H318.45V440.75ZM313.45 440.75H312.55V438.25H313.45V440.75Z" stroke="white" mask="url(#path-8-outside-2_1496_578)"/>
</g>
<rect x="262" y="40" width="172" height="60" rx="2" fill="#005174"/>
<rect x="482" y="40" width="173.333" height="60" rx="2" fill="#005174"/>
<g clip-path="url(#clip2_1496_578)">
<mask id="path-11-outside-3_1496_578" maskUnits="userSpaceOnUse" x="549.25" y="51.05" width="39" height="39" fill="black">
<rect fill="white" x="549.25" y="51.05" width="39" height="39"/>
<path d="M587.75 89.2H550.25V88.3H551.05V75C551.05 74.7512 551.251 74.55 551.5 74.55H558.55V73.75C558.55 73.5012 558.751 73.3 559 73.3H579C579.249 73.3 579.45 73.5012 579.45 73.75V74.55H586.5C586.749 74.55 586.95 74.7512 586.95 75V88.3H587.75V89.2ZM579.45 88.3H586.049V75.45H579.45V88.3ZM559.45 88.3H578.55V74.2H559.45V88.3ZM551.95 88.3H558.55V75.45H551.95V88.3ZM583.2 87.5H582.3V83.75H583.201L583.2 87.5ZM574.45 87.5H573.55V83.75H574.451L574.45 87.5ZM569.45 87.5H568.55V83.75H569.45V87.5ZM564.45 87.5H563.55V83.75H564.45V87.5ZM555.7 87.5H554.8V83.75H555.7V87.5ZM583.2 81.25H582.3V77.5H583.201L583.2 81.25ZM574.45 81.25H573.55V77.5H574.451L574.45 81.25ZM569.45 81.25H568.55V77.5H569.45V81.25ZM564.45 81.25H563.55V77.5H564.45V81.25ZM555.7 81.25H554.8V77.5H555.7V81.25ZM576.95 71.25H576.05V66.7H561.95V71.25H561.05V66.25C561.05 62.0175 564.375 58.5462 568.55 58.3125V52.5C568.55 52.2512 568.751 52.05 569 52.05H572.75C572.999 52.05 573.2 52.2512 573.2 52.5V55C573.2 55.2487 572.999 55.45 572.75 55.45H569.45V58.3125C573.625 58.5475 576.95 62.0175 576.95 66.25V71.25ZM561.965 65.8H576.036C575.802 62.1212 572.736 59.2 569 59.2C565.264 59.2 562.197 62.1212 561.965 65.8ZM569.45 54.55H572.3V52.95H569.45V54.55ZM573.2 71.25H572.3V68.75H573.201L573.2 71.25ZM569.45 71.25H568.55V68.75H569.45V71.25ZM565.7 71.25H564.8V68.75H565.7V71.25Z"/>
</mask>
<path d="M587.75 89.2H550.25V88.3H551.05V75C551.05 74.7512 551.251 74.55 551.5 74.55H558.55V73.75C558.55 73.5012 558.751 73.3 559 73.3H579C579.249 73.3 579.45 73.5012 579.45 73.75V74.55H586.5C586.749 74.55 586.95 74.7512 586.95 75V88.3H587.75V89.2ZM579.45 88.3H586.049V75.45H579.45V88.3ZM559.45 88.3H578.55V74.2H559.45V88.3ZM551.95 88.3H558.55V75.45H551.95V88.3ZM583.2 87.5H582.3V83.75H583.201L583.2 87.5ZM574.45 87.5H573.55V83.75H574.451L574.45 87.5ZM569.45 87.5H568.55V83.75H569.45V87.5ZM564.45 87.5H563.55V83.75H564.45V87.5ZM555.7 87.5H554.8V83.75H555.7V87.5ZM583.2 81.25H582.3V77.5H583.201L583.2 81.25ZM574.45 81.25H573.55V77.5H574.451L574.45 81.25ZM569.45 81.25H568.55V77.5H569.45V81.25ZM564.45 81.25H563.55V77.5H564.45V81.25ZM555.7 81.25H554.8V77.5H555.7V81.25ZM576.95 71.25H576.05V66.7H561.95V71.25H561.05V66.25C561.05 62.0175 564.375 58.5462 568.55 58.3125V52.5C568.55 52.2512 568.751 52.05 569 52.05H572.75C572.999 52.05 573.2 52.2512 573.2 52.5V55C573.2 55.2487 572.999 55.45 572.75 55.45H569.45V58.3125C573.625 58.5475 576.95 62.0175 576.95 66.25V71.25ZM561.965 65.8H576.036C575.802 62.1212 572.736 59.2 569 59.2C565.264 59.2 562.197 62.1212 561.965 65.8ZM569.45 54.55H572.3V52.95H569.45V54.55ZM573.2 71.25H572.3V68.75H573.201L573.2 71.25ZM569.45 71.25H568.55V68.75H569.45V71.25ZM565.7 71.25H564.8V68.75H565.7V71.25Z" fill="white"/>
<path d="M587.75 89.2H550.25V88.3H551.05V75C551.05 74.7512 551.251 74.55 551.5 74.55H558.55V73.75C558.55 73.5012 558.751 73.3 559 73.3H579C579.249 73.3 579.45 73.5012 579.45 73.75V74.55H586.5C586.749 74.55 586.95 74.7512 586.95 75V88.3H587.75V89.2ZM579.45 88.3H586.049V75.45H579.45V88.3ZM559.45 88.3H578.55V74.2H559.45V88.3ZM551.95 88.3H558.55V75.45H551.95V88.3ZM583.2 87.5H582.3V83.75H583.201L583.2 87.5ZM574.45 87.5H573.55V83.75H574.451L574.45 87.5ZM569.45 87.5H568.55V83.75H569.45V87.5ZM564.45 87.5H563.55V83.75H564.45V87.5ZM555.7 87.5H554.8V83.75H555.7V87.5ZM583.2 81.25H582.3V77.5H583.201L583.2 81.25ZM574.45 81.25H573.55V77.5H574.451L574.45 81.25ZM569.45 81.25H568.55V77.5H569.45V81.25ZM564.45 81.25H563.55V77.5H564.45V81.25ZM555.7 81.25H554.8V77.5H555.7V81.25ZM576.95 71.25H576.05V66.7H561.95V71.25H561.05V66.25C561.05 62.0175 564.375 58.5462 568.55 58.3125V52.5C568.55 52.2512 568.751 52.05 569 52.05H572.75C572.999 52.05 573.2 52.2512 573.2 52.5V55C573.2 55.2487 572.999 55.45 572.75 55.45H569.45V58.3125C573.625 58.5475 576.95 62.0175 576.95 66.25V71.25ZM561.965 65.8H576.036C575.802 62.1212 572.736 59.2 569 59.2C565.264 59.2 562.197 62.1212 561.965 65.8ZM569.45 54.55H572.3V52.95H569.45V54.55ZM573.2 71.25H572.3V68.75H573.201L573.2 71.25ZM569.45 71.25H568.55V68.75H569.45V71.25ZM565.7 71.25H564.8V68.75H565.7V71.25Z" stroke="white" stroke-width="0.5" mask="url(#path-11-outside-3_1496_578)"/>
</g>
<path d="M304.61 85.25H304.36H303.64H303.39V85V77.5C303.39 74.0639 301.055 71.1125 297.71 70.3192L297.709 70.3191C297.457 70.2585 297.268 70.0443 297.244 69.7835C297.219 69.5216 297.365 69.275 297.603 69.1687L297.603 69.1686C299.03 68.5336 299.951 67.117 299.951 65.561C299.951 63.383 298.179 61.61 296.001 61.61C293.823 61.61 292.05 63.3821 292.05 65.561C292.05 67.117 292.971 68.5346 294.397 69.1686L294.398 69.1687C294.635 69.275 294.782 69.5216 294.757 69.7835C294.732 70.043 294.545 70.2597 294.29 70.3194C290.945 71.1128 288.611 74.0641 288.611 77.5V85V85.25H288.361H287.64H287.39V85V77.5C287.39 73.958 289.521 70.8549 292.712 69.548C291.539 68.5801 290.829 67.1249 290.829 65.56C290.829 63.5314 292.003 61.7718 293.707 60.926C293.868 60.4914 293.95 60.0333 293.95 59.561C293.95 57.383 292.178 55.61 290 55.61C287.822 55.61 286.049 57.3821 286.049 59.561C286.049 61.1179 286.97 62.5345 288.396 63.1685L304.61 85.25ZM304.61 85.25L304.61 85L304.611 77.501V77.501C304.611 73.9589 302.479 70.8558 299.287 69.5489C300.46 68.5811 301.171 67.1259 301.171 65.561C301.171 63.5323 299.996 61.7738 298.293 60.9271C298.131 60.4915 298.05 60.0333 298.05 59.561C298.05 57.382 299.822 55.61 302 55.61C304.178 55.61 305.95 57.383 305.95 59.561C305.95 61.117 305.029 62.5337 303.603 63.1686L303.603 63.1687C303.365 63.275 303.219 63.5216 303.244 63.7835C303.268 64.0443 303.457 64.2585 303.709 64.3191L303.71 64.3192C307.055 65.1125 309.39 68.0639 309.39 71.5V79V79.25H309.64H310.361H310.611V79V71.501C310.611 67.9589 308.479 64.8558 305.287 63.5489C306.46 62.5811 307.171 61.1259 307.171 59.561C307.171 56.7099 304.851 54.391 302 54.391C299.149 54.391 296.829 56.7099 296.829 59.561C296.829 59.8691 296.856 60.1733 296.909 60.4719C296.314 60.3684 295.685 60.3684 295.09 60.4719C295.143 60.173 295.17 59.8688 295.17 59.561C295.17 56.7099 292.851 54.391 290 54.391C287.149 54.391 284.83 56.7099 284.83 59.561C284.83 61.125 285.539 62.5801 286.712 63.548C283.521 64.8549 281.39 67.958 281.39 71.5V79V79.25H281.64H282.36H282.61V79V71.5C282.61 68.0641 284.944 65.1128 288.289 64.3194C288.544 64.2597 288.732 64.0426 288.756 63.7828L288.756 63.7826C288.779 63.5239 288.638 63.2758 288.396 63.1686L288.295 63.397C288.437 63.46 288.521 63.606 288.507 63.76M304.61 85.25L288.507 63.76M288.507 63.76C288.493 63.913 288.382 64.041 288.232 64.076L288.507 63.76ZM297.493 69.76C297.478 69.606 297.564 69.46 297.705 69.397C299.222 68.722 300.201 67.216 300.201 65.561C300.201 63.245 298.317 61.36 296.001 61.36C293.685 61.36 291.8 63.244 291.8 65.561L297.493 69.76Z" fill="white" stroke="white" stroke-width="0.5"/>
<path d="M408.61 85.25H408.36H407.64H407.39V85V77.5C407.39 74.0639 405.055 71.1125 401.71 70.3192L401.709 70.3191C401.457 70.2585 401.268 70.0443 401.244 69.7835C401.219 69.5216 401.365 69.275 401.603 69.1687L401.603 69.1686C403.03 68.5336 403.951 67.117 403.951 65.561C403.951 63.383 402.179 61.61 400.001 61.61C397.823 61.61 396.05 63.3821 396.05 65.561C396.05 67.117 396.971 68.5346 398.397 69.1686L398.398 69.1687C398.635 69.275 398.782 69.5216 398.757 69.7835C398.732 70.043 398.545 70.2597 398.29 70.3194C394.945 71.1128 392.611 74.0641 392.611 77.5V85V85.25H392.361H391.64H391.39V85V77.5C391.39 73.958 393.521 70.8549 396.712 69.548C395.539 68.5801 394.829 67.1249 394.829 65.56C394.829 63.5314 396.003 61.7718 397.707 60.926C397.868 60.4914 397.95 60.0333 397.95 59.561C397.95 57.383 396.178 55.61 394 55.61C391.822 55.61 390.049 57.3821 390.049 59.561C390.049 61.1179 390.97 62.5345 392.396 63.1685L408.61 85.25ZM408.61 85.25L408.61 85L408.611 77.501V77.501C408.611 73.9589 406.479 70.8558 403.287 69.5489C404.46 68.5811 405.171 67.1259 405.171 65.561C405.171 63.5323 403.996 61.7738 402.293 60.9271C402.131 60.4915 402.05 60.0333 402.05 59.561C402.05 57.382 403.822 55.61 406 55.61C408.178 55.61 409.95 57.383 409.95 59.561C409.95 61.117 409.029 62.5337 407.603 63.1686L407.603 63.1687C407.365 63.275 407.219 63.5216 407.244 63.7835C407.268 64.0443 407.457 64.2585 407.709 64.3191L407.71 64.3192C411.055 65.1125 413.39 68.0639 413.39 71.5V79V79.25H413.64H414.361H414.611V79V71.501C414.611 67.9589 412.479 64.8558 409.287 63.5489C410.46 62.5811 411.171 61.1259 411.171 59.561C411.171 56.7099 408.851 54.391 406 54.391C403.149 54.391 400.829 56.7099 400.829 59.561C400.829 59.8691 400.856 60.1733 400.909 60.4719C400.314 60.3684 399.685 60.3684 399.09 60.4719C399.143 60.173 399.17 59.8688 399.17 59.561C399.17 56.7099 396.851 54.391 394 54.391C391.149 54.391 388.83 56.7099 388.83 59.561C388.83 61.125 389.539 62.5801 390.712 63.548C387.521 64.8549 385.39 67.958 385.39 71.5V79V79.25H385.64H386.36H386.61V79V71.5C386.61 68.0641 388.944 65.1128 392.289 64.3194C392.544 64.2597 392.732 64.0426 392.756 63.7828L392.756 63.7826C392.779 63.5239 392.638 63.2758 392.396 63.1686L392.295 63.397C392.437 63.46 392.521 63.606 392.507 63.76M408.61 85.25L392.507 63.76M392.507 63.76C392.493 63.913 392.382 64.041 392.232 64.076L392.507 63.76ZM401.493 69.76C401.478 69.606 401.564 69.46 401.705 69.397C403.222 68.722 404.201 67.216 404.201 65.561C404.201 63.245 402.317 61.36 400.001 61.36C397.685 61.36 395.8 63.244 395.8 65.561L401.493 69.76Z" fill="white" stroke="white" stroke-width="0.5"/>
<g clip-path="url(#clip3_1496_578)">
<mask id="path-14-outside-4_1496_578" maskUnits="userSpaceOnUse" x="307.8" y="240.8" width="40" height="40" fill="black">
<rect fill="white" x="307.8" y="240.8" width="40" height="40"/>
<path d="M331.3 258.95H334.701V254.3H331.3V258.95ZM332.2 255.2H333.799V258.05H332.2V255.2ZM336.3 258.95H339.701V250.55H336.3V258.95ZM337.2 251.45H338.799V258.05H337.2V251.45ZM344.7 246.8H341.3V258.95H344.701L344.7 246.8ZM343.8 258.05H342.2V247.7H343.799L343.8 258.05ZM346.75 260.55H328.45V251.45H334.25V250.55H328.45V242.755C330.745 243.031 332.936 245.141 334.521 248.684L335.341 248.316C334.262 245.905 332.894 244.115 331.379 243.021C334.124 243.531 336.71 244.652 338.982 246.36L339.522 245.641C336.18 243.129 332.195 241.8 328 241.8C327.987 241.8 327.975 241.802 327.962 241.802C327.956 241.802 327.95 241.8 327.944 241.8C327.924 241.8 327.905 241.805 327.885 241.806C317.351 241.869 308.8 250.451 308.8 261C308.8 261.249 309.001 261.45 309.25 261.45H327.55V279.25C325.231 279.002 323.016 276.882 321.417 273.306L320.596 273.672C321.666 276.069 323.024 277.851 324.525 278.95C320.591 278.187 316.974 276.161 314.279 273.109L313.604 273.705C317.249 277.832 322.496 280.2 328 280.2C338.587 280.2 347.2 271.586 347.2 261C347.2 260.751 346.999 260.55 346.75 260.55ZM336.914 261.45C336.874 264.781 336.397 267.886 335.599 270.55H328.45V261.45H336.914ZM328.45 271.45H335.316C333.782 275.95 331.29 278.96 328.45 279.252V271.45ZM327.55 250.55H320.627C322.171 246.02 324.687 242.999 327.55 242.74V250.55ZM324.477 243.057C322.511 244.514 320.845 247.155 319.712 250.55H312.992C315.66 246.732 319.745 243.986 324.477 243.057ZM312.417 251.45H319.432C318.637 254.144 318.17 257.242 318.13 260.55H309.705C309.786 257.217 310.779 254.115 312.417 251.45ZM319.03 260.55C319.07 257.219 319.546 254.114 320.345 251.45H327.55V260.55H319.03ZM331.45 278.955C333.424 277.502 335.096 274.855 336.231 271.45H343.006C340.326 275.287 336.212 278.041 331.45 278.955ZM343.582 270.55H336.511C337.306 267.856 337.774 264.757 337.814 261.45H346.295C346.214 264.782 345.221 267.885 343.582 270.55ZM325.95 271V263.5C325.95 263.251 325.749 263.05 325.5 263.05H310.5C310.251 263.05 310.05 263.251 310.05 263.5V271C310.05 271.249 310.251 271.45 310.5 271.45H325.5C325.749 271.45 325.95 271.249 325.95 271ZM322.596 270.55H313.404C313.207 269.285 312.214 268.291 310.949 268.095V266.405C312.214 266.209 313.207 265.215 313.404 263.95H322.595C322.791 265.215 323.785 266.209 325.05 266.405V268.095C323.786 268.291 322.791 269.285 322.596 270.55ZM325.05 265.496C324.281 265.322 323.676 264.719 323.504 263.95H325.05V265.496ZM312.496 263.95C312.322 264.719 311.717 265.322 310.95 265.496V263.95H312.496ZM310.95 269.004C311.719 269.177 312.324 269.781 312.496 270.55H310.95V269.004ZM323.504 270.55C323.677 269.781 324.282 269.177 325.05 269.004V270.55H323.504ZM318 265.55C317.062 265.55 316.3 266.312 316.3 267.25C316.3 268.187 317.062 268.95 318 268.95C318.937 268.95 319.7 268.187 319.7 267.25C319.7 266.312 318.937 265.55 318 265.55ZM318 268.05C317.559 268.05 317.2 267.691 317.2 267.25C317.2 266.809 317.559 266.45 318 266.45C318.441 266.45 318.8 266.809 318.8 267.25C318.8 267.691 318.441 268.05 318 268.05ZM313 266.8H314.25V267.701H313V266.8ZM321.75 266.8H323V267.701H321.75V266.8Z"/>
</mask>
<path d="M331.3 258.95H334.701V254.3H331.3V258.95ZM332.2 255.2H333.799V258.05H332.2V255.2ZM336.3 258.95H339.701V250.55H336.3V258.95ZM337.2 251.45H338.799V258.05H337.2V251.45ZM344.7 246.8H341.3V258.95H344.701L344.7 246.8ZM343.8 258.05H342.2V247.7H343.799L343.8 258.05ZM346.75 260.55H328.45V251.45H334.25V250.55H328.45V242.755C330.745 243.031 332.936 245.141 334.521 248.684L335.341 248.316C334.262 245.905 332.894 244.115 331.379 243.021C334.124 243.531 336.71 244.652 338.982 246.36L339.522 245.641C336.18 243.129 332.195 241.8 328 241.8C327.987 241.8 327.975 241.802 327.962 241.802C327.956 241.802 327.95 241.8 327.944 241.8C327.924 241.8 327.905 241.805 327.885 241.806C317.351 241.869 308.8 250.451 308.8 261C308.8 261.249 309.001 261.45 309.25 261.45H327.55V279.25C325.231 279.002 323.016 276.882 321.417 273.306L320.596 273.672C321.666 276.069 323.024 277.851 324.525 278.95C320.591 278.187 316.974 276.161 314.279 273.109L313.604 273.705C317.249 277.832 322.496 280.2 328 280.2C338.587 280.2 347.2 271.586 347.2 261C347.2 260.751 346.999 260.55 346.75 260.55ZM336.914 261.45C336.874 264.781 336.397 267.886 335.599 270.55H328.45V261.45H336.914ZM328.45 271.45H335.316C333.782 275.95 331.29 278.96 328.45 279.252V271.45ZM327.55 250.55H320.627C322.171 246.02 324.687 242.999 327.55 242.74V250.55ZM324.477 243.057C322.511 244.514 320.845 247.155 319.712 250.55H312.992C315.66 246.732 319.745 243.986 324.477 243.057ZM312.417 251.45H319.432C318.637 254.144 318.17 257.242 318.13 260.55H309.705C309.786 257.217 310.779 254.115 312.417 251.45ZM319.03 260.55C319.07 257.219 319.546 254.114 320.345 251.45H327.55V260.55H319.03ZM331.45 278.955C333.424 277.502 335.096 274.855 336.231 271.45H343.006C340.326 275.287 336.212 278.041 331.45 278.955ZM343.582 270.55H336.511C337.306 267.856 337.774 264.757 337.814 261.45H346.295C346.214 264.782 345.221 267.885 343.582 270.55ZM325.95 271V263.5C325.95 263.251 325.749 263.05 325.5 263.05H310.5C310.251 263.05 310.05 263.251 310.05 263.5V271C310.05 271.249 310.251 271.45 310.5 271.45H325.5C325.749 271.45 325.95 271.249 325.95 271ZM322.596 270.55H313.404C313.207 269.285 312.214 268.291 310.949 268.095V266.405C312.214 266.209 313.207 265.215 313.404 263.95H322.595C322.791 265.215 323.785 266.209 325.05 266.405V268.095C323.786 268.291 322.791 269.285 322.596 270.55ZM325.05 265.496C324.281 265.322 323.676 264.719 323.504 263.95H325.05V265.496ZM312.496 263.95C312.322 264.719 311.717 265.322 310.95 265.496V263.95H312.496ZM310.95 269.004C311.719 269.177 312.324 269.781 312.496 270.55H310.95V269.004ZM323.504 270.55C323.677 269.781 324.282 269.177 325.05 269.004V270.55H323.504ZM318 265.55C317.062 265.55 316.3 266.312 316.3 267.25C316.3 268.187 317.062 268.95 318 268.95C318.937 268.95 319.7 268.187 319.7 267.25C319.7 266.312 318.937 265.55 318 265.55ZM318 268.05C317.559 268.05 317.2 267.691 317.2 267.25C317.2 266.809 317.559 266.45 318 266.45C318.441 266.45 318.8 266.809 318.8 267.25C318.8 267.691 318.441 268.05 318 268.05ZM313 266.8H314.25V267.701H313V266.8ZM321.75 266.8H323V267.701H321.75V266.8Z" fill="white"/>
<path d="M331.3 258.95H334.701V254.3H331.3V258.95ZM332.2 255.2H333.799V258.05H332.2V255.2ZM336.3 258.95H339.701V250.55H336.3V258.95ZM337.2 251.45H338.799V258.05H337.2V251.45ZM344.7 246.8H341.3V258.95H344.701L344.7 246.8ZM343.8 258.05H342.2V247.7H343.799L343.8 258.05ZM346.75 260.55H328.45V251.45H334.25V250.55H328.45V242.755C330.745 243.031 332.936 245.141 334.521 248.684L335.341 248.316C334.262 245.905 332.894 244.115 331.379 243.021C334.124 243.531 336.71 244.652 338.982 246.36L339.522 245.641C336.18 243.129 332.195 241.8 328 241.8C327.987 241.8 327.975 241.802 327.962 241.802C327.956 241.802 327.95 241.8 327.944 241.8C327.924 241.8 327.905 241.805 327.885 241.806C317.351 241.869 308.8 250.451 308.8 261C308.8 261.249 309.001 261.45 309.25 261.45H327.55V279.25C325.231 279.002 323.016 276.882 321.417 273.306L320.596 273.672C321.666 276.069 323.024 277.851 324.525 278.95C320.591 278.187 316.974 276.161 314.279 273.109L313.604 273.705C317.249 277.832 322.496 280.2 328 280.2C338.587 280.2 347.2 271.586 347.2 261C347.2 260.751 346.999 260.55 346.75 260.55ZM336.914 261.45C336.874 264.781 336.397 267.886 335.599 270.55H328.45V261.45H336.914ZM328.45 271.45H335.316C333.782 275.95 331.29 278.96 328.45 279.252V271.45ZM327.55 250.55H320.627C322.171 246.02 324.687 242.999 327.55 242.74V250.55ZM324.477 243.057C322.511 244.514 320.845 247.155 319.712 250.55H312.992C315.66 246.732 319.745 243.986 324.477 243.057ZM312.417 251.45H319.432C318.637 254.144 318.17 257.242 318.13 260.55H309.705C309.786 257.217 310.779 254.115 312.417 251.45ZM319.03 260.55C319.07 257.219 319.546 254.114 320.345 251.45H327.55V260.55H319.03ZM331.45 278.955C333.424 277.502 335.096 274.855 336.231 271.45H343.006C340.326 275.287 336.212 278.041 331.45 278.955ZM343.582 270.55H336.511C337.306 267.856 337.774 264.757 337.814 261.45H346.295C346.214 264.782 345.221 267.885 343.582 270.55ZM325.95 271V263.5C325.95 263.251 325.749 263.05 325.5 263.05H310.5C310.251 263.05 310.05 263.251 310.05 263.5V271C310.05 271.249 310.251 271.45 310.5 271.45H325.5C325.749 271.45 325.95 271.249 325.95 271ZM322.596 270.55H313.404C313.207 269.285 312.214 268.291 310.949 268.095V266.405C312.214 266.209 313.207 265.215 313.404 263.95H322.595C322.791 265.215 323.785 266.209 325.05 266.405V268.095C323.786 268.291 322.791 269.285 322.596 270.55ZM325.05 265.496C324.281 265.322 323.676 264.719 323.504 263.95H325.05V265.496ZM312.496 263.95C312.322 264.719 311.717 265.322 310.95 265.496V263.95H312.496ZM310.95 269.004C311.719 269.177 312.324 269.781 312.496 270.55H310.95V269.004ZM323.504 270.55C323.677 269.781 324.282 269.177 325.05 269.004V270.55H323.504ZM318 265.55C317.062 265.55 316.3 266.312 316.3 267.25C316.3 268.187 317.062 268.95 318 268.95C318.937 268.95 319.7 268.187 319.7 267.25C319.7 266.312 318.937 265.55 318 265.55ZM318 268.05C317.559 268.05 317.2 267.691 317.2 267.25C317.2 266.809 317.559 266.45 318 266.45C318.441 266.45 318.8 266.809 318.8 267.25C318.8 267.691 318.441 268.05 318 268.05ZM313 266.8H314.25V267.701H313V266.8ZM321.75 266.8H323V267.701H321.75V266.8Z" stroke="white" stroke-width="0.5" mask="url(#path-14-outside-4_1496_578)"/>
</g>
<path d="M137.5 458.25H130V462H137.5V458.25Z" stroke="white" stroke-width="1.5" stroke-miterlimit="10" stroke-linecap="square" stroke-linejoin="bevel"/>
<path d="M133.75 449.5V458.25" stroke="white" stroke-width="1.5" stroke-miterlimit="10" stroke-linecap="square" stroke-linejoin="bevel"/>
<path d="M114.375 446.375V468.875H108.75V446.375" stroke="white" stroke-width="1.5" stroke-miterlimit="10" stroke-linecap="square" stroke-linejoin="bevel"/>
<path d="M103.75 468.875H119.375" stroke="white" stroke-width="1.5" stroke-miterlimit="10" stroke-linecap="square" stroke-linejoin="bevel"/>
<path d="M116.875 440.75L137.5 442.625V446.375H102.5V442L106.25 440.75" stroke="white" stroke-width="1.5" stroke-miterlimit="10" stroke-linejoin="bevel"/>
<path d="M114.375 446.375L108.75 452" stroke="white" stroke-width="1.5" stroke-miterlimit="10" stroke-linejoin="bevel"/>
<path d="M114.375 457.625L108.75 463.25" stroke="white" stroke-width="1.5" stroke-miterlimit="10" stroke-linejoin="bevel"/>
<path d="M114.375 457.625L108.75 452" stroke="white" stroke-width="1.5" stroke-miterlimit="10" stroke-linejoin="bevel"/>
<path d="M114.375 468.875L108.75 463.25" stroke="white" stroke-width="1.5" stroke-miterlimit="10" stroke-linejoin="bevel"/>
<path d="M106.25 446.375V435.125H115L116.875 440.75V446.375" stroke="white" stroke-width="1.5" stroke-miterlimit="10" stroke-linecap="square" stroke-linejoin="bevel"/>
<path d="M110 435.125V438.25C110 438.913 110.263 439.549 110.732 440.018C111.201 440.487 111.837 440.75 112.5 440.75H116.875" stroke="white" stroke-width="1.5" stroke-miterlimit="10" stroke-linejoin="bevel"/>
<path d="M328 231L328 106" stroke="#01B69B" stroke-width="3"/>
<path d="M321 110L328 100L335 110H321Z" fill="#01B69B"/>
<circle cx="328" cy="231" r="5" fill="#01B69B"/>
<path d="M98 422L98 106" stroke="#01B69B" stroke-width="3"/>
<path d="M91 110L98 100L105 110H91Z" fill="#01B69B"/>
<circle cx="98" cy="422" r="5" fill="#01B69B"/>
<path d="M118 422L118 188L308 188L308 106" stroke="#01B69B" stroke-width="3"/>
<path d="M301 110L308 100L315 110H301Z" fill="#01B69B"/>
<circle cx="118" cy="422" r="5" fill="#01B69B"/>
<path d="M141 422L141 261L240 261" stroke="#01B69B" stroke-width="3"/>
<path d="M236 254L246 261L236 268L236 254Z" fill="#01B69B"/>
<circle cx="141" cy="422" r="5" fill="#01B69B"/>
<path d="M348 225L348 106" stroke="#0D9DDB" stroke-width="3"/>
<path d="M341 110L348 100L355 110H341Z" fill="#0D9DDB"/>
<path d="M341 221L348 231L355 221H341Z" fill="#0D9DDB"/>
<path d="M200 452L242 452" stroke="#01B69B" stroke-width="3"/>
<path d="M238 445L248 452L238 459L238 445Z" fill="#01B69B"/>
<circle cx="200" cy="452" r="5" fill="#01B69B"/>
<path d="M482 72L440 72" stroke="#0D9DDB" stroke-width="3"/>
<path d="M444 65L434 72L444 79L444 65Z" fill="#0D9DDB"/>
<circle cx="482" cy="72" r="5" fill="#0D9DDB"/>
<path d="M366 72L330 72" stroke="#0D9DDB" stroke-width="3"/>
<path d="M334 65L324 72L334 79L334 65Z" fill="#0D9DDB"/>
<path d="M362 65L372 72L362 79L362 65Z" fill="#0D9DDB"/>
<path d="M328 291L328 416" stroke="#01B69B" stroke-width="3"/>
<path d="M321 412L328 422L335 412H321Z" fill="#01B69B"/>
<circle cx="328" cy="291" r="5" fill="#01B69B"/>
<defs>
<clipPath id="clip0_1496_578">
<rect width="40" height="40" fill="white" transform="translate(107 50)"/>
</clipPath>
<clipPath id="clip1_1496_578">
<rect width="40" height="40" fill="white" transform="translate(308 432)"/>
</clipPath>
<clipPath id="clip2_1496_578">
<rect width="40" height="40" fill="white" transform="translate(549 50)"/>
</clipPath>
<clipPath id="clip3_1496_578">
<rect width="40" height="40" fill="white" transform="translate(308 241)"/>
</clipPath>
</defs>
</svg>
