<svg width="656" height="522" viewBox="0 0 656 522" fill="none" xmlns="http://www.w3.org/2000/svg">
<g clip-path="url(#clip0_1502_684)">
<path d="M215.5 85.5L170.5 130.5L215.5 175.5" stroke="#01B69B" stroke-width="6" stroke-miterlimit="10" stroke-linecap="square"/>
<path d="M268 130.5H170.5" stroke="#01B69B" stroke-width="6" stroke-miterlimit="10"/>
<path d="M440.5 400.5L485.5 355.5L440.5 310.5" stroke="#01B69B" stroke-width="6" stroke-miterlimit="10" stroke-linecap="square"/>
<path d="M388 355.5H485.5" stroke="#01B69B" stroke-width="6" stroke-miterlimit="10"/>
<path d="M283.625 171.958C264.837 182.314 250.289 198.946 242.526 218.944C234.763 238.943 234.28 261.034 241.16 281.353" stroke="#0D9DDB" stroke-width="5" stroke-miterlimit="10" stroke-linecap="square"/>
<path d="M248.613 316.333C258.738 316.333 266.946 308.125 266.946 298C266.946 287.875 258.738 279.667 248.613 279.667C238.487 279.667 230.279 287.875 230.279 298C230.279 308.125 238.487 316.333 248.613 316.333Z" stroke="#0D9DDB" stroke-width="5" stroke-miterlimit="10" stroke-linecap="square"/>
<path d="M396.664 312.754C382.522 328.861 363.164 339.481 341.981 342.754C320.797 346.027 299.137 341.744 280.793 330.656" stroke="#0D9DDB" stroke-width="5" stroke-miterlimit="10" stroke-linecap="square"/>
<path d="M419.667 253.84C419.667 253.285 419.69 252.726 419.69 252.167C419.685 231.006 412.358 210.498 398.954 194.124C385.55 177.75 366.893 166.518 346.15 162.333" stroke="#0D9DDB" stroke-width="5" stroke-miterlimit="10" stroke-linecap="square"/>
<path d="M407.388 316.333C417.513 316.333 425.721 308.125 425.721 298C425.721 287.875 417.513 279.667 407.388 279.667C397.263 279.667 389.055 287.875 389.055 298C389.055 308.125 397.263 316.333 407.388 316.333Z" stroke="#0D9DDB" stroke-width="5" stroke-miterlimit="10" stroke-linecap="square"/>
<path d="M328.001 178.833C338.127 178.833 346.335 170.625 346.335 160.5C346.335 150.375 338.127 142.167 328.001 142.167C317.876 142.167 309.668 150.375 309.668 160.5C309.668 170.625 317.876 178.833 328.001 178.833Z" stroke="#0D9DDB" stroke-width="5" stroke-miterlimit="10" stroke-linecap="square"/>
<path d="M372.375 286.5C384.625 285.406 394.25 274.906 394.25 262.438C394.25 249.75 384.625 239.469 372.156 238.375C369.969 216.281 351.375 199 328.625 199C308.938 199 292.312 212.125 286.844 230.063C273.281 232.25 263 243.844 263 258.062C263 272.938 274.594 285.406 289.25 286.5H372.375Z" fill="white" stroke="#00232E" stroke-width="4" stroke-miterlimit="10" stroke-linecap="square"/>
<path d="M315.99 256.269H310.764C310.669 255.593 310.474 254.992 310.18 254.467C309.885 253.934 309.507 253.481 309.046 253.107C308.585 252.733 308.052 252.447 307.447 252.248C306.851 252.049 306.202 251.949 305.502 251.949C304.238 251.949 303.136 252.264 302.197 252.892C301.259 253.512 300.531 254.419 300.014 255.612C299.497 256.798 299.238 258.237 299.238 259.932C299.238 261.674 299.497 263.137 300.014 264.323C300.539 265.508 301.27 266.403 302.209 267.007C303.148 267.612 304.234 267.914 305.466 267.914C306.159 267.914 306.799 267.823 307.388 267.64C307.984 267.457 308.513 267.19 308.974 266.84C309.436 266.482 309.818 266.049 310.12 265.54C310.43 265.031 310.645 264.45 310.764 263.798L315.99 263.822C315.855 264.943 315.517 266.025 314.976 267.067C314.443 268.101 313.723 269.028 312.816 269.847C311.918 270.658 310.844 271.303 309.595 271.78C308.354 272.249 306.95 272.484 305.383 272.484C303.203 272.484 301.255 271.991 299.536 271.005C297.826 270.018 296.474 268.59 295.48 266.721C294.493 264.852 294 262.589 294 259.932C294 257.267 294.501 255 295.503 253.131C296.506 251.261 297.866 249.837 299.584 248.859C301.302 247.873 303.235 247.38 305.383 247.38C306.799 247.38 308.111 247.578 309.32 247.976C310.538 248.374 311.615 248.955 312.554 249.718C313.493 250.474 314.256 251.401 314.845 252.498C315.441 253.596 315.823 254.853 315.99 256.269Z" fill="#00232E"/>
<path d="M342.151 259.932C342.151 262.597 341.646 264.864 340.636 266.733C339.633 268.602 338.265 270.03 336.531 271.016C334.805 271.995 332.864 272.484 330.708 272.484C328.537 272.484 326.588 271.991 324.862 271.005C323.136 270.018 321.771 268.59 320.769 266.721C319.767 264.852 319.266 262.589 319.266 259.932C319.266 257.267 319.767 255 320.769 253.131C321.771 251.261 323.136 249.837 324.862 248.859C326.588 247.873 328.537 247.38 330.708 247.38C332.864 247.38 334.805 247.873 336.531 248.859C338.265 249.837 339.633 251.261 340.636 253.131C341.646 255 342.151 257.267 342.151 259.932ZM336.913 259.932C336.913 258.206 336.654 256.75 336.137 255.565C335.628 254.38 334.908 253.481 333.978 252.868C333.047 252.256 331.957 251.949 330.708 251.949C329.459 251.949 328.37 252.256 327.439 252.868C326.508 253.481 325.784 254.38 325.267 255.565C324.758 256.75 324.504 258.206 324.504 259.932C324.504 261.658 324.758 263.114 325.267 264.299C325.784 265.484 326.508 266.383 327.439 266.995C328.37 267.608 329.459 267.914 330.708 267.914C331.957 267.914 333.047 267.608 333.978 266.995C334.908 266.383 335.628 265.484 336.137 264.299C336.654 263.114 336.913 261.658 336.913 259.932Z" fill="#00232E"/>
<path d="M345.835 272.15V268.427L354.533 260.373C355.273 259.657 355.893 259.013 356.394 258.44C356.904 257.868 357.289 257.307 357.552 256.758C357.814 256.201 357.946 255.601 357.946 254.956C357.946 254.24 357.783 253.624 357.456 253.107C357.13 252.582 356.685 252.18 356.12 251.902C355.555 251.615 354.915 251.472 354.199 251.472C353.451 251.472 352.799 251.623 352.242 251.926C351.685 252.228 351.256 252.661 350.954 253.226C350.651 253.791 350.5 254.463 350.5 255.243H345.596C345.596 253.644 345.958 252.256 346.682 251.078C347.406 249.901 348.42 248.99 349.725 248.346C351.029 247.702 352.533 247.38 354.235 247.38C355.985 247.38 357.508 247.69 358.805 248.31C360.109 248.923 361.123 249.774 361.847 250.864C362.571 251.953 362.933 253.202 362.933 254.61C362.933 255.533 362.75 256.444 362.384 257.343C362.026 258.241 361.386 259.24 360.463 260.337C359.54 261.427 358.24 262.736 356.562 264.263L352.994 267.759V267.926H363.255V272.15H345.835Z" fill="#00232E"/>
<path d="M16.3747 435.5C28.2718 435.5 37.9163 431.116 37.9163 425.708C37.9163 420.301 28.2718 415.917 16.3747 415.917C4.47754 415.917 -5.16699 420.301 -5.16699 425.708C-5.16699 431.116 4.47754 435.5 16.3747 435.5Z" stroke="#01B69B" stroke-width="3" stroke-miterlimit="10" stroke-linecap="square"/>
<path d="M37.9163 425.708V439.417C37.9163 444.824 28.2715 449.208 16.3747 449.208C4.4778 449.208 -5.16699 444.824 -5.16699 439.417V425.708" stroke="#01B69B" stroke-width="3" stroke-miterlimit="10"/>
<path d="M30.083 460.678C26.3583 462.077 21.5819 462.917 16.3747 462.917C4.4778 462.917 -5.16699 458.532 -5.16699 453.125V439.417" stroke="#01B69B" stroke-width="3" stroke-miterlimit="10"/>
<path d="M30.0811 474.387C26.3583 475.785 21.5819 476.625 16.3747 476.625C4.4778 476.625 -5.16699 472.24 -5.16699 466.833V453.125" stroke="#01B69B" stroke-width="3" stroke-miterlimit="10"/>
<path d="M30.083 488.095C26.3583 489.493 21.5819 490.333 16.3747 490.333C4.4778 490.333 -5.16699 485.949 -5.16699 480.542V466.833" stroke="#01B69B" stroke-width="3" stroke-miterlimit="10"/>
<path d="M51.6237 460.958C63.5208 460.958 73.1654 456.574 73.1654 451.167C73.1654 445.759 63.5208 441.375 51.6237 441.375C39.7266 441.375 30.082 445.759 30.082 451.167C30.082 456.574 39.7266 460.958 51.6237 460.958Z" stroke="#01B69B" stroke-width="3" stroke-miterlimit="10" stroke-linecap="square"/>
<path d="M73.1654 451.167V464.875C73.1654 470.282 63.5206 474.667 51.6237 474.667C39.7268 474.667 30.082 470.282 30.082 464.875V451.167" stroke="#01B69B" stroke-width="3" stroke-miterlimit="10"/>
<path d="M73.1654 464.875V478.583C73.1654 483.99 63.5206 488.375 51.6237 488.375C39.7268 488.375 30.082 483.99 30.082 478.583V464.875" stroke="#01B69B" stroke-width="3" stroke-miterlimit="10"/>
<path d="M73.1654 478.583V492.292C73.1654 497.699 63.5206 502.083 51.6237 502.083C39.7268 502.083 30.082 497.699 30.082 492.292V478.583" stroke="#01B69B" stroke-width="3" stroke-miterlimit="10"/>
<path d="M66 186.25C82.7066 186.25 96.25 172.707 96.25 156C96.25 139.293 82.7066 125.75 66 125.75C49.2934 125.75 35.75 139.293 35.75 156C35.75 172.707 49.2934 186.25 66 186.25Z" stroke="#0D9DDB" stroke-width="3" stroke-miterlimit="10" stroke-linecap="square"/>
<path d="M74.1125 145C73.4759 141.862 70.7011 139.5 67.375 139.5C63.5786 139.5 60.5 142.579 60.5 146.375V169.75" stroke="#0D9DDB" stroke-width="3" stroke-miterlimit="10" stroke-linecap="square"/>
<path d="M55 169.75H74.25" stroke="#0D9DDB" stroke-width="3" stroke-miterlimit="10" stroke-linecap="square"/>
<path d="M55 156H68.75" stroke="#0D9DDB" stroke-width="3" stroke-miterlimit="10" stroke-linecap="square"/>
<path d="M150.501 400.792C176.067 400.792 196.792 380.066 196.792 354.5C196.792 328.934 176.067 308.208 150.501 308.208C124.934 308.208 104.209 328.934 104.209 354.5C104.209 380.066 124.934 400.792 150.501 400.792Z" stroke="#0D9DDB" stroke-width="3" stroke-miterlimit="10" stroke-linecap="square"/>
<path d="M167.334 376.371C163.62 378.521 159.309 379.75 154.709 379.75C140.765 379.75 129.459 368.444 129.459 354.5C129.459 340.556 140.765 329.25 154.709 329.25C159.307 329.25 163.616 330.479 167.33 332.625" stroke="#0D9DDB" stroke-width="3" stroke-miterlimit="10" stroke-linecap="square"/>
<path d="M121.043 346.083H150.501" stroke="#0D9DDB" stroke-width="3" stroke-miterlimit="10" stroke-linecap="square"/>
<path d="M121.043 362.917H150.501" stroke="#0D9DDB" stroke-width="3" stroke-miterlimit="10" stroke-linecap="square"/>
<path d="M495.001 199.417C516.77 199.417 534.417 181.769 534.417 160C534.417 138.231 516.77 120.583 495.001 120.583C473.231 120.583 455.584 138.231 455.584 160C455.584 181.769 473.231 199.417 495.001 199.417Z" stroke="#0D9DDB" stroke-width="3" stroke-miterlimit="10" stroke-linecap="square"/>
<path d="M495 134.917V185.083" stroke="#0D9DDB" stroke-width="3" stroke-miterlimit="10" stroke-linecap="square"/>
<path d="M507.095 142.868C501.286 139.674 482.992 137.292 482.992 148.29C482.992 161.455 506.224 156.809 506.224 168.424C506.224 180.04 491.122 179.169 480.668 175.392" stroke="#0D9DDB" stroke-width="3" stroke-miterlimit="10" stroke-linecap="square"/>
<path d="M586.167 73.5H547.834V19.8333H624.501V44.75" stroke="#01B69B" stroke-width="3" stroke-miterlimit="10" stroke-linecap="square"/>
<path d="M614.918 69.6666C624.445 69.6666 632.168 66.2342 632.168 62C632.168 57.7658 624.445 54.3333 614.918 54.3333C605.391 54.3333 597.668 57.7658 597.668 62C597.668 66.2342 605.391 69.6666 614.918 69.6666Z" stroke="#01B69B" stroke-width="3" stroke-miterlimit="10" stroke-linecap="square"/>
<path d="M597.668 62V73.5C597.668 77.7339 605.39 81.1667 614.918 81.1667C624.446 81.1667 632.168 77.7339 632.168 73.5V62" stroke="#01B69B" stroke-width="3" stroke-miterlimit="10"/>
<path d="M597.668 73.5V85C597.668 89.2339 605.39 92.6667 614.918 92.6667C624.446 92.6667 632.168 89.2339 632.168 85V73.5" stroke="#01B69B" stroke-width="3" stroke-miterlimit="10"/>
<path d="M597.668 85V96.5C597.668 100.734 605.39 104.167 614.918 104.167C624.446 104.167 632.168 100.734 632.168 96.5V85" stroke="#01B69B" stroke-width="3" stroke-miterlimit="10"/>
<path d="M586.167 54.3333C590.401 54.3333 593.833 50.9008 593.833 46.6667C593.833 42.4325 590.401 39 586.167 39C581.932 39 578.5 42.4325 578.5 46.6667C578.5 50.9008 581.932 54.3333 586.167 54.3333Z" stroke="#01B69B" stroke-width="3" stroke-miterlimit="10" stroke-linecap="square"/>
<path d="M580.501 351.042C598.473 351.042 613.042 336.472 613.042 318.5C613.042 300.528 598.473 285.958 580.501 285.958C562.528 285.958 547.959 300.528 547.959 318.5C547.959 336.472 562.528 351.042 580.501 351.042Z" stroke="#0D9DDB" stroke-width="3" stroke-miterlimit="10" stroke-linecap="square"/>
<path d="M568.668 303.708L580.501 318.5L592.335 303.708" stroke="#0D9DDB" stroke-width="3" stroke-miterlimit="10" stroke-linecap="square"/>
<path d="M580.5 318.5V336.25" stroke="#0D9DDB" stroke-width="3" stroke-miterlimit="10" stroke-linecap="square"/>
<path d="M571.625 318.5H589.375" stroke="#0D9DDB" stroke-width="3" stroke-miterlimit="10" stroke-linecap="square"/>
<path d="M571.625 327.375H589.375" stroke="#0D9DDB" stroke-width="3" stroke-miterlimit="10" stroke-linecap="square"/>
</g>
<defs>
<clipPath id="clip0_1502_684">
<rect width="656" height="522" fill="white"/>
</clipPath>
</defs>
</svg>
