<svg width="112" height="17" viewBox="0 0 112 17" fill="none" xmlns="http://www.w3.org/2000/svg">
<g clip-path="url(#clip0_696_68)">
<path d="M2.53776 7.31825H4.542C6.23119 7.31825 7.02657 7.74812 7.02657 8.97429C7.02657 10.5148 5.53562 10.697 4.45884 10.697H2.53776V7.31825ZM0.450439 12.4858H4.67434C6.8938 12.4858 9.1135 11.6913 9.1135 9.13994C9.1135 7.63309 8.05338 6.4728 6.57915 6.3079V6.27409C7.78808 5.91016 8.61648 5.03258 8.61648 3.70698C8.61648 1.57032 6.79428 0.758898 5.022 0.758898H0.450439V12.4858ZM2.53776 2.54771H4.26005C5.83405 2.54771 6.52935 3.04435 6.52935 4.05476C6.52935 4.93287 5.83405 5.52918 4.44249 5.52918H2.53776V2.54771Z" fill="#2D2D39"/>
<path d="M10.4761 0.481616H12.4637V12.4863H10.4761V0.481616Z" fill="#2D2D39"/>
<path d="M13.7927 8.51057C13.7927 11.0122 15.7141 12.6851 18.1163 12.6851C20.5176 12.6851 22.439 11.0122 22.439 8.51057C22.439 6.0096 20.5174 4.3364 18.1163 4.3364C15.7141 4.3364 13.7927 6.0096 13.7927 8.51057M15.7803 8.51057C15.7803 7.26826 16.6581 6.12546 18.1163 6.12546C19.5736 6.12546 20.4514 7.26826 20.4514 8.51057C20.4514 9.75314 19.5736 10.896 18.1163 10.896C16.6581 10.896 15.7803 9.75314 15.7803 8.51057" fill="#2D2D39"/>
<path d="M23.3374 8.51057C23.3374 11.0122 25.2588 12.6851 27.6607 12.6851C30.062 12.6851 31.9836 11.0122 31.9836 8.51057C31.9836 6.0096 30.062 4.3364 27.6607 4.3364C25.2588 4.3364 23.3374 6.0096 23.3374 8.51057M25.3249 8.51057C25.3249 7.26826 26.2032 6.12546 27.6607 6.12546C29.1181 6.12546 29.9961 7.26826 29.9961 8.51057C29.9961 9.75314 29.1181 10.896 27.6607 10.896C26.2032 10.896 25.3249 9.75314 25.3249 8.51057" fill="#2D2D39"/>
<path d="M33.1973 4.53536H35.0852V5.77767H35.1182C35.4663 5.03294 36.2283 4.33682 37.5533 4.33682C38.7792 4.33682 39.6238 4.81719 40.0379 5.81117C40.6175 4.80022 41.4618 4.33682 42.6547 4.33682C44.7751 4.33682 45.5201 5.84399 45.5201 7.74855V12.4863H43.5325V7.98109C43.5325 6.98704 43.2346 6.12582 42.0588 6.12582C40.8163 6.12582 40.3524 7.15289 40.3524 8.17925V12.4863H38.3651V7.74855C38.3651 6.77172 37.9671 6.12582 37.0066 6.12582C35.6983 6.12582 35.185 7.08675 35.185 8.14688V12.4863H33.1973V4.53536" fill="#2D2D39"/>
<path d="M47.1313 12.4861H49.0197V11.2935H49.0529C49.6328 12.2538 50.6763 12.6851 51.7861 12.6851C54.2374 12.6851 55.7113 10.8629 55.7113 8.5107C55.7113 6.15928 54.1378 4.33645 51.8686 4.33645C50.378 4.33645 49.5828 5.03277 49.1692 5.54583H49.1193V0.481373H47.1313V12.4861ZM53.7238 8.5107C53.7238 9.75313 52.846 10.896 51.3885 10.896C49.931 10.896 49.0529 9.75313 49.0529 8.5107C49.0529 7.26839 49.931 6.12552 51.3885 6.12552C52.846 6.12552 53.7238 7.26839 53.7238 8.5107Z" fill="#2D2D39"/>
<path d="M64.6598 9.20601V8.66006C64.6598 5.89448 63.1527 4.3364 60.9326 4.3364C58.5312 4.3364 56.6096 6.00941 56.6096 8.51057C56.6096 11.0122 58.5312 12.6851 60.9326 12.6851C62.1917 12.6851 63.3676 12.2369 64.2952 11.0945L62.871 10.0184C62.3745 10.6313 61.7279 11.0945 60.7343 11.0945C59.6246 11.0945 58.73 10.383 58.5972 9.20601H64.6598ZM58.5972 7.71611C58.7467 6.5727 59.4754 5.82742 60.6514 5.82742C61.8935 5.82742 62.6555 6.55591 62.6719 7.71611H58.5972Z" fill="#2D2D39"/>
<path d="M65.9561 4.53536H67.9432V5.79445H67.9772C68.4075 4.88352 69.2852 4.33676 70.3289 4.33676C70.5774 4.33676 70.8096 4.38675 71.0408 4.45288V6.37434C70.7095 6.2913 70.3948 6.22534 70.0804 6.22534C68.2085 6.22534 67.9432 7.7991 67.9432 8.22973V12.4863H65.9561V4.53536Z" fill="#2D2D39"/>
<path d="M77.8393 4.53501V5.72822H77.8061C77.2267 4.76719 76.1831 4.33641 75.0731 4.33641C72.6213 4.33641 71.1477 6.15911 71.1477 8.51046C71.1477 10.763 72.7212 12.5856 75.106 12.5856C76.0998 12.5856 77.1269 12.2046 77.7068 11.4262H77.7396V12.0061C77.7396 13.5799 77.1431 14.6724 75.2224 14.6724C74.1121 14.6724 73.2843 14.2585 72.4889 13.5293L71.2963 15.153C72.4227 16.147 73.7643 16.4609 75.239 16.4609C78.3361 16.4609 79.7277 14.6394 79.7277 11.774V4.53501H77.8393ZM75.4872 6.12548C76.9284 6.12548 77.8393 7.0864 77.8393 8.46055C77.8393 9.78673 76.945 10.7968 75.4705 10.7968C74.1289 10.7968 73.1353 9.75296 73.1353 8.4943C73.1353 7.0864 74.096 6.12548 75.4872 6.12548Z" fill="#2D2D39"/>
<path d="M90.1825 12.4858L84.5128 3.25567H84.4791V12.4858H82.3528V0.538878H85.1708L90.7225 9.48239H90.7564V0.538878H92.8825V12.4858H90.1825Z" fill="#2D2D39"/>
<path d="M94.3823 12.4858V0.538878H102.296V2.39501H96.5085V5.43259H101.993V7.22104H96.5085V10.5959H102.6V12.4858H94.3823" fill="#2D2D39"/>
<path d="M106.126 7.45746V12.4858H104V0.538878H111.711V2.39501H106.126V5.66859H111.39V7.45746H106.126Z" fill="#2D2D39"/>
</g>
<defs>
<clipPath id="clip0_696_68">
<rect width="111.26" height="15.9802" fill="white" transform="translate(0.450439 0.480957)"/>
</clipPath>
</defs>
</svg>
