<svg width="272" height="64" viewBox="0 0 272 64" fill="none" xmlns="http://www.w3.org/2000/svg">
<path d="M26.5167 6L49.0333 19V45L26.5167 58L4 45V19L26.5167 6Z" fill="black"/>
<path d="M28.0166 21C31.238 21 34.5166 23 36.5166 25.0113V48C33.6833 48 30.8491 48 28.0166 48C20.5608 48 14.5166 41.9558 14.5166 34.5C14.5166 27.0442 20.5608 21 28.0166 21Z" fill="white"/>
<path fill-rule="evenodd" clip-rule="evenodd" d="M13.5166 34.5C13.5166 26.4919 20.0085 20 28.0166 20C31.6059 20 35.1245 22.1932 37.2257 24.3062L37.5166 24.5988V49H28.0166C20.0085 49 13.5166 42.5081 13.5166 34.5ZM28.0166 22C21.113 22 15.5166 27.5964 15.5166 34.5C15.5166 41.4036 21.113 47 28.0166 47H35.5166V25.4332C33.6076 23.632 30.7285 22 28.0166 22Z" fill="black"/>
<path d="M36.5166 31.0145C36.3512 31.0049 36.1844 31 36.0166 31C31.3222 31 27.5166 34.8056 27.5166 39.5C27.5166 44.1944 31.3222 48 36.0166 48C36.1844 48 36.3512 47.9951 36.5166 47.9855V31.0145Z" fill="white"/>
<path fill-rule="evenodd" clip-rule="evenodd" d="M35.5166 32.0164C31.6076 32.2737 28.5166 35.5259 28.5166 39.5C28.5166 43.4741 31.6076 46.7263 35.5166 46.9836V32.0164ZM26.5166 39.5C26.5166 34.2533 30.7699 30 36.0166 30C36.2038 30 36.3898 30.0054 36.5745 30.0161L37.5166 30.0708V48.9292L36.5745 48.9839C36.3898 48.9946 36.2038 49 36.0166 49C30.7699 49 26.5166 44.7467 26.5166 39.5Z" fill="black"/>
<path d="M25.5166 32.6264C24.7262 32.8693 23.8867 33 23.0166 33C18.3222 33 14.5166 29.1944 14.5166 24.5C14.5166 19.8056 18.3222 16 23.0166 16C23.8867 16 25.5166 16 25.5166 16C25.5166 16 27.1465 16 28.0166 16C32.711 16 36.5166 19.8056 36.5166 24.5C36.5166 29.1944 32.711 33 28.0166 33C27.1465 33 26.307 32.8693 25.5166 32.6264Z" fill="white"/>
<path fill-rule="evenodd" clip-rule="evenodd" d="M23.0166 17C18.8745 17 15.5166 20.3579 15.5166 24.5C15.5166 28.6421 18.8745 32 23.0166 32C23.786 32 24.5266 31.8845 25.2229 31.6705L25.5166 31.5803L25.8103 31.6705C26.5066 31.8845 27.2472 32 28.0166 32C32.1587 32 35.5166 28.6421 35.5166 24.5C35.5166 20.3579 32.1587 17 28.0166 17H25.5168L25.5166 16L25.5166 15H28.0166C33.2633 15 37.5166 19.2533 37.5166 24.5C37.5166 29.7467 33.2633 34 28.0166 34C27.1526 34 26.3142 33.8844 25.5166 33.6674C24.719 33.8844 23.8806 34 23.0166 34C17.7699 34 13.5166 29.7467 13.5166 24.5C13.5166 19.2533 17.7699 15 23.0166 15H25.5166L25.5166 16L25.5168 17H23.0166Z" fill="black"/>
<path d="M22.5166 26C22.5166 27.1046 21.6212 28 20.5166 28C19.412 28 18.5166 27.1046 18.5166 26C18.5166 24.8954 19.412 24 20.5166 24C21.6212 24 22.5166 24.8954 22.5166 26Z" fill="black"/>
<path d="M32.5166 26C32.5166 27.1046 31.6212 28 30.5166 28C29.412 28 28.5166 27.1046 28.5166 26C28.5166 24.8954 29.412 24 30.5166 24C31.6212 24 32.5166 24.8954 32.5166 26Z" fill="black"/>
<path fill-rule="evenodd" clip-rule="evenodd" d="M20.0166 22C18.0301 22 16.2469 23.3323 15.4473 25.3659C15.2452 25.8799 14.6647 26.1327 14.1507 25.9307C13.6367 25.7286 13.3839 25.1481 13.586 24.6341C14.6379 21.9587 17.083 20 20.0166 20C22.9502 20 25.3954 21.9587 26.4473 24.6341C26.6494 25.1481 26.3965 25.7286 25.8825 25.9307C25.3685 26.1327 24.7881 25.8799 24.586 25.3659C23.7864 23.3323 22.0031 22 20.0166 22Z" fill="black"/>
<path fill-rule="evenodd" clip-rule="evenodd" d="M31.0166 22C29.0301 22 27.2469 23.3323 26.4473 25.3659C26.2452 25.8799 25.6647 26.1327 25.1507 25.9307C24.6367 25.7286 24.3839 25.1481 24.586 24.6341C25.6379 21.9587 28.083 20 31.0166 20C33.9502 20 36.3954 21.9587 37.4473 24.6341C37.6494 25.1481 37.3965 25.7286 36.8825 25.9307C36.3685 26.1327 35.7881 25.8799 35.586 25.3659C34.7864 23.3323 33.0031 22 31.0166 22Z" fill="black"/>
<g clip-path="url(#clip0_1425_38)">
<path d="M77.8968 40.9902H79.6527C81.1325 40.9902 81.8294 41.3668 81.8294 42.441C81.8294 43.7907 80.5232 43.9503 79.5798 43.9503H77.8968V40.9902ZM76.0681 45.5174H79.7686C81.713 45.5174 83.6577 44.8213 83.6577 42.5861C83.6577 41.266 82.7289 40.2495 81.4374 40.105V40.0754C82.4965 39.7566 83.2223 38.9877 83.2223 37.8264C83.2223 35.9545 81.6259 35.2436 80.0732 35.2436H76.0681V45.5174ZM77.8968 36.8108H79.4057C80.7846 36.8108 81.3938 37.2459 81.3938 38.1311C81.3938 38.9004 80.7846 39.4228 79.5655 39.4228H77.8968V36.8108Z" fill="#999999"/>
<path d="M84.8514 35.0004H86.5927V45.5175H84.8514V35.0004Z" fill="#999999"/>
<path d="M87.7571 42.0347C87.7571 44.2263 89.4403 45.6919 91.5449 45.6919C93.6487 45.6919 95.332 44.2263 95.332 42.0347C95.332 39.8436 93.6485 38.3777 91.5449 38.3777C89.4403 38.3777 87.7571 39.8436 87.7571 42.0347M89.4984 42.0347C89.4984 40.9463 90.2674 39.9451 91.5449 39.9451C92.8216 39.9451 93.5906 40.9463 93.5906 42.0347C93.5906 43.1232 92.8216 44.1245 91.5449 44.1245C90.2674 44.1245 89.4984 43.1232 89.4984 42.0347" fill="#999999"/>
<path d="M96.1191 42.0347C96.1191 44.2263 97.8025 45.6919 99.9067 45.6919C102.01 45.6919 103.694 44.2263 103.694 42.0347C103.694 39.8436 102.01 38.3777 99.9067 38.3777C97.8025 38.3777 96.1191 39.8436 96.1191 42.0347M97.8603 42.0347C97.8603 40.9463 98.6298 39.9451 99.9067 39.9451C101.184 39.9451 101.953 40.9463 101.953 42.0347C101.953 43.1232 101.184 44.1245 99.9067 44.1245C98.6298 44.1245 97.8603 43.1232 97.8603 42.0347" fill="#999999"/>
<path d="M104.757 38.5518H106.411V39.6402H106.44C106.745 38.9877 107.413 38.3779 108.573 38.3779C109.647 38.3779 110.387 38.7987 110.75 39.6695C111.258 38.7839 111.998 38.3779 113.043 38.3779C114.9 38.3779 115.553 39.6983 115.553 41.3668V45.5175H113.812V41.5706C113.812 40.6997 113.551 39.9452 112.52 39.9452C111.432 39.9452 111.026 40.845 111.026 41.7442V45.5175H109.285V41.3668C109.285 40.5111 108.936 39.9452 108.094 39.9452C106.948 39.9452 106.499 40.7871 106.499 41.7158V45.5175H104.757V38.5518" fill="#999999"/>
<path d="M116.964 45.5175H118.619V44.4727H118.648C119.156 45.314 120.07 45.6919 121.042 45.6919C123.19 45.6919 124.481 44.0955 124.481 42.0348C124.481 39.9747 123.103 38.3778 121.115 38.3778C119.809 38.3778 119.112 38.9878 118.75 39.4373H118.706V35.0004H116.964V45.5175ZM122.74 42.0348C122.74 43.1232 121.971 44.1245 120.694 44.1245C119.417 44.1245 118.648 43.1232 118.648 42.0348C118.648 40.9464 119.417 39.9451 120.694 39.9451C121.971 39.9451 122.74 40.9464 122.74 42.0348Z" fill="#999999"/>
<path d="M132.321 42.6439V42.1656C132.321 39.7427 131.001 38.3777 129.056 38.3777C126.952 38.3777 125.268 39.8434 125.268 42.0347C125.268 44.2263 126.952 45.6919 129.056 45.6919C130.159 45.6919 131.189 45.2993 132.002 44.2984L130.754 43.3556C130.319 43.8926 129.752 44.2984 128.882 44.2984C127.91 44.2984 127.126 43.6751 127.01 42.6439H132.321ZM127.01 41.3386C127.141 40.3369 127.779 39.684 128.809 39.684C129.898 39.684 130.565 40.3222 130.58 41.3386H127.01Z" fill="#999999"/>
<path d="M133.457 38.5518H135.197V39.6549H135.227C135.604 38.8568 136.373 38.3778 137.288 38.3778C137.505 38.3778 137.709 38.4216 137.911 38.4796V40.1629C137.621 40.0902 137.345 40.0324 137.07 40.0324C135.43 40.0324 135.197 41.4111 135.197 41.7884V45.5175H133.457V38.5518Z" fill="#999999"/>
<path d="M143.867 38.5518V39.5972H143.838C143.331 38.7552 142.416 38.3778 141.444 38.3778C139.296 38.3778 138.005 39.9747 138.005 42.0346C138.005 44.008 139.383 45.6048 141.473 45.6048C142.343 45.6048 143.243 45.2711 143.751 44.5891H143.78V45.0971C143.78 46.4759 143.257 47.433 141.575 47.433C140.602 47.433 139.877 47.0704 139.18 46.4316L138.135 47.8541C139.122 48.7249 140.297 48.9999 141.589 48.9999C144.303 48.9999 145.522 47.4041 145.522 44.8937V38.5518H143.867ZM141.807 39.9452C143.069 39.9452 143.867 40.787 143.867 41.9909C143.867 43.1528 143.084 44.0377 141.792 44.0377C140.617 44.0377 139.746 43.1232 139.746 42.0205C139.746 40.787 140.588 39.9452 141.807 39.9452Z" fill="#999999"/>
<path d="M154.681 45.5174L149.714 37.431H149.684V45.5174H147.822V35.0509H150.29L155.154 42.8862H155.184V35.0509H157.046V45.5174H154.681Z" fill="#999999"/>
<path d="M158.36 45.5174V35.0509H165.294V36.677H160.223V39.3382H165.028V40.905H160.223V43.8617H165.56V45.5174H158.36" fill="#999999"/>
<path d="M168.649 41.1121V45.5174H166.786V35.0509H173.542V36.677H168.649V39.5449H173.261V41.1121H168.649Z" fill="#999999"/>
</g>
<path d="M59.1973 37H60.75V44.5996L60.5977 46H59.1973V37ZM64.8281 42.7656V42.8887C64.8281 43.3613 64.7754 43.7949 64.6699 44.1895C64.5684 44.584 64.4141 44.9258 64.207 45.2148C64 45.5 63.7422 45.7227 63.4336 45.8828C63.1289 46.0391 62.7715 46.1172 62.3613 46.1172C61.9707 46.1172 61.6309 46.041 61.3418 45.8887C61.0566 45.7363 60.8164 45.5215 60.6211 45.2441C60.4258 44.9629 60.2695 44.6328 60.1523 44.2539C60.0352 43.8711 59.9473 43.4531 59.8887 43V42.666C59.9473 42.209 60.0352 41.791 60.1523 41.4121C60.2695 41.0332 60.4258 40.7031 60.6211 40.4219C60.8164 40.1406 61.0566 39.9238 61.3418 39.7715C61.627 39.6191 61.9629 39.543 62.3496 39.543C62.7637 39.543 63.125 39.623 63.4336 39.7832C63.7461 39.9395 64.0039 40.1621 64.207 40.4512C64.4141 40.7363 64.5684 41.0762 64.6699 41.4707C64.7754 41.8613 64.8281 42.293 64.8281 42.7656ZM63.2754 42.8887V42.7656C63.2754 42.4961 63.2539 42.2422 63.2109 42.0039C63.168 41.7617 63.0977 41.5488 63 41.3652C62.9023 41.1816 62.7695 41.0371 62.6016 40.9316C62.4336 40.8262 62.2227 40.7734 61.9688 40.7734C61.7266 40.7734 61.5195 40.8145 61.3477 40.8965C61.1797 40.9785 61.0391 41.0918 60.9258 41.2363C60.8164 41.3809 60.7305 41.5508 60.668 41.7461C60.6094 41.9414 60.5703 42.1523 60.5508 42.3789V43.293C60.5781 43.5938 60.6426 43.8652 60.7441 44.1074C60.8457 44.3457 60.9961 44.5352 61.1953 44.6758C61.3984 44.8164 61.6602 44.8867 61.9805 44.8867C62.2305 44.8867 62.4395 44.8379 62.6074 44.7402C62.7754 44.6387 62.9082 44.498 63.0059 44.3184C63.1035 44.1348 63.1719 43.9219 63.2109 43.6797C63.2539 43.4375 63.2754 43.1738 63.2754 42.8887Z" fill="#999999"/>
<path d="M68.2202 45.2969L69.9195 39.6602H71.5777L69.0347 46.9609C68.9761 47.1172 68.8999 47.2871 68.8062 47.4707C68.7163 47.6543 68.5952 47.8281 68.4429 47.9922C68.2905 48.1602 68.0991 48.2969 67.8687 48.4023C67.6421 48.5078 67.3667 48.5605 67.0425 48.5605C66.9019 48.5605 66.7769 48.5508 66.6675 48.5312C66.5581 48.5117 66.4429 48.4863 66.3218 48.4551V47.2949C66.3609 47.2988 66.4058 47.3008 66.4566 47.3008C66.5112 47.3047 66.5581 47.3066 66.5972 47.3066C66.8237 47.3066 67.0112 47.2793 67.1597 47.2246C67.3081 47.1738 67.4273 47.0898 67.5171 46.9727C67.6109 46.8594 67.689 46.7109 67.7515 46.5273L68.2202 45.2969ZM67.3823 39.6602L68.8179 44.3301L69.0698 45.9648L68.0034 46.1582L65.7124 39.6602H67.3823Z" fill="#999999"/>
<path d="M65.6775 25.2266H68.0134C67.9666 25.9922 67.7556 26.6719 67.3806 27.2656C67.0108 27.8594 66.4926 28.3229 65.8259 28.6562C65.1645 28.9896 64.3676 29.1562 63.4353 29.1562C62.7061 29.1562 62.0525 29.0312 61.4744 28.7812C60.8962 28.526 60.4014 28.1615 59.99 27.6875C59.5837 27.2135 59.2738 26.6406 59.0603 25.9688C58.8468 25.2969 58.74 24.5443 58.74 23.7109V22.9219C58.74 22.0885 58.8494 21.3359 59.0681 20.6641C59.2921 19.987 59.6098 19.4115 60.0212 18.9375C60.4379 18.4635 60.9353 18.099 61.5134 17.8438C62.0916 17.5885 62.7374 17.4609 63.4509 17.4609C64.3988 17.4609 65.1983 17.6328 65.8494 17.9766C66.5056 18.3203 67.0134 18.7943 67.3728 19.3984C67.7374 20.0026 67.9561 20.6901 68.0291 21.4609H65.6853C65.6593 21.0026 65.5681 20.6146 65.4119 20.2969C65.2556 19.974 65.0186 19.7318 64.7009 19.5703C64.3884 19.4036 63.9718 19.3203 63.4509 19.3203C63.0603 19.3203 62.7192 19.3932 62.4275 19.5391C62.1358 19.6849 61.891 19.9062 61.6931 20.2031C61.4952 20.5 61.3468 20.875 61.2478 21.3281C61.1541 21.776 61.1072 22.3021 61.1072 22.9062V23.7109C61.1072 24.2995 61.1514 24.8177 61.24 25.2656C61.3285 25.7083 61.4639 26.0833 61.6462 26.3906C61.8337 26.6927 62.0733 26.9219 62.365 27.0781C62.6619 27.2292 63.0186 27.3047 63.4353 27.3047C63.9249 27.3047 64.3285 27.2266 64.6462 27.0703C64.9639 26.9141 65.2061 26.6823 65.3728 26.375C65.5447 26.0677 65.6462 25.6849 65.6775 25.2266Z" fill="black"/>
<path d="M74.8175 19.5703L71.7237 29H69.2316L73.4581 17.625H75.0441L74.8175 19.5703ZM77.3878 29L74.2862 19.5703L74.0362 17.625H75.6378L79.8878 29H77.3878ZM77.2472 24.7656V26.6016H71.2394V24.7656H77.2472Z" fill="black"/>
<path d="M81.5825 17.625H85.8247C86.6945 17.625 87.4419 17.7552 88.0669 18.0156C88.6971 18.276 89.1814 18.6615 89.52 19.1719C89.8585 19.6823 90.0278 20.3099 90.0278 21.0547C90.0278 21.6641 89.9236 22.1875 89.7153 22.625C89.5122 23.0573 89.2231 23.4193 88.8481 23.7109C88.4783 23.9974 88.0434 24.2266 87.5434 24.3984L86.8012 24.7891H83.1137L83.0981 22.9609H85.8403C86.2518 22.9609 86.5929 22.888 86.8637 22.7422C87.1346 22.5964 87.3377 22.3932 87.4731 22.1328C87.6137 21.8724 87.6841 21.5703 87.6841 21.2266C87.6841 20.862 87.6163 20.5469 87.4809 20.2812C87.3455 20.0156 87.1398 19.8125 86.8637 19.6719C86.5877 19.5312 86.2413 19.4609 85.8247 19.4609H83.9262V29H81.5825V17.625ZM87.9419 29L85.3481 23.9297L87.8247 23.9141L90.4497 28.8906V29H87.9419Z" fill="black"/>
<path d="M96.9256 24.0078H94.0037L93.9881 22.3984H96.4412C96.8735 22.3984 97.2277 22.3438 97.5037 22.2344C97.7798 22.1198 97.9855 21.9557 98.1209 21.7422C98.2616 21.5234 98.3319 21.2578 98.3319 20.9453C98.3319 20.5911 98.2642 20.3047 98.1287 20.0859C97.9985 19.8672 97.7928 19.7083 97.5116 19.6094C97.2355 19.5104 96.8787 19.4609 96.4412 19.4609H94.8162V29H92.4725V17.625H96.4412C97.1027 17.625 97.6938 17.6875 98.2147 17.8125C98.7407 17.9375 99.186 18.1276 99.5506 18.3828C99.9152 18.638 100.194 18.9609 100.387 19.3516C100.579 19.737 100.676 20.1953 100.676 20.7266C100.676 21.1953 100.569 21.6276 100.355 22.0234C100.147 22.4193 99.8162 22.7422 99.3631 22.9922C98.9152 23.2422 98.3293 23.3802 97.6053 23.4062L96.9256 24.0078ZM96.8241 29H93.3631L94.2772 27.1719H96.8241C97.2355 27.1719 97.5714 27.1068 97.8319 26.9766C98.0923 26.8411 98.285 26.6589 98.41 26.4297C98.535 26.2005 98.5975 25.9375 98.5975 25.6406C98.5975 25.3073 98.5402 25.0182 98.4256 24.7734C98.3162 24.5286 98.1392 24.3411 97.8944 24.2109C97.6496 24.0755 97.3267 24.0078 96.9256 24.0078H94.6678L94.6834 22.3984H97.4959L98.035 23.0312C98.7277 23.0208 99.285 23.1432 99.7069 23.3984C100.134 23.6484 100.444 23.974 100.637 24.375C100.834 24.776 100.933 25.2057 100.933 25.6641C100.933 26.3932 100.775 27.0078 100.457 27.5078C100.139 28.0026 99.673 28.375 99.0584 28.625C98.4491 28.875 97.7043 29 96.8241 29Z" fill="black"/>
<path d="M112.675 23.0469V23.5859C112.675 24.4505 112.558 25.2266 112.323 25.9141C112.089 26.6016 111.758 27.1875 111.331 27.6719C110.904 28.151 110.394 28.5182 109.8 28.7734C109.211 29.0286 108.558 29.1562 107.839 29.1562C107.126 29.1562 106.472 29.0286 105.878 28.7734C105.29 28.5182 104.779 28.151 104.347 27.6719C103.915 27.1875 103.579 26.6016 103.339 25.9141C103.105 25.2266 102.987 24.4505 102.987 23.5859V23.0469C102.987 22.1771 103.105 21.401 103.339 20.7188C103.573 20.0312 103.904 19.4453 104.331 18.9609C104.764 18.4766 105.274 18.1068 105.862 17.8516C106.456 17.5964 107.11 17.4688 107.823 17.4688C108.542 17.4688 109.196 17.5964 109.784 17.8516C110.378 18.1068 110.889 18.4766 111.316 18.9609C111.748 19.4453 112.081 20.0312 112.316 20.7188C112.555 21.401 112.675 22.1771 112.675 23.0469ZM110.308 23.5859V23.0312C110.308 22.4271 110.253 21.8958 110.144 21.4375C110.034 20.9792 109.873 20.5938 109.659 20.2812C109.446 19.9688 109.185 19.7344 108.878 19.5781C108.571 19.4167 108.219 19.3359 107.823 19.3359C107.428 19.3359 107.076 19.4167 106.769 19.5781C106.467 19.7344 106.209 19.9688 105.995 20.2812C105.787 20.5938 105.628 20.9792 105.519 21.4375C105.409 21.8958 105.355 22.4271 105.355 23.0312V23.5859C105.355 24.1849 105.409 24.7161 105.519 25.1797C105.628 25.638 105.79 26.026 106.003 26.3438C106.217 26.6562 106.477 26.8932 106.784 27.0547C107.092 27.2161 107.443 27.2969 107.839 27.2969C108.235 27.2969 108.586 27.2161 108.894 27.0547C109.201 26.8932 109.459 26.6562 109.667 26.3438C109.876 26.026 110.034 25.638 110.144 25.1797C110.253 24.7161 110.308 24.1849 110.308 23.5859Z" fill="black"/>
<path d="M124.26 17.625V29H121.917L117.346 21.375V29H115.002V17.625H117.346L121.924 25.2578V17.625H124.26Z" fill="black"/>
<path d="M133.907 17.625V29H131.564V17.625H133.907ZM140.72 17.625L136.212 23.2422L133.611 26.0391L133.189 23.8203L134.947 21.4141L137.845 17.625H140.72ZM138.056 29L134.704 23.7422L136.439 22.2891L140.829 29H138.056Z" fill="black"/>
<path d="M151.633 17.625V29H149.29L144.719 21.375V29H142.376V17.625H144.719L149.297 25.2578V17.625H151.633Z" fill="black"/>
<path d="M163.656 23.0469V23.5859C163.656 24.4505 163.539 25.2266 163.305 25.9141C163.07 26.6016 162.74 27.1875 162.312 27.6719C161.885 28.151 161.375 28.5182 160.781 28.7734C160.193 29.0286 159.539 29.1562 158.82 29.1562C158.107 29.1562 157.453 29.0286 156.859 28.7734C156.271 28.5182 155.76 28.151 155.328 27.6719C154.896 27.1875 154.56 26.6016 154.32 25.9141C154.086 25.2266 153.969 24.4505 153.969 23.5859V23.0469C153.969 22.1771 154.086 21.401 154.32 20.7188C154.555 20.0312 154.885 19.4453 155.312 18.9609C155.745 18.4766 156.255 18.1068 156.844 17.8516C157.437 17.5964 158.091 17.4688 158.805 17.4688C159.523 17.4688 160.177 17.5964 160.766 17.8516C161.359 18.1068 161.87 18.4766 162.297 18.9609C162.729 19.4453 163.062 20.0312 163.297 20.7188C163.536 21.401 163.656 22.1771 163.656 23.0469ZM161.289 23.5859V23.0312C161.289 22.4271 161.234 21.8958 161.125 21.4375C161.016 20.9792 160.854 20.5938 160.641 20.2812C160.427 19.9688 160.167 19.7344 159.859 19.5781C159.552 19.4167 159.201 19.3359 158.805 19.3359C158.409 19.3359 158.057 19.4167 157.75 19.5781C157.448 19.7344 157.19 19.9688 156.977 20.2812C156.768 20.5938 156.609 20.9792 156.5 21.4375C156.391 21.8958 156.336 22.4271 156.336 23.0312V23.5859C156.336 24.1849 156.391 24.7161 156.5 25.1797C156.609 25.638 156.771 26.026 156.984 26.3438C157.198 26.6562 157.458 26.8932 157.766 27.0547C158.073 27.2161 158.424 27.2969 158.82 27.2969C159.216 27.2969 159.568 27.2161 159.875 27.0547C160.182 26.8932 160.44 26.6562 160.648 26.3438C160.857 26.026 161.016 25.638 161.125 25.1797C161.234 24.7161 161.289 24.1849 161.289 23.5859Z" fill="black"/>
<path d="M168.726 27.1953L170.992 17.625H172.257L172.546 19.2188L170.132 29H168.773L168.726 27.1953ZM167.562 17.625L169.437 27.1953L169.281 29H167.765L165.242 17.625H167.562ZM174.538 27.1562L176.39 17.625H178.71L176.195 29H174.679L174.538 27.1562ZM172.968 17.625L175.249 27.2344L175.187 29H173.827L171.398 19.2109L171.71 17.625H172.968Z" fill="black"/>
<path d="M187.936 27.1719V29H182.21V27.1719H187.936ZM182.967 17.625V29H180.624V17.625H182.967Z" fill="black"/>
<path d="M197.553 27.1719V29H191.498V27.1719H197.553ZM192.264 17.625V29H189.92V17.625H192.264ZM196.764 22.2578V24.0391H191.498V22.2578H196.764ZM197.545 17.625V19.4609H191.498V17.625H197.545Z" fill="black"/>
<path d="M203.052 29H200.576L200.591 27.1719H203.052C203.667 27.1719 204.185 27.0339 204.607 26.7578C205.029 26.4766 205.346 26.0677 205.56 25.5312C205.779 24.9948 205.888 24.3464 205.888 23.5859V23.0312C205.888 22.4479 205.826 21.9349 205.701 21.4922C205.581 21.0495 205.401 20.6771 205.162 20.375C204.922 20.0729 204.628 19.8464 204.279 19.6953C203.93 19.5391 203.529 19.4609 203.076 19.4609H200.529V17.625H203.076C203.836 17.625 204.531 17.7552 205.162 18.0156C205.797 18.2708 206.346 18.638 206.81 19.1172C207.274 19.5964 207.63 20.1693 207.88 20.8359C208.136 21.4974 208.263 22.2344 208.263 23.0469V23.5859C208.263 24.3932 208.136 25.1302 207.88 25.7969C207.63 26.4635 207.274 27.0365 206.81 27.5156C206.352 27.9896 205.802 28.3568 205.162 28.6172C204.526 28.8724 203.823 29 203.052 29ZM201.904 17.625V29H199.56V17.625H201.904Z" fill="black"/>
<path d="M219.622 23.0547V27.5625C219.445 27.776 219.171 28.0078 218.802 28.2578C218.432 28.5026 217.955 28.7135 217.372 28.8906C216.789 29.0677 216.083 29.1562 215.255 29.1562C214.52 29.1562 213.851 29.0365 213.247 28.7969C212.643 28.5521 212.122 28.1953 211.684 27.7266C211.252 27.2578 210.919 26.6849 210.684 26.0078C210.45 25.3255 210.333 24.5469 210.333 23.6719V22.9609C210.333 22.0859 210.445 21.3073 210.669 20.625C210.898 19.9427 211.223 19.3672 211.645 18.8984C212.067 18.4297 212.57 18.0729 213.153 17.8281C213.736 17.5833 214.385 17.4609 215.098 17.4609C216.088 17.4609 216.901 17.6224 217.536 17.9453C218.171 18.263 218.656 18.7057 218.989 19.2734C219.328 19.8359 219.536 20.4818 219.614 21.2109H217.341C217.283 20.8255 217.174 20.4896 217.012 20.2031C216.851 19.9167 216.619 19.6927 216.317 19.5312C216.02 19.3698 215.635 19.2891 215.161 19.2891C214.77 19.2891 214.421 19.3698 214.114 19.5312C213.812 19.6875 213.557 19.9193 213.348 20.2266C213.14 20.5339 212.981 20.9141 212.872 21.3672C212.762 21.8203 212.708 22.3464 212.708 22.9453V23.6719C212.708 24.2656 212.765 24.7917 212.88 25.25C212.994 25.7031 213.164 26.0859 213.387 26.3984C213.617 26.7057 213.898 26.9375 214.231 27.0938C214.565 27.25 214.953 27.3281 215.395 27.3281C215.765 27.3281 216.072 27.2969 216.317 27.2344C216.567 27.1719 216.768 27.0964 216.919 27.0078C217.075 26.9141 217.195 26.8255 217.278 26.7422V24.7266H215.137V23.0547H219.622Z" fill="black"/>
<path d="M229.785 27.1719V29H223.731V27.1719H229.785ZM224.496 17.625V29H222.152V17.625H224.496ZM228.996 22.2578V24.0391H223.731V22.2578H228.996ZM229.777 17.625V19.4609H223.731V17.625H229.777Z" fill="black"/>
<path d="M244.003 22.2578V24.0859H238.065V22.2578H244.003ZM238.761 17.625V29H236.417V17.625H238.761ZM245.675 17.625V29H243.339V17.625H245.675Z" fill="black"/>
<path d="M254.635 17.625H256.971V25.1406C256.971 26.0156 256.783 26.7526 256.408 27.3516C256.039 27.9505 255.526 28.401 254.869 28.7031C254.218 29.0052 253.468 29.1562 252.619 29.1562C251.77 29.1562 251.015 29.0052 250.354 28.7031C249.697 28.401 249.182 27.9505 248.807 27.3516C248.437 26.7526 248.252 26.0156 248.252 25.1406V17.625H250.596V25.1406C250.596 25.651 250.677 26.0677 250.838 26.3906C251 26.7135 251.231 26.9505 251.533 27.1016C251.841 27.2526 252.203 27.3281 252.619 27.3281C253.046 27.3281 253.408 27.2526 253.705 27.1016C254.007 26.9505 254.237 26.7135 254.393 26.3906C254.554 26.0677 254.635 25.651 254.635 25.1406V17.625Z" fill="black"/>
<path d="M263.994 24.0078H261.072L261.056 22.3984H263.509C263.942 22.3984 264.296 22.3438 264.572 22.2344C264.848 22.1198 265.054 21.9557 265.189 21.7422C265.33 21.5234 265.4 21.2578 265.4 20.9453C265.4 20.5911 265.332 20.3047 265.197 20.0859C265.067 19.8672 264.861 19.7083 264.58 19.6094C264.304 19.5104 263.947 19.4609 263.509 19.4609H261.884V29H259.541V17.625H263.509C264.171 17.625 264.762 17.6875 265.283 17.8125C265.809 17.9375 266.254 18.1276 266.619 18.3828C266.983 18.638 267.262 18.9609 267.455 19.3516C267.647 19.737 267.744 20.1953 267.744 20.7266C267.744 21.1953 267.637 21.6276 267.423 22.0234C267.215 22.4193 266.884 22.7422 266.431 22.9922C265.983 23.2422 265.397 23.3802 264.673 23.4062L263.994 24.0078ZM263.892 29H260.431L261.345 27.1719H263.892C264.304 27.1719 264.64 27.1068 264.9 26.9766C265.16 26.8411 265.353 26.6589 265.478 26.4297C265.603 26.2005 265.666 25.9375 265.666 25.6406C265.666 25.3073 265.608 25.0182 265.494 24.7734C265.384 24.5286 265.207 24.3411 264.962 24.2109C264.718 24.0755 264.395 24.0078 263.994 24.0078H261.736L261.752 22.3984H264.564L265.103 23.0312C265.796 23.0208 266.353 23.1432 266.775 23.3984C267.202 23.6484 267.512 23.974 267.705 24.375C267.903 24.776 268.002 25.2057 268.002 25.6641C268.002 26.3932 267.843 27.0078 267.525 27.5078C267.207 28.0026 266.741 28.375 266.127 28.625C265.517 28.875 264.772 29 263.892 29Z" fill="black"/>
<defs>
<clipPath id="clip0_1425_38">
<rect width="97.4733" height="14" fill="white" transform="translate(76.0681 35)"/>
</clipPath>
</defs>
</svg>
