<svg width="696" height="522" viewBox="0 0 696 522" fill="none" xmlns="http://www.w3.org/2000/svg">
<g clip-path="url(#clip0_1496_540)">
<path d="M477.718 342.029C472.759 346.988 453.96 336.228 435.73 317.998C417.499 299.767 406.739 280.968 411.698 276.01" stroke="#005174" stroke-width="4" stroke-linejoin="round"/>
<path d="M558.268 374.232L500.768 316.732C500.3 316.262 499.665 316 499 316H464C463.335 316 462.7 316.262 462.233 316.732L449.732 329.233C449.262 329.7 449 330.337 449 331V366C449 366.662 449.262 367.3 449.732 367.768L507.232 425.268C507.72 425.755 508.36 426 509 426C509.64 426 510.28 425.755 510.768 425.268L558.268 377.768C559.245 376.79 559.245 375.21 558.268 374.232ZM476.5 351C472.358 351 469 347.642 469 343.5C469 339.358 472.358 336 476.5 336C480.642 336 484 339.358 484 343.5C484 347.642 480.642 351 476.5 351Z" fill="#ECECF4" stroke="#00232E" stroke-width="16"/>
<path d="M558.268 374.232L500.768 316.732C500.3 316.262 499.665 316 499 316H464C463.335 316 462.7 316.262 462.233 316.732L449.732 329.233C449.262 329.7 449 330.337 449 331V366C449 366.662 449.262 367.3 449.732 367.768L507.232 425.268C507.72 425.755 508.36 426 509 426C509.64 426 510.28 425.755 510.768 425.268L558.268 377.768C559.245 376.79 559.245 375.21 558.268 374.232ZM476.5 351C472.358 351 469 347.642 469 343.5C469 339.358 472.358 336 476.5 336C480.642 336 484 339.358 484 343.5C484 347.642 480.642 351 476.5 351Z" fill="#ECECF4" stroke="#046A96" stroke-width="5"/>
<path d="M476.5 356C469.608 356 464 350.392 464 343.5C464 336.608 469.608 331 476.5 331C483.392 331 489 336.608 489 343.5C489 350.392 483.392 356 476.5 356ZM476.5 336C472.365 336 469 339.365 469 343.5C469 347.635 472.365 351 476.5 351C480.635 351 484 347.635 484 343.5C484 339.365 480.635 336 476.5 336Z" fill="#6CB9E4"/>
<g clip-path="url(#clip1_1496_540)">
<path d="M498.395 366.393L519.608 387.606" stroke="#01B69B" stroke-width="4" stroke-linecap="round" stroke-linejoin="round"/>
<path d="M506.879 364.979C502.625 366.382 494.206 373.52 499.101 378.414C504.086 383.399 513.25 369.936 518.9 375.586C523.69 380.376 515.342 388.195 510.415 389.728" stroke="#01B69B" stroke-width="4" stroke-linecap="round" stroke-linejoin="round"/>
</g>
<circle cx="350" cy="220" r="110" fill="#0984B9" stroke="#00232E" stroke-width="16"/>
<circle cx="350" cy="220" r="110" fill="#0984B9" stroke="#005174" stroke-width="6"/>
<circle cx="411.5" cy="276.5" r="8.5" fill="#00232E"/>
<path d="M477.227 342.52C482.185 337.561 471.426 318.762 453.195 300.532C434.964 282.301 416.166 271.541 411.207 276.5" stroke="#005174" stroke-width="4" stroke-linejoin="round"/>
<path d="M393.375 250.75C405.625 249.656 415.25 239.156 415.25 226.688C415.25 214 405.625 203.719 393.156 202.625C390.969 180.531 372.375 163.25 349.625 163.25C329.938 163.25 313.312 176.375 307.844 194.313C294.281 196.5 284 208.094 284 222.312C284 237.188 295.594 249.656 310.25 250.75H393.375Z" fill="#ECECF4" stroke="#00232E" stroke-width="4" stroke-miterlimit="10" stroke-linecap="square"/>
<path d="M336.99 220.519H331.764C331.669 219.843 331.474 219.242 331.18 218.717C330.885 218.184 330.507 217.731 330.046 217.357C329.585 216.983 329.052 216.697 328.447 216.498C327.851 216.299 327.202 216.199 326.502 216.199C325.238 216.199 324.136 216.514 323.197 217.142C322.259 217.762 321.531 218.669 321.014 219.862C320.497 221.048 320.238 222.487 320.238 224.182C320.238 225.924 320.497 227.387 321.014 228.573C321.539 229.758 322.27 230.653 323.209 231.257C324.148 231.862 325.234 232.164 326.466 232.164C327.159 232.164 327.799 232.073 328.388 231.89C328.984 231.707 329.513 231.44 329.974 231.09C330.436 230.732 330.818 230.299 331.12 229.79C331.43 229.281 331.645 228.7 331.764 228.048L336.99 228.072C336.855 229.193 336.517 230.275 335.976 231.317C335.443 232.351 334.723 233.278 333.816 234.097C332.918 234.908 331.844 235.553 330.595 236.03C329.354 236.499 327.95 236.734 326.383 236.734C324.203 236.734 322.255 236.241 320.536 235.255C318.826 234.268 317.474 232.84 316.48 230.971C315.493 229.102 315 226.839 315 224.182C315 221.517 315.501 219.25 316.503 217.381C317.506 215.511 318.866 214.087 320.584 213.109C322.302 212.123 324.235 211.63 326.383 211.63C327.799 211.63 329.111 211.828 330.32 212.226C331.538 212.624 332.615 213.205 333.554 213.968C334.493 214.724 335.256 215.651 335.845 216.748C336.441 217.846 336.823 219.103 336.99 220.519Z" fill="#00232E"/>
<path d="M363.151 224.182C363.151 226.847 362.646 229.114 361.636 230.983C360.633 232.852 359.265 234.28 357.531 235.266C355.805 236.245 353.864 236.734 351.708 236.734C349.537 236.734 347.588 236.241 345.862 235.255C344.136 234.268 342.771 232.84 341.769 230.971C340.767 229.102 340.266 226.839 340.266 224.182C340.266 221.517 340.767 219.25 341.769 217.381C342.771 215.511 344.136 214.087 345.862 213.109C347.588 212.123 349.537 211.63 351.708 211.63C353.864 211.63 355.805 212.123 357.531 213.109C359.265 214.087 360.633 215.511 361.636 217.381C362.646 219.25 363.151 221.517 363.151 224.182ZM357.913 224.182C357.913 222.456 357.654 221 357.137 219.815C356.628 218.63 355.908 217.731 354.978 217.118C354.047 216.506 352.957 216.199 351.708 216.199C350.459 216.199 349.37 216.506 348.439 217.118C347.508 217.731 346.784 218.63 346.267 219.815C345.758 221 345.504 222.456 345.504 224.182C345.504 225.908 345.758 227.364 346.267 228.549C346.784 229.734 347.508 230.633 348.439 231.245C349.37 231.858 350.459 232.164 351.708 232.164C352.957 232.164 354.047 231.858 354.978 231.245C355.908 230.633 356.628 229.734 357.137 228.549C357.654 227.364 357.913 225.908 357.913 224.182Z" fill="#00232E"/>
<path d="M366.835 236.4V232.677L375.533 224.623C376.273 223.907 376.893 223.263 377.394 222.69C377.904 222.118 378.289 221.557 378.552 221.008C378.814 220.451 378.946 219.851 378.946 219.206C378.946 218.49 378.783 217.874 378.456 217.357C378.13 216.832 377.685 216.43 377.12 216.152C376.555 215.865 375.915 215.722 375.199 215.722C374.451 215.722 373.799 215.873 373.242 216.176C372.685 216.478 372.256 216.911 371.954 217.476C371.651 218.041 371.5 218.713 371.5 219.493H366.596C366.596 217.894 366.958 216.506 367.682 215.328C368.406 214.151 369.42 213.24 370.725 212.596C372.029 211.952 373.533 211.63 375.235 211.63C376.985 211.63 378.508 211.94 379.805 212.56C381.109 213.173 382.123 214.024 382.847 215.114C383.571 216.203 383.933 217.452 383.933 218.86C383.933 219.783 383.75 220.694 383.384 221.593C383.026 222.491 382.386 223.49 381.463 224.587C380.54 225.677 379.24 226.986 377.562 228.513L373.994 232.009V232.176H384.255V236.4H366.835Z" fill="#00232E"/>
<path d="M112.6 91.9H119.402V82.6H112.6V91.9ZM114.4 84.4H117.597V90.1H114.4V84.4ZM122.6 91.9H129.402V75.1H122.6V91.9ZM124.4 76.9H127.597V90.1H124.4V76.9ZM139.4 67.6H132.6V91.9H139.402L139.4 67.6ZM137.6 90.1H134.4V69.4H137.597L137.6 90.1ZM143.5 95.1H106.9V76.9H118.5V75.1H106.9V59.51C111.49 60.0625 115.872 64.2825 119.042 71.3675L120.682 70.6325C118.525 65.81 115.787 62.23 112.757 60.0425C118.247 61.0625 123.42 63.305 127.965 66.72L129.045 65.2825C122.36 60.2575 114.39 57.6 106 57.6C105.975 57.6 105.95 57.605 105.925 57.605C105.912 57.605 105.9 57.6 105.887 57.6C105.847 57.6 105.81 57.61 105.77 57.6125C84.7021 57.7375 67.5996 74.9025 67.5996 96C67.5996 96.4975 68.0021 96.9 68.4996 96.9H105.1V132.5C100.462 132.005 96.0321 127.765 92.8346 120.612L91.1921 121.345C93.3321 126.137 96.0471 129.702 99.0496 131.9C91.1821 130.375 83.9471 126.322 78.5571 120.217L77.2071 121.41C84.4971 129.665 94.9921 134.4 106 134.4C127.175 134.4 144.4 117.172 144.4 96C144.4 95.5025 143.997 95.1 143.5 95.1ZM123.827 96.9C123.747 103.562 122.795 109.772 121.197 115.1H106.9V96.9H123.827ZM106.9 116.9H120.632C117.565 125.9 112.58 131.92 106.9 132.505V116.9ZM105.1 75.1H91.2546C94.3421 66.04 99.3746 59.9975 105.1 59.48V75.1ZM98.9546 60.115C95.0221 63.0275 91.6896 68.31 89.4246 75.1H75.9846C81.3196 67.465 89.4896 61.9725 98.9546 60.115ZM74.8346 76.9H88.8646C87.2746 82.2875 86.3396 88.485 86.2596 95.1H69.4096C69.5721 88.435 71.5571 82.23 74.8346 76.9ZM88.0596 95.1C88.1396 88.4375 89.0921 82.2275 90.6896 76.9H105.1V95.1H88.0596ZM112.9 131.91C116.847 129.005 120.192 123.71 122.462 116.9H136.012C130.652 124.575 122.425 130.082 112.9 131.91ZM137.165 115.1H123.022C124.612 109.712 125.547 103.515 125.627 96.9H142.59C142.427 103.565 140.442 109.77 137.165 115.1ZM101.9 116V101C101.9 100.502 101.497 100.1 101 100.1H70.9996C70.5021 100.1 70.0996 100.502 70.0996 101V116C70.0996 116.497 70.5021 116.9 70.9996 116.9H101C101.497 116.9 101.9 116.497 101.9 116ZM95.1921 115.1H76.8071C76.4146 112.57 74.4271 110.582 71.8971 110.19V106.81C74.4271 106.417 76.4146 104.43 76.8071 101.9H95.1896C95.5821 104.43 97.5696 106.417 100.1 106.81V110.19C97.5721 110.582 95.5821 112.57 95.1921 115.1ZM100.1 104.992C98.5621 104.645 97.3521 103.437 97.0071 101.9H100.1V104.992ZM74.9921 101.9C74.6446 103.437 73.4346 104.645 71.8996 104.992V101.9H74.9921ZM71.8996 112.007C73.4371 112.355 74.6471 113.562 74.9921 115.1H71.8996V112.007ZM97.0071 115.1C97.3546 113.562 98.5646 112.355 100.1 112.007V115.1H97.0071ZM85.9996 105.1C84.1246 105.1 82.5996 106.625 82.5996 108.5C82.5996 110.375 84.1246 111.9 85.9996 111.9C87.8746 111.9 89.3996 110.375 89.3996 108.5C89.3996 106.625 87.8746 105.1 85.9996 105.1ZM85.9996 110.1C85.1171 110.1 84.3996 109.382 84.3996 108.5C84.3996 107.617 85.1171 106.9 85.9996 106.9C86.8821 106.9 87.5996 107.617 87.5996 108.5C87.5996 109.382 86.8821 110.1 85.9996 110.1ZM75.9996 107.6H78.4996V109.402H75.9996V107.6ZM93.4996 107.6H95.9996V109.402H93.4996V107.6Z" fill="#0D9DDB"/>
<path d="M415.6 468.9H422.402V459.6H415.6V468.9ZM417.4 461.4H420.597V467.1H417.4V461.4ZM425.6 468.9H432.402V452.1H425.6V468.9ZM427.4 453.9H430.597V467.1H427.4V453.9ZM442.4 444.6H435.6V468.9H442.402L442.4 444.6ZM440.6 467.1H437.4V446.4H440.597L440.6 467.1ZM446.5 472.1H409.9V453.9H421.5V452.1H409.9V436.51C414.49 437.063 418.872 441.283 422.042 448.368L423.682 447.633C421.525 442.81 418.787 439.23 415.757 437.043C421.247 438.063 426.42 440.305 430.965 443.72L432.045 442.283C425.36 437.258 417.39 434.6 409 434.6C408.975 434.6 408.95 434.605 408.925 434.605C408.912 434.605 408.9 434.6 408.887 434.6C408.847 434.6 408.81 434.61 408.77 434.613C387.702 434.738 370.6 451.903 370.6 473C370.6 473.498 371.002 473.9 371.5 473.9H408.1V509.5C403.462 509.005 399.032 504.765 395.835 497.613L394.192 498.345C396.332 503.138 399.047 506.703 402.05 508.9C394.182 507.375 386.947 503.323 381.557 497.218L380.207 498.41C387.497 506.665 397.992 511.4 409 511.4C430.175 511.4 447.4 494.173 447.4 473C447.4 472.503 446.997 472.1 446.5 472.1ZM426.827 473.9C426.747 480.563 425.795 486.773 424.197 492.1H409.9V473.9H426.827ZM409.9 493.9H423.632C420.565 502.9 415.58 508.92 409.9 509.505V493.9ZM408.1 452.1H394.255C397.342 443.04 402.375 436.998 408.1 436.48V452.1ZM401.955 437.115C398.022 440.028 394.69 445.31 392.425 452.1H378.985C384.32 444.465 392.49 438.973 401.955 437.115ZM377.835 453.9H391.865C390.275 459.288 389.34 465.485 389.26 472.1H372.41C372.572 465.435 374.557 459.23 377.835 453.9ZM391.06 472.1C391.14 465.438 392.092 459.228 393.69 453.9H408.1V472.1H391.06ZM415.9 508.91C419.847 506.005 423.192 500.71 425.462 493.9H439.012C433.652 501.575 425.425 507.083 415.9 508.91ZM440.165 492.1H426.022C427.612 486.713 428.547 480.515 428.627 473.9H445.59C445.427 480.565 443.442 486.77 440.165 492.1ZM404.9 493V478C404.9 477.503 404.497 477.1 404 477.1H374C373.502 477.1 373.1 477.503 373.1 478V493C373.1 493.498 373.502 493.9 374 493.9H404C404.497 493.9 404.9 493.498 404.9 493ZM398.192 492.1H379.807C379.415 489.57 377.427 487.583 374.897 487.19V483.81C377.427 483.418 379.415 481.43 379.807 478.9H398.19C398.582 481.43 400.57 483.418 403.1 483.81V487.19C400.572 487.583 398.582 489.57 398.192 492.1ZM403.1 481.993C401.562 481.645 400.352 480.438 400.007 478.9H403.1V481.993ZM377.992 478.9C377.645 480.438 376.435 481.645 374.9 481.993V478.9H377.992ZM374.9 489.008C376.437 489.355 377.647 490.563 377.992 492.1H374.9V489.008ZM400.007 492.1C400.355 490.563 401.565 489.355 403.1 489.008V492.1H400.007ZM389 482.1C387.125 482.1 385.6 483.625 385.6 485.5C385.6 487.375 387.125 488.9 389 488.9C390.875 488.9 392.4 487.375 392.4 485.5C392.4 483.625 390.875 482.1 389 482.1ZM389 487.1C388.117 487.1 387.4 486.383 387.4 485.5C387.4 484.618 388.117 483.9 389 483.9C389.882 483.9 390.6 484.618 390.6 485.5C390.6 486.383 389.882 487.1 389 487.1ZM379 484.6H381.5V486.403H379V484.6ZM396.5 484.6H399V486.403H396.5V484.6Z" fill="#0D9DDB"/>
<path d="M168.9 323.85H179.104V309.9H168.9V323.85ZM171.6 312.6H176.397V321.15H171.6V312.6ZM183.9 323.85H194.104V298.65H183.9V323.85ZM186.6 301.35H191.397V321.15H186.6V301.35ZM209.1 287.4H198.9V323.85H209.104L209.1 287.4ZM206.4 321.15H201.6V290.1H206.397L206.4 321.15ZM215.25 328.65H160.35V301.35H177.75V298.65H160.35V275.265C167.235 276.094 173.809 282.424 178.564 293.051L181.024 291.949C177.788 284.715 173.682 279.345 169.137 276.064C177.372 277.594 185.13 280.958 191.948 286.08L193.568 283.924C183.54 276.386 171.585 272.4 159 272.4C158.963 272.4 158.925 272.408 158.888 272.408C158.869 272.408 158.85 272.4 158.832 272.4C158.772 272.4 158.715 272.415 158.655 272.419C127.054 272.606 101.4 298.354 101.4 330C101.4 330.746 102.004 331.35 102.75 331.35H157.65V384.75C150.694 384.008 144.049 377.648 139.253 366.919L136.789 368.018C139.999 375.206 144.072 380.554 148.575 383.85C136.774 381.563 125.922 375.484 117.837 366.326L115.812 368.115C126.747 380.498 142.489 387.6 159 387.6C190.763 387.6 216.6 361.759 216.6 330C216.6 329.254 215.997 328.65 215.25 328.65ZM185.742 331.35C185.622 341.344 184.193 350.659 181.797 358.65H160.35V331.35H185.742ZM160.35 361.35H180.949C176.348 374.85 168.87 383.88 160.35 384.758V361.35ZM157.65 298.65H136.883C141.514 285.06 149.063 275.996 157.65 275.22V298.65ZM148.433 276.173C142.534 280.541 137.535 288.465 134.138 298.65H113.978C121.98 287.198 134.235 278.959 148.433 276.173ZM112.253 301.35H133.298C130.913 309.431 129.51 318.728 129.39 328.65H104.115C104.359 318.653 107.337 309.345 112.253 301.35ZM132.09 328.65C132.21 318.656 133.639 309.341 136.035 301.35H157.65V328.65H132.09ZM169.35 383.865C175.272 379.508 180.289 371.565 183.694 361.35H204.019C195.979 372.863 183.638 381.124 169.35 383.865ZM205.748 358.65H184.534C186.919 350.569 188.322 341.273 188.442 331.35H213.885C213.642 341.348 210.664 350.655 205.748 358.65ZM152.85 360V337.5C152.85 336.754 152.247 336.15 151.5 336.15H106.5C105.754 336.15 105.15 336.754 105.15 337.5V360C105.15 360.746 105.754 361.35 106.5 361.35H151.5C152.247 361.35 152.85 360.746 152.85 360ZM142.789 358.65H115.212C114.623 354.855 111.642 351.874 107.847 351.285V346.215C111.642 345.626 114.623 342.645 115.212 338.85H142.785C143.374 342.645 146.355 345.626 150.15 346.215V351.285C146.359 351.874 143.374 354.855 142.789 358.65ZM150.15 343.489C147.844 342.968 146.029 341.156 145.512 338.85H150.15V343.489ZM112.489 338.85C111.968 341.156 110.153 342.968 107.85 343.489V338.85H112.489ZM107.85 354.011C110.157 354.533 111.972 356.344 112.489 358.65H107.85V354.011ZM145.512 358.65C146.033 356.344 147.848 354.533 150.15 354.011V358.65H145.512ZM129 343.65C126.188 343.65 123.9 345.938 123.9 348.75C123.9 351.563 126.188 353.85 129 353.85C131.813 353.85 134.1 351.563 134.1 348.75C134.1 345.938 131.813 343.65 129 343.65ZM129 351.15C127.677 351.15 126.6 350.074 126.6 348.75C126.6 347.426 127.677 346.35 129 346.35C130.324 346.35 131.4 347.426 131.4 348.75C131.4 350.074 130.324 351.15 129 351.15ZM114 347.4H117.75V350.104H114V347.4ZM140.25 347.4H144V350.104H140.25V347.4Z" fill="#01B69B"/>
<path d="M587.4 247.52H591.112V249.322H587.4V252.5H585.6V249.322H581.887V247.52H585.6V245.905L581.192 240.572L582.58 239.425L586.5 244.17L590.42 239.427L591.807 240.575L587.4 245.907V247.52ZM612.4 245C612.4 266.175 595.172 283.4 574 283.4C552.827 283.4 535.6 266.175 535.6 245C535.6 223.825 552.825 206.6 574 206.6C595.175 206.6 612.4 223.825 612.4 245ZM542.837 264.1H552.337C550.315 258.712 549.125 252.515 549.025 245.9H537.445C537.607 252.562 539.56 258.772 542.837 264.1ZM574.9 224.1H593.025C588.99 214.99 582.397 208.927 574.9 208.47V224.1ZM573.1 208.472C560.915 209.215 551.122 224.812 550.822 244.1H573.1V208.472ZM552.34 225.9H542.84C539.562 231.227 537.61 237.44 537.447 244.102H549.027C549.125 237.485 550.317 231.287 552.34 225.9ZM573.1 281.527V245.9H550.822C551.122 265.187 560.915 280.785 573.1 281.527ZM574.9 281.527C582.395 281.07 588.987 275.01 593.022 265.9H574.9V281.527ZM593.757 264.1C595.93 258.532 597.205 252.005 597.205 245C597.205 237.995 595.93 231.467 593.757 225.9H574.9V264.1H593.757ZM595.665 264.1H605.162C608.44 258.772 610.392 252.562 610.555 245.9H599.002V245.22C598.975 252.092 597.755 258.527 595.665 264.1ZM610.552 244.1C610.39 237.437 608.437 231.227 605.16 225.9H595.662C597.755 231.472 598.972 237.907 599 244.777V244.1H610.552ZM583.992 209.822C588.49 212.847 592.292 217.845 594.95 224.1H604.002C599.232 217.272 592.197 212.157 583.992 209.822ZM543.995 224.1H553.05C555.705 217.842 559.51 212.845 564.007 209.82C555.802 212.155 548.767 217.27 543.995 224.1ZM564.005 280.177C559.51 277.152 555.707 272.157 553.052 265.902H543.997C548.767 272.727 555.8 277.842 564.005 280.177ZM604.002 265.9H594.95C592.295 272.155 588.492 277.15 583.997 280.175C592.2 277.84 599.23 272.727 604.002 265.9ZM558.1 227.5C558.1 229.375 559.625 230.9 561.497 230.9H566.497C567.38 230.9 568.097 231.617 568.097 232.5C568.097 233.382 567.38 234.1 566.497 234.1H558.997V235.9H563.097V238.75H564.897V235.9H566.5C568.375 235.9 569.9 234.375 569.9 232.5C569.9 230.625 568.375 229.1 566.5 229.1H561.5C560.617 229.1 559.9 228.382 559.9 227.5C559.9 226.617 560.617 225.9 561.5 225.9H569V224.1H564.9V221.25H563.1V224.1H561.5C559.625 224.1 558.1 225.625 558.1 227.5ZM569 265.9V264.1H564C561.74 264.1 559.9 262.262 559.9 260V259.65H566.5V257.85H559.9V257.5C559.9 255.24 561.74 253.4 564 253.4H569V251.6H564C560.747 251.6 558.1 254.247 558.1 257.5V260C558.1 263.255 560.747 265.9 564 265.9H569Z" fill="#01B69B"/>
<path d="M648.1 71.78H653.669V74.4838H648.1V79.25H645.4V74.4838H639.832V71.78H645.4V69.3575L638.789 61.3588L640.87 59.6375L646.75 66.755L652.63 59.6413L654.712 61.3625L648.1 69.3613V71.78ZM685.6 68C685.6 99.7625 659.759 125.6 628 125.6C596.242 125.6 570.4 99.7625 570.4 68C570.4 36.2375 596.238 10.4 628 10.4C659.763 10.4 685.6 36.2375 685.6 68ZM581.257 96.65H595.507C592.473 88.5688 590.688 79.2725 590.538 69.35H573.168C573.412 79.3438 576.34 88.6588 581.257 96.65ZM629.35 36.65H656.538C650.485 22.985 640.597 13.8913 629.35 13.205V36.65ZM626.65 13.2088C608.373 14.3225 593.684 37.7188 593.234 66.65H626.65V13.2088ZM595.51 39.35H581.26C576.344 47.3413 573.415 56.66 573.172 66.6538H590.542C590.688 56.7275 592.477 47.4313 595.51 39.35ZM626.65 122.791V69.35H593.234C593.684 98.2813 608.373 121.678 626.65 122.791ZM629.35 122.791C640.593 122.105 650.482 113.015 656.534 99.35H629.35V122.791ZM657.637 96.65C660.895 88.2988 662.808 78.5075 662.808 68C662.808 57.4925 660.895 47.7013 657.637 39.35H629.35V96.65H657.637ZM660.498 96.65H674.744C679.66 88.6588 682.589 79.3438 682.833 69.35H665.504V68.33C665.463 78.6388 663.633 88.2913 660.498 96.65ZM682.829 66.65C682.585 56.6563 679.657 47.3413 674.74 39.35H660.494C663.633 47.7088 665.459 57.3613 665.5 67.6663V66.65H682.829ZM642.989 15.2338C649.735 19.7713 655.439 27.2675 659.425 36.65H673.004C665.849 26.4088 655.297 18.7363 642.989 15.2338ZM582.993 36.65H596.575C600.558 27.2638 606.265 19.7675 613.012 15.23C600.704 18.7325 590.152 26.405 582.993 36.65ZM613.008 120.766C606.265 116.229 600.562 108.736 596.579 99.3538H582.997C590.152 109.591 600.7 117.264 613.008 120.766ZM673.004 99.35H659.425C655.443 108.733 649.739 116.225 642.997 120.763C655.3 117.26 665.845 109.591 673.004 99.35ZM604.15 41.75C604.15 44.5625 606.438 46.85 609.247 46.85H616.747C618.07 46.85 619.147 47.9263 619.147 49.25C619.147 50.5738 618.07 51.65 616.747 51.65H605.497V54.35H611.647V58.625H614.347V54.35H616.75C619.563 54.35 621.85 52.0625 621.85 49.25C621.85 46.4375 619.563 44.15 616.75 44.15H609.25C607.927 44.15 606.85 43.0738 606.85 41.75C606.85 40.4263 607.927 39.35 609.25 39.35H620.5V36.65H614.35V32.375H611.65V36.65H609.25C606.438 36.65 604.15 38.9375 604.15 41.75ZM620.5 99.35V96.65H613C609.61 96.65 606.85 93.8938 606.85 90.5V89.975H616.75V87.275H606.85V86.75C606.85 83.36 609.61 80.6 613 80.6H620.5V77.9H613C608.122 77.9 604.15 81.8713 604.15 86.75V90.5C604.15 95.3825 608.122 99.35 613 99.35H620.5Z" fill="#005174"/>
<path d="M30.5996 437.9H37.4021V428.6H30.5996V437.9ZM32.3996 430.4H35.5971V436.1H32.3996V430.4ZM40.5996 437.9H47.4021V421.1H40.5996V437.9ZM42.3996 422.9H45.5971V436.1H42.3996V422.9ZM57.3996 413.6H50.5996V437.9H57.4021L57.3996 413.6ZM55.5996 436.1H52.3996V415.4H55.5971L55.5996 436.1ZM61.4996 441.1H24.8996V422.9H36.4996V421.1H24.8996V405.51C29.4896 406.063 33.8721 410.283 37.0421 417.368L38.6821 416.633C36.5246 411.81 33.7871 408.23 30.7571 406.043C36.2471 407.063 41.4196 409.305 45.9646 412.72L47.0446 411.283C40.3596 406.258 32.3896 403.6 23.9996 403.6C23.9746 403.6 23.9496 403.605 23.9246 403.605C23.9121 403.605 23.8996 403.6 23.8871 403.6C23.8471 403.6 23.8096 403.61 23.7696 403.613C2.70211 403.738 -14.4004 420.903 -14.4004 442C-14.4004 442.498 -13.9979 442.9 -13.5004 442.9H23.0996V478.5C18.4621 478.005 14.0321 473.765 10.8346 466.613L9.19211 467.345C11.3321 472.138 14.0471 475.703 17.0496 477.9C9.18211 476.375 1.94711 472.323 -3.44289 466.218L-4.79289 467.41C2.49711 475.665 12.9921 480.4 23.9996 480.4C45.1746 480.4 62.3996 463.173 62.3996 442C62.3996 441.503 61.9971 441.1 61.4996 441.1ZM41.8271 442.9C41.7471 449.563 40.7946 455.773 39.1971 461.1H24.8996V442.9H41.8271ZM24.8996 462.9H38.6321C35.5646 471.9 30.5796 477.92 24.8996 478.505V462.9ZM23.0996 421.1H9.25461C12.3421 412.04 17.3746 405.998 23.0996 405.48V421.1ZM16.9546 406.115C13.0221 409.028 9.68961 414.31 7.42461 421.1H-6.01539C-0.68039 413.465 7.48961 407.973 16.9546 406.115ZM-7.16539 422.9H6.86461C5.27461 428.288 4.33961 434.485 4.25961 441.1H-12.5904C-12.4279 434.435 -10.4429 428.23 -7.16539 422.9ZM6.05961 441.1C6.13961 434.438 7.09211 428.228 8.68961 422.9H23.0996V441.1H6.05961ZM30.8996 477.91C34.8471 475.005 38.1921 469.71 40.4621 462.9H54.0121C48.6521 470.575 40.4246 476.083 30.8996 477.91ZM55.1646 461.1H41.0221C42.6121 455.713 43.5471 449.515 43.6271 442.9H60.5896C60.4271 449.565 58.4421 455.77 55.1646 461.1ZM19.8996 462V447C19.8996 446.503 19.4971 446.1 18.9996 446.1H-11.0004C-11.4979 446.1 -11.9004 446.503 -11.9004 447V462C-11.9004 462.498 -11.4979 462.9 -11.0004 462.9H18.9996C19.4971 462.9 19.8996 462.498 19.8996 462ZM13.1921 461.1H-5.19289C-5.58539 458.57 -7.57289 456.583 -10.1029 456.19V452.81C-7.57289 452.418 -5.58539 450.43 -5.19289 447.9H13.1896C13.5821 450.43 15.5696 452.418 18.0996 452.81V456.19C15.5721 456.583 13.5821 458.57 13.1921 461.1ZM18.0996 450.993C16.5621 450.645 15.3521 449.438 15.0071 447.9H18.0996V450.993ZM-7.00789 447.9C-7.35539 449.438 -8.56539 450.645 -10.1004 450.993V447.9H-7.00789ZM-10.1004 458.008C-8.56289 458.355 -7.35289 459.563 -7.00789 461.1H-10.1004V458.008ZM15.0071 461.1C15.3546 459.563 16.5646 458.355 18.0996 458.008V461.1H15.0071ZM3.99961 451.1C2.12461 451.1 0.599609 452.625 0.599609 454.5C0.599609 456.375 2.12461 457.9 3.99961 457.9C5.87461 457.9 7.39961 456.375 7.39961 454.5C7.39961 452.625 5.87461 451.1 3.99961 451.1ZM3.99961 456.1C3.11711 456.1 2.39961 455.383 2.39961 454.5C2.39961 453.618 3.11711 452.9 3.99961 452.9C4.88211 452.9 5.59961 453.618 5.59961 454.5C5.59961 455.383 4.88211 456.1 3.99961 456.1ZM-6.00039 453.6H-3.50039V455.403H-6.00039V453.6ZM11.4996 453.6H13.9996V455.403H11.4996V453.6Z" fill="#0D9DDB"/>
</g>
<defs>
<clipPath id="clip0_1496_540">
<rect width="696" height="522" fill="white"/>
</clipPath>
<clipPath id="clip1_1496_540">
<rect width="32" height="32" fill="white" transform="translate(486.373 377) rotate(-45)"/>
</clipPath>
</defs>
</svg>
