<svg width="656" height="522" viewBox="0 0 656 522" fill="none" xmlns="http://www.w3.org/2000/svg">
<path d="M362.361 436.096L554.782 261.155" stroke="#00232E" stroke-width="6"/>
<path d="M362.361 436.096L554.782 261.155" stroke="#01B69B" stroke-width="3" stroke-dasharray="6 6"/>
<path d="M554.781 261.155L163.691 168.693" stroke="#00232E" stroke-width="6"/>
<path d="M554.781 261.155L163.691 168.693" stroke="#01B69B" stroke-width="3" stroke-dasharray="6 6"/>
<path d="M409.842 87.4725L163.688 164.945" stroke="#00232E" stroke-width="6"/>
<path d="M409.842 87.4725L163.688 164.945" stroke="#01B69B" stroke-width="3" stroke-dasharray="6 6"/>
<path d="M409.842 87.4725L554.778 261.155" stroke="#00232E" stroke-width="6"/>
<path d="M409.842 87.4725L554.778 261.155" stroke="#01B69B" stroke-width="3" stroke-dasharray="6 6"/>
<path d="M362.36 436.1L174.368 177.757" stroke="#00232E" stroke-width="6"/>
<path d="M362.36 436.096L163.693 164.945" stroke="#01B69B" stroke-width="3" stroke-dasharray="6 6"/>
<path d="M108.713 406.096L163.69 164.945" stroke="#00232E" stroke-width="6"/>
<path d="M108.713 406.096L163.69 164.945" stroke="#01B69B" stroke-width="3" stroke-dasharray="6 6"/>
<path d="M108.713 406.096L362.36 436.1" stroke="#00232E" stroke-width="6"/>
<path d="M108.713 406.096L362.36 436.2" stroke="#01B69B" stroke-width="3" stroke-dasharray="6 6"/>
<path d="M108.713 406.096L554.78 261.155" stroke="#00232E" stroke-width="12"/>
<path d="M108.713 406.096L554.78 261.155" stroke="#01B69B" stroke-width="3" stroke-dasharray="6 6"/>
<path d="M362.729 435.888L410.214 87.2646" stroke="#00232E" stroke-width="12"/>
<path d="M362.36 436.096L409.845 87.4724" stroke="#01B69B" stroke-width="3" stroke-dasharray="6 6"/>
<circle cx="163.454" cy="164.454" r="112.454" fill="#046A96" stroke="#00232E" stroke-width="4"/>
<ellipse cx="555.217" cy="261.217" rx="81.2168" ry="81.2168" fill="#046A96" stroke="#00232E" stroke-width="4"/>
<circle cx="409.472" cy="87.4724" r="67.4724" fill="#046A96" stroke="#00232E" stroke-width="4"/>
<ellipse cx="362.221" cy="436.221" rx="71.2209" ry="71.2209" fill="#046A96" stroke="#00232E" stroke-width="4"/>
<ellipse cx="107.464" cy="404.464" rx="87.4642" ry="87.4642" fill="#046A96" stroke="#00232E" stroke-width="4"/>
<g clip-path="url(#clip0_1496_499)">
<mask id="path-24-outside-1_1496_499" maskUnits="userSpaceOnUse" x="111.437" y="101.635" width="105" height="104" fill="black">
<rect fill="white" x="111.437" y="101.635" width="105" height="104"/>
<path d="M215.519 204.756H112.437V202.282H114.636V165.722C114.636 165.038 115.189 164.485 115.873 164.485H135.252V162.286C135.252 161.602 135.805 161.049 136.489 161.049H191.467C192.15 161.049 192.704 161.602 192.704 162.286V164.485H212.083C212.767 164.485 213.32 165.038 213.32 165.722V202.282H215.519V204.756ZM192.704 202.282H210.843V166.959H192.704V202.282ZM137.726 202.282H190.23V163.523H137.726V202.282ZM117.11 202.282H135.252V166.959H117.11V202.282ZM203.012 200.083H200.538V189.774H203.015L203.012 200.083ZM178.959 200.083H176.485V189.774H178.963L178.959 200.083ZM165.215 200.083H162.741V189.774H165.215V200.083ZM151.471 200.083H148.997V189.774H151.471V200.083ZM127.418 200.083H124.944V189.774H127.418V200.083ZM203.012 182.902H200.538V172.594H203.015L203.012 182.902ZM178.959 182.902H176.485V172.594H178.963L178.959 182.902ZM165.215 182.902H162.741V172.594H165.215V182.902ZM151.471 182.902H148.997V172.594H151.471V182.902ZM127.418 182.902H124.944V172.594H127.418V182.902ZM185.831 155.414H183.357V142.906H144.598V155.414H142.124V141.669C142.124 130.035 151.264 120.493 162.741 119.85V103.872C162.741 103.188 163.294 102.635 163.978 102.635H174.286C174.97 102.635 175.523 103.188 175.523 103.872V110.744C175.523 111.428 174.97 111.981 174.286 111.981H165.215V119.85C176.691 120.496 185.831 130.035 185.831 141.669V155.414ZM144.64 140.432H183.32C182.677 130.32 174.248 122.29 163.978 122.29C153.707 122.29 145.279 130.32 144.64 140.432ZM165.215 109.507H173.049V105.109H165.215V109.507ZM175.523 155.414H173.049V148.541H175.527L175.523 155.414ZM165.215 155.414H162.741V148.541H165.215V155.414ZM154.907 155.414H152.433V148.541H154.907V155.414Z"/>
</mask>
<path d="M215.519 204.756H112.437V202.282H114.636V165.722C114.636 165.038 115.189 164.485 115.873 164.485H135.252V162.286C135.252 161.602 135.805 161.049 136.489 161.049H191.467C192.15 161.049 192.704 161.602 192.704 162.286V164.485H212.083C212.767 164.485 213.32 165.038 213.32 165.722V202.282H215.519V204.756ZM192.704 202.282H210.843V166.959H192.704V202.282ZM137.726 202.282H190.23V163.523H137.726V202.282ZM117.11 202.282H135.252V166.959H117.11V202.282ZM203.012 200.083H200.538V189.774H203.015L203.012 200.083ZM178.959 200.083H176.485V189.774H178.963L178.959 200.083ZM165.215 200.083H162.741V189.774H165.215V200.083ZM151.471 200.083H148.997V189.774H151.471V200.083ZM127.418 200.083H124.944V189.774H127.418V200.083ZM203.012 182.902H200.538V172.594H203.015L203.012 182.902ZM178.959 182.902H176.485V172.594H178.963L178.959 182.902ZM165.215 182.902H162.741V172.594H165.215V182.902ZM151.471 182.902H148.997V172.594H151.471V182.902ZM127.418 182.902H124.944V172.594H127.418V182.902ZM185.831 155.414H183.357V142.906H144.598V155.414H142.124V141.669C142.124 130.035 151.264 120.493 162.741 119.85V103.872C162.741 103.188 163.294 102.635 163.978 102.635H174.286C174.97 102.635 175.523 103.188 175.523 103.872V110.744C175.523 111.428 174.97 111.981 174.286 111.981H165.215V119.85C176.691 120.496 185.831 130.035 185.831 141.669V155.414ZM144.64 140.432H183.32C182.677 130.32 174.248 122.29 163.978 122.29C153.707 122.29 145.279 130.32 144.64 140.432ZM165.215 109.507H173.049V105.109H165.215V109.507ZM175.523 155.414H173.049V148.541H175.527L175.523 155.414ZM165.215 155.414H162.741V148.541H165.215V155.414ZM154.907 155.414H152.433V148.541H154.907V155.414Z" fill="#ECECF4"/>
<path d="M215.519 204.756H112.437V202.282H114.636V165.722C114.636 165.038 115.189 164.485 115.873 164.485H135.252V162.286C135.252 161.602 135.805 161.049 136.489 161.049H191.467C192.15 161.049 192.704 161.602 192.704 162.286V164.485H212.083C212.767 164.485 213.32 165.038 213.32 165.722V202.282H215.519V204.756ZM192.704 202.282H210.843V166.959H192.704V202.282ZM137.726 202.282H190.23V163.523H137.726V202.282ZM117.11 202.282H135.252V166.959H117.11V202.282ZM203.012 200.083H200.538V189.774H203.015L203.012 200.083ZM178.959 200.083H176.485V189.774H178.963L178.959 200.083ZM165.215 200.083H162.741V189.774H165.215V200.083ZM151.471 200.083H148.997V189.774H151.471V200.083ZM127.418 200.083H124.944V189.774H127.418V200.083ZM203.012 182.902H200.538V172.594H203.015L203.012 182.902ZM178.959 182.902H176.485V172.594H178.963L178.959 182.902ZM165.215 182.902H162.741V172.594H165.215V182.902ZM151.471 182.902H148.997V172.594H151.471V182.902ZM127.418 182.902H124.944V172.594H127.418V182.902ZM185.831 155.414H183.357V142.906H144.598V155.414H142.124V141.669C142.124 130.035 151.264 120.493 162.741 119.85V103.872C162.741 103.188 163.294 102.635 163.978 102.635H174.286C174.97 102.635 175.523 103.188 175.523 103.872V110.744C175.523 111.428 174.97 111.981 174.286 111.981H165.215V119.85C176.691 120.496 185.831 130.035 185.831 141.669V155.414ZM144.64 140.432H183.32C182.677 130.32 174.248 122.29 163.978 122.29C153.707 122.29 145.279 130.32 144.64 140.432ZM165.215 109.507H173.049V105.109H165.215V109.507ZM175.523 155.414H173.049V148.541H175.527L175.523 155.414ZM165.215 155.414H162.741V148.541H165.215V155.414ZM154.907 155.414H152.433V148.541H154.907V155.414Z" stroke="#ECECF4" stroke-width="0.621955" mask="url(#path-24-outside-1_1496_499)"/>
</g>
<path d="M424.657 114.412H424.968L424.968 114.101L424.97 100.046C424.97 93.3803 420.902 87.5527 414.841 85.1883C417.128 83.4066 418.522 80.6448 418.522 77.668C418.522 73.9061 416.332 70.6474 413.16 69.0968C412.836 68.245 412.673 67.3477 412.673 66.4226C412.673 62.2517 416.065 58.8599 420.234 58.8599C424.402 58.8599 427.794 62.2535 427.794 66.4226C427.794 69.4013 426.032 72.1128 423.303 73.328L423.302 73.3282C422.918 73.5001 422.681 73.8989 422.722 74.3217C422.761 74.7426 423.066 75.089 423.475 75.1871L423.475 75.1873C429.816 76.691 434.242 82.286 434.242 88.799V102.856V103.167H434.553H435.904H436.215V102.856V88.8009C436.215 82.1349 432.147 76.3073 426.086 73.9429C428.374 72.1612 429.768 69.3994 429.768 66.4226C429.768 61.166 425.49 56.8904 420.234 56.8904C414.977 56.8904 410.7 61.166 410.7 66.4226C410.7 67.0684 410.764 67.7049 410.89 68.3271C409.654 68.0801 408.323 68.0801 407.085 68.327C407.212 67.7044 407.275 67.0679 407.275 66.4226C407.275 61.166 402.999 56.8904 397.743 56.8904C392.486 56.8904 388.211 61.166 388.211 66.4226C388.211 69.3976 389.603 72.1594 391.89 73.9411C385.831 76.3055 381.763 82.1331 381.763 88.799V102.856V103.167H382.074H383.424H383.735V102.856V88.799C383.735 82.2863 388.16 76.6915 394.5 75.1875C394.912 75.0913 395.216 74.7405 395.254 74.3208L395.254 74.3206C395.292 73.9016 395.063 73.5009 394.673 73.3279C391.944 72.1144 390.18 69.403 390.18 66.4226C390.18 62.2518 393.574 58.8599 397.743 58.8599C401.912 58.8599 405.304 62.2535 405.304 66.4226C405.304 67.3476 405.14 68.2448 404.817 69.0948C401.645 70.6437 399.454 73.9043 399.454 77.6661C399.454 80.643 400.848 83.4048 403.136 85.1865C397.076 87.5509 393.009 93.3785 393.009 100.044V114.101V114.412H393.32H394.671H394.982V114.101V100.044C394.982 93.5317 399.407 87.9369 405.747 86.4329C406.159 86.3369 406.462 85.987 406.501 85.568C406.543 85.1449 406.306 84.7456 405.921 84.5736L405.921 84.5734C403.192 83.36 401.427 80.6467 401.427 77.668C401.427 73.4972 404.821 70.1053 408.99 70.1053C413.159 70.1053 416.551 73.4989 416.551 77.668C416.551 80.6467 414.789 83.3581 412.057 84.5734L412.057 84.5736C411.672 84.7455 411.436 85.1443 411.477 85.5671C411.516 85.988 411.821 86.3344 412.229 86.4325L412.23 86.4327C418.571 87.9364 422.996 93.5314 422.996 100.044V114.101V114.412H423.307H424.657Z" fill="#ECECF4" stroke="#ECECF4" stroke-width="0.621955"/>
<path d="M377.654 464.412H377.965L377.965 464.101L377.967 450.046C377.967 443.38 373.899 437.553 367.838 435.188C370.125 433.407 371.519 430.645 371.519 427.668C371.519 423.906 369.329 420.647 366.157 419.097C365.833 418.245 365.67 417.348 365.67 416.422C365.67 412.252 369.062 408.86 373.231 408.86C377.4 408.86 380.791 412.253 380.791 416.422C380.791 419.401 379.029 422.113 376.3 423.328L376.299 423.328C375.915 423.5 375.679 423.899 375.719 424.322C375.758 424.742 376.063 425.089 376.472 425.187L376.473 425.187C382.814 426.691 387.239 432.286 387.239 438.799V452.856V453.167H387.55H388.901H389.212V452.856V438.801C389.212 432.135 385.144 426.307 379.083 423.943C381.371 422.161 382.765 419.399 382.765 416.422C382.765 411.166 378.487 406.89 373.231 406.89C367.974 406.89 363.697 411.166 363.697 416.422C363.697 417.068 363.761 417.705 363.887 418.327C362.651 418.08 361.32 418.08 360.082 418.327C360.209 417.704 360.272 417.068 360.272 416.422C360.272 411.166 355.996 406.89 350.74 406.89C345.483 406.89 341.208 411.166 341.208 416.422C341.208 419.397 342.6 422.159 344.888 423.941C338.828 426.305 334.76 432.133 334.76 438.799V452.856V453.167H335.071H336.421H336.732V452.856V438.799C336.732 432.286 341.157 426.691 347.497 425.187C347.909 425.091 348.213 424.74 348.251 424.321L348.251 424.321C348.289 423.901 348.06 423.501 347.67 423.328C344.941 422.114 343.177 419.403 343.177 416.422C343.177 412.252 346.571 408.86 350.74 408.86C354.909 408.86 358.301 412.253 358.301 416.422C358.301 417.348 358.137 418.245 357.814 419.095C354.642 420.644 352.451 423.904 352.451 427.666C352.451 430.643 353.845 433.405 356.133 435.186C350.073 437.551 346.006 443.378 346.006 450.044V464.101V464.412H346.317H347.668H347.979V464.101V450.044C347.979 443.532 352.404 437.937 358.744 436.433C359.156 436.337 359.459 435.987 359.498 435.568C359.54 435.145 359.303 434.745 358.918 434.573L358.918 434.573C356.189 433.36 354.424 430.647 354.424 427.668C354.424 423.497 357.818 420.105 361.987 420.105C366.156 420.105 369.548 423.499 369.548 427.668C369.548 430.647 367.786 433.358 365.054 434.573L365.054 434.573C364.669 434.745 364.433 435.144 364.474 435.567C364.513 435.988 364.818 436.334 365.226 436.432L365.227 436.433C371.568 437.936 375.993 443.531 375.993 450.044V464.101V464.412H376.304H377.654Z" fill="#ECECF4" stroke="#ECECF4" stroke-width="0.621955"/>
<g clip-path="url(#clip1_1496_499)">
<mask id="path-27-outside-2_1496_499" maskUnits="userSpaceOnUse" x="72.4004" y="373.404" width="69" height="69" fill="black">
<rect fill="white" x="72.4004" y="373.404" width="69" height="69"/>
<path d="M139.786 374.404H74.1876C73.7524 374.404 73.4004 374.756 73.4004 375.191V410.177C73.4004 410.612 73.7524 410.964 74.1876 410.964H139.786C140.221 410.964 140.573 410.612 140.573 410.177V375.191C140.573 374.756 140.221 374.404 139.786 374.404ZM138.999 383.067C135.249 382.691 132.286 379.728 131.907 375.978H138.999V383.067ZM138.999 384.639V400.717C134.378 401.104 130.716 404.767 130.331 409.389H83.6424C83.2598 404.767 79.5972 401.104 74.9747 400.717V384.639C79.5929 384.254 83.2532 380.594 83.6403 375.976H130.331C130.72 380.596 134.38 384.254 138.999 384.639ZM82.0681 375.978C81.6898 379.728 78.727 382.691 74.9747 383.067V375.978H82.0681ZM74.9747 402.292C78.7291 402.668 81.6942 405.635 82.0681 409.389H74.9747V402.292ZM131.907 409.389C132.281 405.635 135.246 402.668 138.999 402.292V409.389H131.907ZM106.987 378.773C99.3182 378.773 93.0798 385.011 93.0798 392.679C93.0798 400.348 99.3182 406.586 106.987 406.586C114.655 406.586 120.893 400.348 120.893 392.679C120.893 385.011 114.655 378.773 106.987 378.773ZM116.868 385.332H113.247C112.691 383.618 111.952 382.158 111.067 381.055C113.404 381.878 115.414 383.382 116.868 385.332ZM94.6935 393.467H99.6593C99.7096 395.247 99.9261 396.926 100.285 398.452H96.0952C95.2949 396.948 94.8073 395.257 94.6935 393.467ZM107.774 385.332V380.48C109.309 380.951 110.669 382.765 111.579 385.332H107.774ZM112.062 386.907C112.449 388.418 112.683 390.112 112.74 391.892H107.774V386.907H112.062ZM106.199 380.48V385.332H102.395C103.304 382.765 104.664 380.953 106.199 380.48ZM106.199 386.907V391.892H101.234C101.291 390.112 101.524 388.418 101.912 386.907H106.199ZM99.6593 391.892H94.6935C94.8073 390.101 95.2949 388.411 96.0952 386.907H100.285C99.9261 388.433 99.7096 390.112 99.6593 391.892ZM101.234 393.467H106.199V398.452H101.912C101.524 396.941 101.288 395.247 101.234 393.467ZM106.199 400.026V404.879C104.664 404.408 103.304 402.596 102.393 400.026H106.199ZM107.774 404.879V400.026H111.579C110.667 402.594 109.309 404.406 107.774 404.879ZM107.774 398.452V393.467H112.74C112.683 395.247 112.449 396.941 112.062 398.452H107.774ZM114.314 393.467H119.278C119.164 395.257 118.676 396.948 117.876 398.452H113.686C114.047 396.926 114.264 395.247 114.314 393.467ZM114.314 391.892C114.264 390.112 114.047 388.433 113.689 386.907H117.878C118.678 388.411 119.166 390.101 119.28 391.892H114.314ZM102.906 381.055C102.021 382.158 101.28 383.618 100.726 385.332H97.1054C98.5595 383.382 100.569 381.878 102.906 381.055ZM97.1054 400.026H100.726C101.28 401.741 102.021 403.201 102.906 404.303C100.569 403.481 98.5595 401.977 97.1054 400.026ZM111.067 404.303C111.952 403.201 112.694 401.741 113.247 400.026H116.868C115.414 401.977 113.404 403.481 111.067 404.303ZM84.0273 388.612C81.786 388.612 79.9602 390.438 79.9602 392.679C79.9602 394.921 81.7838 396.747 84.0273 396.747C86.2707 396.747 88.0944 394.921 88.0944 392.679C88.0944 390.438 86.2686 388.612 84.0273 388.612ZM84.0273 395.172C82.6541 395.172 81.5346 394.053 81.5346 392.679C81.5346 391.306 82.6541 390.187 84.0273 390.187C85.4005 390.187 86.52 391.306 86.52 392.679C86.52 394.053 85.4005 395.172 84.0273 395.172ZM129.946 388.612C127.705 388.612 125.879 390.436 125.879 392.679C125.879 394.923 127.705 396.747 129.946 396.747C132.187 396.747 134.013 394.923 134.013 392.679C134.013 390.436 132.187 388.612 129.946 388.612ZM129.946 395.172C128.571 395.172 127.453 394.053 127.453 392.679C127.453 391.306 128.571 390.187 129.946 390.187C131.321 390.187 132.439 391.306 132.439 392.679C132.439 394.053 131.321 395.172 129.946 395.172ZM130.692 417.084C132.203 418.597 132.2 421.059 130.692 422.573L117.428 435.913C116.619 436.72 115.554 437.24 114.423 437.385L98.6076 439.346L96.6112 441.342L95.4982 440.227L97.6848 438.041C97.8095 437.916 97.9691 437.837 98.144 437.815L114.229 435.819C115.011 435.721 115.753 435.358 116.315 434.798L129.576 421.457C130.475 420.559 130.475 419.096 129.576 418.195C128.761 417.384 127.46 417.233 126.268 418.241L112.523 429.469L112.475 429.41C111.579 430.167 110.435 430.639 109.173 430.639H98.2402V429.065H109.173C111.15 429.065 112.759 427.457 112.759 425.479C112.759 424.707 112.132 424.079 111.36 424.079H93.867C88.2715 424.079 83.7212 428.629 83.7212 434.225C83.7212 434.435 83.6381 434.636 83.4916 434.783L76.9318 441.342L75.8188 440.227L82.1512 433.895C82.3261 427.584 87.5149 422.505 93.867 422.505H111.36C113 422.505 114.334 423.839 114.334 425.479C114.334 425.66 114.299 425.831 114.281 426.006L125.262 417.034C125.846 416.54 126.793 415.945 127.947 415.945C128.982 415.945 129.955 416.349 130.692 417.084Z"/>
</mask>
<path d="M139.786 374.404H74.1876C73.7524 374.404 73.4004 374.756 73.4004 375.191V410.177C73.4004 410.612 73.7524 410.964 74.1876 410.964H139.786C140.221 410.964 140.573 410.612 140.573 410.177V375.191C140.573 374.756 140.221 374.404 139.786 374.404ZM138.999 383.067C135.249 382.691 132.286 379.728 131.907 375.978H138.999V383.067ZM138.999 384.639V400.717C134.378 401.104 130.716 404.767 130.331 409.389H83.6424C83.2598 404.767 79.5972 401.104 74.9747 400.717V384.639C79.5929 384.254 83.2532 380.594 83.6403 375.976H130.331C130.72 380.596 134.38 384.254 138.999 384.639ZM82.0681 375.978C81.6898 379.728 78.727 382.691 74.9747 383.067V375.978H82.0681ZM74.9747 402.292C78.7291 402.668 81.6942 405.635 82.0681 409.389H74.9747V402.292ZM131.907 409.389C132.281 405.635 135.246 402.668 138.999 402.292V409.389H131.907ZM106.987 378.773C99.3182 378.773 93.0798 385.011 93.0798 392.679C93.0798 400.348 99.3182 406.586 106.987 406.586C114.655 406.586 120.893 400.348 120.893 392.679C120.893 385.011 114.655 378.773 106.987 378.773ZM116.868 385.332H113.247C112.691 383.618 111.952 382.158 111.067 381.055C113.404 381.878 115.414 383.382 116.868 385.332ZM94.6935 393.467H99.6593C99.7096 395.247 99.9261 396.926 100.285 398.452H96.0952C95.2949 396.948 94.8073 395.257 94.6935 393.467ZM107.774 385.332V380.48C109.309 380.951 110.669 382.765 111.579 385.332H107.774ZM112.062 386.907C112.449 388.418 112.683 390.112 112.74 391.892H107.774V386.907H112.062ZM106.199 380.48V385.332H102.395C103.304 382.765 104.664 380.953 106.199 380.48ZM106.199 386.907V391.892H101.234C101.291 390.112 101.524 388.418 101.912 386.907H106.199ZM99.6593 391.892H94.6935C94.8073 390.101 95.2949 388.411 96.0952 386.907H100.285C99.9261 388.433 99.7096 390.112 99.6593 391.892ZM101.234 393.467H106.199V398.452H101.912C101.524 396.941 101.288 395.247 101.234 393.467ZM106.199 400.026V404.879C104.664 404.408 103.304 402.596 102.393 400.026H106.199ZM107.774 404.879V400.026H111.579C110.667 402.594 109.309 404.406 107.774 404.879ZM107.774 398.452V393.467H112.74C112.683 395.247 112.449 396.941 112.062 398.452H107.774ZM114.314 393.467H119.278C119.164 395.257 118.676 396.948 117.876 398.452H113.686C114.047 396.926 114.264 395.247 114.314 393.467ZM114.314 391.892C114.264 390.112 114.047 388.433 113.689 386.907H117.878C118.678 388.411 119.166 390.101 119.28 391.892H114.314ZM102.906 381.055C102.021 382.158 101.28 383.618 100.726 385.332H97.1054C98.5595 383.382 100.569 381.878 102.906 381.055ZM97.1054 400.026H100.726C101.28 401.741 102.021 403.201 102.906 404.303C100.569 403.481 98.5595 401.977 97.1054 400.026ZM111.067 404.303C111.952 403.201 112.694 401.741 113.247 400.026H116.868C115.414 401.977 113.404 403.481 111.067 404.303ZM84.0273 388.612C81.786 388.612 79.9602 390.438 79.9602 392.679C79.9602 394.921 81.7838 396.747 84.0273 396.747C86.2707 396.747 88.0944 394.921 88.0944 392.679C88.0944 390.438 86.2686 388.612 84.0273 388.612ZM84.0273 395.172C82.6541 395.172 81.5346 394.053 81.5346 392.679C81.5346 391.306 82.6541 390.187 84.0273 390.187C85.4005 390.187 86.52 391.306 86.52 392.679C86.52 394.053 85.4005 395.172 84.0273 395.172ZM129.946 388.612C127.705 388.612 125.879 390.436 125.879 392.679C125.879 394.923 127.705 396.747 129.946 396.747C132.187 396.747 134.013 394.923 134.013 392.679C134.013 390.436 132.187 388.612 129.946 388.612ZM129.946 395.172C128.571 395.172 127.453 394.053 127.453 392.679C127.453 391.306 128.571 390.187 129.946 390.187C131.321 390.187 132.439 391.306 132.439 392.679C132.439 394.053 131.321 395.172 129.946 395.172ZM130.692 417.084C132.203 418.597 132.2 421.059 130.692 422.573L117.428 435.913C116.619 436.72 115.554 437.24 114.423 437.385L98.6076 439.346L96.6112 441.342L95.4982 440.227L97.6848 438.041C97.8095 437.916 97.9691 437.837 98.144 437.815L114.229 435.819C115.011 435.721 115.753 435.358 116.315 434.798L129.576 421.457C130.475 420.559 130.475 419.096 129.576 418.195C128.761 417.384 127.46 417.233 126.268 418.241L112.523 429.469L112.475 429.41C111.579 430.167 110.435 430.639 109.173 430.639H98.2402V429.065H109.173C111.15 429.065 112.759 427.457 112.759 425.479C112.759 424.707 112.132 424.079 111.36 424.079H93.867C88.2715 424.079 83.7212 428.629 83.7212 434.225C83.7212 434.435 83.6381 434.636 83.4916 434.783L76.9318 441.342L75.8188 440.227L82.1512 433.895C82.3261 427.584 87.5149 422.505 93.867 422.505H111.36C113 422.505 114.334 423.839 114.334 425.479C114.334 425.66 114.299 425.831 114.281 426.006L125.262 417.034C125.846 416.54 126.793 415.945 127.947 415.945C128.982 415.945 129.955 416.349 130.692 417.084Z" fill="#ECECF4"/>
<path d="M139.786 374.404H74.1876C73.7524 374.404 73.4004 374.756 73.4004 375.191V410.177C73.4004 410.612 73.7524 410.964 74.1876 410.964H139.786C140.221 410.964 140.573 410.612 140.573 410.177V375.191C140.573 374.756 140.221 374.404 139.786 374.404ZM138.999 383.067C135.249 382.691 132.286 379.728 131.907 375.978H138.999V383.067ZM138.999 384.639V400.717C134.378 401.104 130.716 404.767 130.331 409.389H83.6424C83.2598 404.767 79.5972 401.104 74.9747 400.717V384.639C79.5929 384.254 83.2532 380.594 83.6403 375.976H130.331C130.72 380.596 134.38 384.254 138.999 384.639ZM82.0681 375.978C81.6898 379.728 78.727 382.691 74.9747 383.067V375.978H82.0681ZM74.9747 402.292C78.7291 402.668 81.6942 405.635 82.0681 409.389H74.9747V402.292ZM131.907 409.389C132.281 405.635 135.246 402.668 138.999 402.292V409.389H131.907ZM106.987 378.773C99.3182 378.773 93.0798 385.011 93.0798 392.679C93.0798 400.348 99.3182 406.586 106.987 406.586C114.655 406.586 120.893 400.348 120.893 392.679C120.893 385.011 114.655 378.773 106.987 378.773ZM116.868 385.332H113.247C112.691 383.618 111.952 382.158 111.067 381.055C113.404 381.878 115.414 383.382 116.868 385.332ZM94.6935 393.467H99.6593C99.7096 395.247 99.9261 396.926 100.285 398.452H96.0952C95.2949 396.948 94.8073 395.257 94.6935 393.467ZM107.774 385.332V380.48C109.309 380.951 110.669 382.765 111.579 385.332H107.774ZM112.062 386.907C112.449 388.418 112.683 390.112 112.74 391.892H107.774V386.907H112.062ZM106.199 380.48V385.332H102.395C103.304 382.765 104.664 380.953 106.199 380.48ZM106.199 386.907V391.892H101.234C101.291 390.112 101.524 388.418 101.912 386.907H106.199ZM99.6593 391.892H94.6935C94.8073 390.101 95.2949 388.411 96.0952 386.907H100.285C99.9261 388.433 99.7096 390.112 99.6593 391.892ZM101.234 393.467H106.199V398.452H101.912C101.524 396.941 101.288 395.247 101.234 393.467ZM106.199 400.026V404.879C104.664 404.408 103.304 402.596 102.393 400.026H106.199ZM107.774 404.879V400.026H111.579C110.667 402.594 109.309 404.406 107.774 404.879ZM107.774 398.452V393.467H112.74C112.683 395.247 112.449 396.941 112.062 398.452H107.774ZM114.314 393.467H119.278C119.164 395.257 118.676 396.948 117.876 398.452H113.686C114.047 396.926 114.264 395.247 114.314 393.467ZM114.314 391.892C114.264 390.112 114.047 388.433 113.689 386.907H117.878C118.678 388.411 119.166 390.101 119.28 391.892H114.314ZM102.906 381.055C102.021 382.158 101.28 383.618 100.726 385.332H97.1054C98.5595 383.382 100.569 381.878 102.906 381.055ZM97.1054 400.026H100.726C101.28 401.741 102.021 403.201 102.906 404.303C100.569 403.481 98.5595 401.977 97.1054 400.026ZM111.067 404.303C111.952 403.201 112.694 401.741 113.247 400.026H116.868C115.414 401.977 113.404 403.481 111.067 404.303ZM84.0273 388.612C81.786 388.612 79.9602 390.438 79.9602 392.679C79.9602 394.921 81.7838 396.747 84.0273 396.747C86.2707 396.747 88.0944 394.921 88.0944 392.679C88.0944 390.438 86.2686 388.612 84.0273 388.612ZM84.0273 395.172C82.6541 395.172 81.5346 394.053 81.5346 392.679C81.5346 391.306 82.6541 390.187 84.0273 390.187C85.4005 390.187 86.52 391.306 86.52 392.679C86.52 394.053 85.4005 395.172 84.0273 395.172ZM129.946 388.612C127.705 388.612 125.879 390.436 125.879 392.679C125.879 394.923 127.705 396.747 129.946 396.747C132.187 396.747 134.013 394.923 134.013 392.679C134.013 390.436 132.187 388.612 129.946 388.612ZM129.946 395.172C128.571 395.172 127.453 394.053 127.453 392.679C127.453 391.306 128.571 390.187 129.946 390.187C131.321 390.187 132.439 391.306 132.439 392.679C132.439 394.053 131.321 395.172 129.946 395.172ZM130.692 417.084C132.203 418.597 132.2 421.059 130.692 422.573L117.428 435.913C116.619 436.72 115.554 437.24 114.423 437.385L98.6076 439.346L96.6112 441.342L95.4982 440.227L97.6848 438.041C97.8095 437.916 97.9691 437.837 98.144 437.815L114.229 435.819C115.011 435.721 115.753 435.358 116.315 434.798L129.576 421.457C130.475 420.559 130.475 419.096 129.576 418.195C128.761 417.384 127.46 417.233 126.268 418.241L112.523 429.469L112.475 429.41C111.579 430.167 110.435 430.639 109.173 430.639H98.2402V429.065H109.173C111.15 429.065 112.759 427.457 112.759 425.479C112.759 424.707 112.132 424.079 111.36 424.079H93.867C88.2715 424.079 83.7212 428.629 83.7212 434.225C83.7212 434.435 83.6381 434.636 83.4916 434.783L76.9318 441.342L75.8188 440.227L82.1512 433.895C82.3261 427.584 87.5149 422.505 93.867 422.505H111.36C113 422.505 114.334 423.839 114.334 425.479C114.334 425.66 114.299 425.831 114.281 426.006L125.262 417.034C125.846 416.54 126.793 415.945 127.947 415.945C128.982 415.945 129.955 416.349 130.692 417.084Z" stroke="#ECECF4" stroke-width="0.621955" mask="url(#path-27-outside-2_1496_499)"/>
</g>
<g clip-path="url(#clip2_1496_499)">
<mask id="path-28-outside-3_1496_499" maskUnits="userSpaceOnUse" x="521.402" y="226.399" width="69" height="69" fill="black">
<rect fill="white" x="521.402" y="226.399" width="69" height="69"/>
<path d="M588.788 294.572H523.19C522.754 294.572 522.402 294.22 522.402 293.785V228.186C522.402 227.751 522.754 227.399 523.19 227.399H562.548C562.984 227.399 563.336 227.751 563.336 228.186V233.959H575.668C576.103 233.959 576.455 234.311 576.455 234.746V242.705H588.788C589.223 242.705 589.575 243.058 589.575 243.493V293.785C589.575 294.22 589.223 294.572 588.788 294.572ZM563.336 292.997H588V244.28H563.336V292.997ZM548.029 292.997H561.761V228.974H523.977V292.997H537.709V276.292C537.709 275.857 538.061 275.505 538.496 275.505H547.242C547.677 275.505 548.029 275.857 548.029 276.292V292.997ZM539.283 292.997H546.455V277.079H539.283V292.997ZM563.336 242.705H574.879V235.533H563.336V242.705ZM580.828 280.665H579.254V276.292H580.831L580.828 280.665ZM572.082 280.665H570.508V276.292H572.084L572.082 280.665ZM556.776 280.665H555.201V276.292H556.776V280.665ZM530.537 280.665H528.962V276.292H530.537V280.665ZM580.828 267.545H579.254V263.172H580.831L580.828 267.545ZM572.082 267.545H570.508V263.172H572.084L572.082 267.545ZM556.776 267.545H555.201V263.172H556.776V267.545ZM548.029 267.545H546.455V263.172H548.029V267.545ZM539.283 267.545H537.709V263.172H539.283V267.545ZM530.537 267.545H528.962V263.172H530.537V267.545ZM580.828 254.426H579.254V250.052H580.831L580.828 254.426ZM572.082 254.426H570.508V250.052H572.084L572.082 254.426ZM556.776 254.426H555.201V250.052H556.776V254.426ZM548.029 254.426H546.455V250.052H548.029V254.426ZM539.283 254.426H537.709V250.052H539.283V254.426ZM530.537 254.426H528.962V250.052H530.537V254.426ZM556.776 241.306H555.201V236.933H556.776V241.306ZM548.029 241.306H546.455V236.933H548.029V241.306ZM539.283 241.306H537.709V236.933H539.283V241.306ZM530.537 241.306H528.962V236.933H530.537V241.306Z"/>
</mask>
<path d="M588.788 294.572H523.19C522.754 294.572 522.402 294.22 522.402 293.785V228.186C522.402 227.751 522.754 227.399 523.19 227.399H562.548C562.984 227.399 563.336 227.751 563.336 228.186V233.959H575.668C576.103 233.959 576.455 234.311 576.455 234.746V242.705H588.788C589.223 242.705 589.575 243.058 589.575 243.493V293.785C589.575 294.22 589.223 294.572 588.788 294.572ZM563.336 292.997H588V244.28H563.336V292.997ZM548.029 292.997H561.761V228.974H523.977V292.997H537.709V276.292C537.709 275.857 538.061 275.505 538.496 275.505H547.242C547.677 275.505 548.029 275.857 548.029 276.292V292.997ZM539.283 292.997H546.455V277.079H539.283V292.997ZM563.336 242.705H574.879V235.533H563.336V242.705ZM580.828 280.665H579.254V276.292H580.831L580.828 280.665ZM572.082 280.665H570.508V276.292H572.084L572.082 280.665ZM556.776 280.665H555.201V276.292H556.776V280.665ZM530.537 280.665H528.962V276.292H530.537V280.665ZM580.828 267.545H579.254V263.172H580.831L580.828 267.545ZM572.082 267.545H570.508V263.172H572.084L572.082 267.545ZM556.776 267.545H555.201V263.172H556.776V267.545ZM548.029 267.545H546.455V263.172H548.029V267.545ZM539.283 267.545H537.709V263.172H539.283V267.545ZM530.537 267.545H528.962V263.172H530.537V267.545ZM580.828 254.426H579.254V250.052H580.831L580.828 254.426ZM572.082 254.426H570.508V250.052H572.084L572.082 254.426ZM556.776 254.426H555.201V250.052H556.776V254.426ZM548.029 254.426H546.455V250.052H548.029V254.426ZM539.283 254.426H537.709V250.052H539.283V254.426ZM530.537 254.426H528.962V250.052H530.537V254.426ZM556.776 241.306H555.201V236.933H556.776V241.306ZM548.029 241.306H546.455V236.933H548.029V241.306ZM539.283 241.306H537.709V236.933H539.283V241.306ZM530.537 241.306H528.962V236.933H530.537V241.306Z" fill="#ECECF4"/>
<path d="M588.788 294.572H523.19C522.754 294.572 522.402 294.22 522.402 293.785V228.186C522.402 227.751 522.754 227.399 523.19 227.399H562.548C562.984 227.399 563.336 227.751 563.336 228.186V233.959H575.668C576.103 233.959 576.455 234.311 576.455 234.746V242.705H588.788C589.223 242.705 589.575 243.058 589.575 243.493V293.785C589.575 294.22 589.223 294.572 588.788 294.572ZM563.336 292.997H588V244.28H563.336V292.997ZM548.029 292.997H561.761V228.974H523.977V292.997H537.709V276.292C537.709 275.857 538.061 275.505 538.496 275.505H547.242C547.677 275.505 548.029 275.857 548.029 276.292V292.997ZM539.283 292.997H546.455V277.079H539.283V292.997ZM563.336 242.705H574.879V235.533H563.336V242.705ZM580.828 280.665H579.254V276.292H580.831L580.828 280.665ZM572.082 280.665H570.508V276.292H572.084L572.082 280.665ZM556.776 280.665H555.201V276.292H556.776V280.665ZM530.537 280.665H528.962V276.292H530.537V280.665ZM580.828 267.545H579.254V263.172H580.831L580.828 267.545ZM572.082 267.545H570.508V263.172H572.084L572.082 267.545ZM556.776 267.545H555.201V263.172H556.776V267.545ZM548.029 267.545H546.455V263.172H548.029V267.545ZM539.283 267.545H537.709V263.172H539.283V267.545ZM530.537 267.545H528.962V263.172H530.537V267.545ZM580.828 254.426H579.254V250.052H580.831L580.828 254.426ZM572.082 254.426H570.508V250.052H572.084L572.082 254.426ZM556.776 254.426H555.201V250.052H556.776V254.426ZM548.029 254.426H546.455V250.052H548.029V254.426ZM539.283 254.426H537.709V250.052H539.283V254.426ZM530.537 254.426H528.962V250.052H530.537V254.426ZM556.776 241.306H555.201V236.933H556.776V241.306ZM548.029 241.306H546.455V236.933H548.029V241.306ZM539.283 241.306H537.709V236.933H539.283V241.306ZM530.537 241.306H528.962V236.933H530.537V241.306Z" stroke="#ECECF4" stroke-width="1.24391" mask="url(#path-28-outside-3_1496_499)"/>
</g>
<defs>
<clipPath id="clip0_1496_499">
<rect width="109.955" height="109.955" fill="white" transform="translate(109 97)"/>
</clipPath>
<clipPath id="clip1_1496_499">
<rect width="69.9714" height="69.9714" fill="white" transform="translate(72 373)"/>
</clipPath>
<clipPath id="clip2_1496_499">
<rect width="69.9714" height="69.9714" fill="white" transform="translate(521 226)"/>
</clipPath>
</defs>
</svg>
